<svg xmlns="http://www.w3.org/2000/svg" xmlns:xlink="http://www.w3.org/1999/xlink" width="600" height="400" viewBox="0 0 2400 1600">
<defs>
  <clipPath id="clip680">
    <rect x="0" y="0" width="2400" height="1600"></rect>
  </clipPath>
</defs>
<path clip-path="url(#clip680)" d="
M0 1600 L2400 1600 L2400 0 L0 0  Z
  " fill="#ffffff" fill-rule="evenodd" fill-opacity="1"></path>
<defs>
  <clipPath id="clip681">
    <rect x="480" y="0" width="1681" height="1600"></rect>
  </clipPath>
</defs>
<path clip-path="url(#clip680)" d="
M235.283 1486.45 L2352.76 1486.45 L2352.76 123.472 L235.283 123.472  Z
  " fill="#ffffff" fill-rule="evenodd" fill-opacity="1"></path>
<defs>
  <clipPath id="clip682">
    <rect x="235" y="123" width="2118" height="1364"></rect>
  </clipPath>
</defs>
<polyline clip-path="url(#clip682)" style="stroke:#000000; stroke-linecap:butt; stroke-linejoin:round; stroke-width:2; stroke-opacity:0.1; fill:none" points="
  269.268,1486.45 269.268,123.472 
  "></polyline>
<polyline clip-path="url(#clip682)" style="stroke:#000000; stroke-linecap:butt; stroke-linejoin:round; stroke-width:2; stroke-opacity:0.1; fill:none" points="
  1073.5,1486.45 1073.5,123.472 
  "></polyline>
<polyline clip-path="url(#clip682)" style="stroke:#000000; stroke-linecap:butt; stroke-linejoin:round; stroke-width:2; stroke-opacity:0.1; fill:none" points="
  1851.8,1486.45 1851.8,123.472 
  "></polyline>
<polyline clip-path="url(#clip680)" style="stroke:#000000; stroke-linecap:butt; stroke-linejoin:round; stroke-width:4; stroke-opacity:1; fill:none" points="
  235.283,1486.45 2352.76,1486.45 
  "></polyline>
<polyline clip-path="url(#clip680)" style="stroke:#000000; stroke-linecap:butt; stroke-linejoin:round; stroke-width:4; stroke-opacity:1; fill:none" points="
  269.268,1486.45 269.268,1467.55 
  "></polyline>
<polyline clip-path="url(#clip680)" style="stroke:#000000; stroke-linecap:butt; stroke-linejoin:round; stroke-width:4; stroke-opacity:1; fill:none" points="
  1073.5,1486.45 1073.5,1467.55 
  "></polyline>
<polyline clip-path="url(#clip680)" style="stroke:#000000; stroke-linecap:butt; stroke-linejoin:round; stroke-width:4; stroke-opacity:1; fill:none" points="
  1851.8,1486.45 1851.8,1467.55 
  "></polyline>
<path clip-path="url(#clip680)" d="M141.063 1544.91 L157.382 1544.91 L157.382 1548.85 L135.438 1548.85 L135.438 1544.91 Q138.1 1542.16 142.683 1537.53 Q147.29 1532.88 148.47 1531.53 Q150.716 1529.01 151.595 1527.27 Q152.498 1525.51 152.498 1523.82 Q152.498 1521.07 150.554 1519.33 Q148.632 1517.6 145.531 1517.6 Q143.331 1517.6 140.878 1518.36 Q138.447 1519.13 135.669 1520.68 L135.669 1515.95 Q138.494 1514.82 140.947 1514.24 Q143.401 1513.66 145.438 1513.66 Q150.808 1513.66 154.003 1516.35 Q157.197 1519.03 157.197 1523.52 Q157.197 1525.65 156.387 1527.57 Q155.6 1529.47 153.493 1532.07 Q152.915 1532.74 149.813 1535.95 Q146.711 1539.15 141.063 1544.91 Z" fill="#000000" fill-rule="evenodd" fill-opacity="1"></path><path clip-path="url(#clip680)" d="M177.197 1517.37 Q173.586 1517.37 171.757 1520.93 Q169.952 1524.47 169.952 1531.6 Q169.952 1538.71 171.757 1542.27 Q173.586 1545.82 177.197 1545.82 Q180.831 1545.82 182.637 1542.27 Q184.465 1538.71 184.465 1531.6 Q184.465 1524.47 182.637 1520.93 Q180.831 1517.37 177.197 1517.37 M177.197 1513.66 Q183.007 1513.66 186.063 1518.27 Q189.141 1522.85 189.141 1531.6 Q189.141 1540.33 186.063 1544.94 Q183.007 1549.52 177.197 1549.52 Q171.387 1549.52 168.308 1544.94 Q165.253 1540.33 165.253 1531.6 Q165.253 1522.85 168.308 1518.27 Q171.387 1513.66 177.197 1513.66 Z" fill="#000000" fill-rule="evenodd" fill-opacity="1"></path><path clip-path="url(#clip680)" d="M201.387 1544.91 L217.706 1544.91 L217.706 1548.85 L195.762 1548.85 L195.762 1544.91 Q198.424 1542.16 203.007 1537.53 Q207.614 1532.88 208.794 1531.53 Q211.039 1529.01 211.919 1527.27 Q212.822 1525.51 212.822 1523.82 Q212.822 1521.07 210.877 1519.33 Q208.956 1517.6 205.854 1517.6 Q203.655 1517.6 201.202 1518.36 Q198.771 1519.13 195.993 1520.68 L195.993 1515.95 Q198.817 1514.82 201.271 1514.24 Q203.725 1513.66 205.762 1513.66 Q211.132 1513.66 214.326 1516.35 Q217.521 1519.03 217.521 1523.52 Q217.521 1525.65 216.711 1527.57 Q215.924 1529.47 213.817 1532.07 Q213.238 1532.74 210.137 1535.95 Q207.035 1539.15 201.387 1544.91 Z" fill="#000000" fill-rule="evenodd" fill-opacity="1"></path><path clip-path="url(#clip680)" d="M231.549 1544.91 L247.868 1544.91 L247.868 1548.85 L225.924 1548.85 L225.924 1544.91 Q228.586 1542.16 233.169 1537.53 Q237.775 1532.88 238.956 1531.53 Q241.201 1529.01 242.081 1527.27 Q242.984 1525.51 242.984 1523.82 Q242.984 1521.07 241.039 1519.33 Q239.118 1517.6 236.016 1517.6 Q233.817 1517.6 231.363 1518.36 Q228.933 1519.13 226.155 1520.68 L226.155 1515.95 Q228.979 1514.82 231.433 1514.24 Q233.887 1513.66 235.924 1513.66 Q241.294 1513.66 244.488 1516.35 Q247.683 1519.03 247.683 1523.52 Q247.683 1525.65 246.873 1527.57 Q246.086 1529.47 243.979 1532.07 Q243.4 1532.74 240.299 1535.95 Q237.197 1539.15 231.549 1544.91 Z" fill="#000000" fill-rule="evenodd" fill-opacity="1"></path><path clip-path="url(#clip680)" d="M254.928 1533.96 L267.405 1533.96 L267.405 1537.76 L254.928 1537.76 L254.928 1533.96 Z" fill="#000000" fill-rule="evenodd" fill-opacity="1"></path><path clip-path="url(#clip680)" d="M284.789 1517.37 Q281.178 1517.37 279.349 1520.93 Q277.544 1524.47 277.544 1531.6 Q277.544 1538.71 279.349 1542.27 Q281.178 1545.82 284.789 1545.82 Q288.423 1545.82 290.229 1542.27 Q292.057 1538.71 292.057 1531.6 Q292.057 1524.47 290.229 1520.93 Q288.423 1517.37 284.789 1517.37 M284.789 1513.66 Q290.599 1513.66 293.655 1518.27 Q296.733 1522.85 296.733 1531.6 Q296.733 1540.33 293.655 1544.94 Q290.599 1549.52 284.789 1549.52 Q278.979 1549.52 275.9 1544.94 Q272.845 1540.33 272.845 1531.6 Q272.845 1522.85 275.9 1518.27 Q278.979 1513.66 284.789 1513.66 Z" fill="#000000" fill-rule="evenodd" fill-opacity="1"></path><path clip-path="url(#clip680)" d="M304.997 1514.29 L323.354 1514.29 L323.354 1518.22 L309.28 1518.22 L309.28 1526.7 Q310.298 1526.35 311.317 1526.19 Q312.335 1526 313.354 1526 Q319.141 1526 322.52 1529.17 Q325.9 1532.34 325.9 1537.76 Q325.9 1543.34 322.428 1546.44 Q318.956 1549.52 312.636 1549.52 Q310.46 1549.52 308.192 1549.15 Q305.946 1548.78 303.539 1548.04 L303.539 1543.34 Q305.622 1544.47 307.844 1545.03 Q310.067 1545.58 312.543 1545.58 Q316.548 1545.58 318.886 1543.48 Q321.224 1541.37 321.224 1537.76 Q321.224 1534.15 318.886 1532.04 Q316.548 1529.94 312.543 1529.94 Q310.669 1529.94 308.794 1530.35 Q306.942 1530.77 304.997 1531.65 L304.997 1514.29 Z" fill="#000000" fill-rule="evenodd" fill-opacity="1"></path><path clip-path="url(#clip680)" d="M332.358 1533.96 L344.835 1533.96 L344.835 1537.76 L332.358 1537.76 L332.358 1533.96 Z" fill="#000000" fill-rule="evenodd" fill-opacity="1"></path><path clip-path="url(#clip680)" d="M362.219 1517.37 Q358.608 1517.37 356.779 1520.93 Q354.974 1524.47 354.974 1531.6 Q354.974 1538.71 356.779 1542.27 Q358.608 1545.82 362.219 1545.82 Q365.853 1545.82 367.659 1542.27 Q369.488 1538.71 369.488 1531.6 Q369.488 1524.47 367.659 1520.93 Q365.853 1517.37 362.219 1517.37 M362.219 1513.66 Q368.029 1513.66 371.085 1518.27 Q374.164 1522.85 374.164 1531.6 Q374.164 1540.33 371.085 1544.94 Q368.029 1549.52 362.219 1549.52 Q356.409 1549.52 353.33 1544.94 Q350.275 1540.33 350.275 1531.6 Q350.275 1522.85 353.33 1518.27 Q356.409 1513.66 362.219 1513.66 Z" fill="#000000" fill-rule="evenodd" fill-opacity="1"></path><path clip-path="url(#clip680)" d="M383.191 1544.91 L390.83 1544.91 L390.83 1518.55 L382.52 1520.21 L382.52 1515.95 L390.784 1514.29 L395.46 1514.29 L395.46 1544.91 L403.099 1544.91 L403.099 1548.85 L383.191 1548.85 L383.191 1544.91 Z" fill="#000000" fill-rule="evenodd" fill-opacity="1"></path><path clip-path="url(#clip680)" d="M945.298 1544.91 L961.617 1544.91 L961.617 1548.85 L939.673 1548.85 L939.673 1544.91 Q942.335 1542.16 946.918 1537.53 Q951.525 1532.88 952.705 1531.53 Q954.951 1529.01 955.83 1527.27 Q956.733 1525.51 956.733 1523.82 Q956.733 1521.07 954.789 1519.33 Q952.867 1517.6 949.766 1517.6 Q947.566 1517.6 945.113 1518.36 Q942.682 1519.13 939.904 1520.68 L939.904 1515.95 Q942.729 1514.82 945.182 1514.24 Q947.636 1513.66 949.673 1513.66 Q955.043 1513.66 958.238 1516.35 Q961.432 1519.03 961.432 1523.52 Q961.432 1525.65 960.622 1527.57 Q959.835 1529.47 957.728 1532.07 Q957.15 1532.74 954.048 1535.95 Q950.946 1539.15 945.298 1544.91 Z" fill="#000000" fill-rule="evenodd" fill-opacity="1"></path><path clip-path="url(#clip680)" d="M981.432 1517.37 Q977.821 1517.37 975.992 1520.93 Q974.187 1524.47 974.187 1531.6 Q974.187 1538.71 975.992 1542.27 Q977.821 1545.82 981.432 1545.82 Q985.066 1545.82 986.872 1542.27 Q988.701 1538.71 988.701 1531.6 Q988.701 1524.47 986.872 1520.93 Q985.066 1517.37 981.432 1517.37 M981.432 1513.66 Q987.242 1513.66 990.298 1518.27 Q993.376 1522.85 993.376 1531.6 Q993.376 1540.33 990.298 1544.94 Q987.242 1549.52 981.432 1549.52 Q975.622 1549.52 972.543 1544.94 Q969.488 1540.33 969.488 1531.6 Q969.488 1522.85 972.543 1518.27 Q975.622 1513.66 981.432 1513.66 Z" fill="#000000" fill-rule="evenodd" fill-opacity="1"></path><path clip-path="url(#clip680)" d="M1005.62 1544.91 L1021.94 1544.91 L1021.94 1548.85 L999.997 1548.85 L999.997 1544.91 Q1002.66 1542.16 1007.24 1537.53 Q1011.85 1532.88 1013.03 1531.53 Q1015.27 1529.01 1016.15 1527.27 Q1017.06 1525.51 1017.06 1523.82 Q1017.06 1521.07 1015.11 1519.33 Q1013.19 1517.6 1010.09 1517.6 Q1007.89 1517.6 1005.44 1518.36 Q1003.01 1519.13 1000.23 1520.68 L1000.23 1515.95 Q1003.05 1514.82 1005.51 1514.24 Q1007.96 1513.66 1010 1513.66 Q1015.37 1513.66 1018.56 1516.35 Q1021.76 1519.03 1021.76 1523.52 Q1021.76 1525.65 1020.95 1527.57 Q1020.16 1529.47 1018.05 1532.07 Q1017.47 1532.74 1014.37 1535.95 Q1011.27 1539.15 1005.62 1544.91 Z" fill="#000000" fill-rule="evenodd" fill-opacity="1"></path><path clip-path="url(#clip680)" d="M1035.78 1544.91 L1052.1 1544.91 L1052.1 1548.85 L1030.16 1548.85 L1030.16 1544.91 Q1032.82 1542.16 1037.4 1537.53 Q1042.01 1532.88 1043.19 1531.53 Q1045.44 1529.01 1046.32 1527.27 Q1047.22 1525.51 1047.22 1523.82 Q1047.22 1521.07 1045.27 1519.33 Q1043.35 1517.6 1040.25 1517.6 Q1038.05 1517.6 1035.6 1518.36 Q1033.17 1519.13 1030.39 1520.68 L1030.39 1515.95 Q1033.21 1514.82 1035.67 1514.24 Q1038.12 1513.66 1040.16 1513.66 Q1045.53 1513.66 1048.72 1516.35 Q1051.92 1519.03 1051.92 1523.52 Q1051.92 1525.65 1051.11 1527.57 Q1050.32 1529.47 1048.21 1532.07 Q1047.64 1532.74 1044.53 1535.95 Q1041.43 1539.15 1035.78 1544.91 Z" fill="#000000" fill-rule="evenodd" fill-opacity="1"></path><path clip-path="url(#clip680)" d="M1059.16 1533.96 L1071.64 1533.96 L1071.64 1537.76 L1059.16 1537.76 L1059.16 1533.96 Z" fill="#000000" fill-rule="evenodd" fill-opacity="1"></path><path clip-path="url(#clip680)" d="M1089.02 1517.37 Q1085.41 1517.37 1083.58 1520.93 Q1081.78 1524.47 1081.78 1531.6 Q1081.78 1538.71 1083.58 1542.27 Q1085.41 1545.82 1089.02 1545.82 Q1092.66 1545.82 1094.46 1542.27 Q1096.29 1538.71 1096.29 1531.6 Q1096.29 1524.47 1094.46 1520.93 Q1092.66 1517.37 1089.02 1517.37 M1089.02 1513.66 Q1094.83 1513.66 1097.89 1518.27 Q1100.97 1522.85 1100.97 1531.6 Q1100.97 1540.33 1097.89 1544.94 Q1094.83 1549.52 1089.02 1549.52 Q1083.21 1549.52 1080.14 1544.94 Q1077.08 1540.33 1077.08 1531.6 Q1077.08 1522.85 1080.14 1518.27 Q1083.21 1513.66 1089.02 1513.66 Z" fill="#000000" fill-rule="evenodd" fill-opacity="1"></path><path clip-path="url(#clip680)" d="M1119.76 1529.7 Q1116.62 1529.7 1114.76 1531.86 Q1112.94 1534.01 1112.94 1537.76 Q1112.94 1541.49 1114.76 1543.66 Q1116.62 1545.82 1119.76 1545.82 Q1122.91 1545.82 1124.74 1543.66 Q1126.59 1541.49 1126.59 1537.76 Q1126.59 1534.01 1124.74 1531.86 Q1122.91 1529.7 1119.76 1529.7 M1129.05 1515.05 L1129.05 1519.31 Q1127.29 1518.48 1125.48 1518.04 Q1123.7 1517.6 1121.94 1517.6 Q1117.31 1517.6 1114.86 1520.72 Q1112.43 1523.85 1112.08 1530.17 Q1113.45 1528.15 1115.51 1527.09 Q1117.57 1526 1120.04 1526 Q1125.25 1526 1128.26 1529.17 Q1131.29 1532.32 1131.29 1537.76 Q1131.29 1543.08 1128.14 1546.3 Q1125 1549.52 1119.76 1549.52 Q1113.77 1549.52 1110.6 1544.94 Q1107.43 1540.33 1107.43 1531.6 Q1107.43 1523.41 1111.32 1518.55 Q1115.2 1513.66 1121.76 1513.66 Q1123.51 1513.66 1125.3 1514.01 Q1127.1 1514.36 1129.05 1515.05 Z" fill="#000000" fill-rule="evenodd" fill-opacity="1"></path><path clip-path="url(#clip680)" d="M1136.59 1533.96 L1149.07 1533.96 L1149.07 1537.76 L1136.59 1537.76 L1136.59 1533.96 Z" fill="#000000" fill-rule="evenodd" fill-opacity="1"></path><path clip-path="url(#clip680)" d="M1166.45 1517.37 Q1162.84 1517.37 1161.01 1520.93 Q1159.21 1524.47 1159.21 1531.6 Q1159.21 1538.71 1161.01 1542.27 Q1162.84 1545.82 1166.45 1545.82 Q1170.09 1545.82 1171.89 1542.27 Q1173.72 1538.71 1173.72 1531.6 Q1173.72 1524.47 1171.89 1520.93 Q1170.09 1517.37 1166.45 1517.37 M1166.45 1513.66 Q1172.26 1513.66 1175.32 1518.27 Q1178.4 1522.85 1178.4 1531.6 Q1178.4 1540.33 1175.32 1544.94 Q1172.26 1549.52 1166.45 1549.52 Q1160.64 1549.52 1157.57 1544.94 Q1154.51 1540.33 1154.51 1531.6 Q1154.51 1522.85 1157.57 1518.27 Q1160.64 1513.66 1166.45 1513.66 Z" fill="#000000" fill-rule="evenodd" fill-opacity="1"></path><path clip-path="url(#clip680)" d="M1187.43 1544.91 L1195.07 1544.91 L1195.07 1518.55 L1186.76 1520.21 L1186.76 1515.95 L1195.02 1514.29 L1199.69 1514.29 L1199.69 1544.91 L1207.33 1544.91 L1207.33 1548.85 L1187.43 1548.85 L1187.43 1544.91 Z" fill="#000000" fill-rule="evenodd" fill-opacity="1"></path><path clip-path="url(#clip680)" d="M1723.59 1544.91 L1739.91 1544.91 L1739.91 1548.85 L1717.96 1548.85 L1717.96 1544.91 Q1720.63 1542.16 1725.21 1537.53 Q1729.82 1532.88 1731 1531.53 Q1733.24 1529.01 1734.12 1527.27 Q1735.03 1525.51 1735.03 1523.82 Q1735.03 1521.07 1733.08 1519.33 Q1731.16 1517.6 1728.06 1517.6 Q1725.86 1517.6 1723.4 1518.36 Q1720.97 1519.13 1718.2 1520.68 L1718.2 1515.95 Q1721.02 1514.82 1723.47 1514.24 Q1725.93 1513.66 1727.96 1513.66 Q1733.34 1513.66 1736.53 1516.35 Q1739.72 1519.03 1739.72 1523.52 Q1739.72 1525.65 1738.91 1527.57 Q1738.13 1529.47 1736.02 1532.07 Q1735.44 1532.74 1732.34 1535.95 Q1729.24 1539.15 1723.59 1544.91 Z" fill="#000000" fill-rule="evenodd" fill-opacity="1"></path><path clip-path="url(#clip680)" d="M1759.72 1517.37 Q1756.11 1517.37 1754.28 1520.93 Q1752.48 1524.47 1752.48 1531.6 Q1752.48 1538.71 1754.28 1542.27 Q1756.11 1545.82 1759.72 1545.82 Q1763.36 1545.82 1765.16 1542.27 Q1766.99 1538.71 1766.99 1531.6 Q1766.99 1524.47 1765.16 1520.93 Q1763.36 1517.37 1759.72 1517.37 M1759.72 1513.66 Q1765.53 1513.66 1768.59 1518.27 Q1771.67 1522.85 1771.67 1531.6 Q1771.67 1540.33 1768.59 1544.94 Q1765.53 1549.52 1759.72 1549.52 Q1753.91 1549.52 1750.84 1544.94 Q1747.78 1540.33 1747.78 1531.6 Q1747.78 1522.85 1750.84 1518.27 Q1753.91 1513.66 1759.72 1513.66 Z" fill="#000000" fill-rule="evenodd" fill-opacity="1"></path><path clip-path="url(#clip680)" d="M1783.91 1544.91 L1800.23 1544.91 L1800.23 1548.85 L1778.29 1548.85 L1778.29 1544.91 Q1780.95 1542.16 1785.53 1537.53 Q1790.14 1532.88 1791.32 1531.53 Q1793.57 1529.01 1794.45 1527.27 Q1795.35 1525.51 1795.35 1523.82 Q1795.35 1521.07 1793.4 1519.33 Q1791.48 1517.6 1788.38 1517.6 Q1786.18 1517.6 1783.73 1518.36 Q1781.3 1519.13 1778.52 1520.68 L1778.52 1515.95 Q1781.34 1514.82 1783.8 1514.24 Q1786.25 1513.66 1788.29 1513.66 Q1793.66 1513.66 1796.85 1516.35 Q1800.05 1519.03 1800.05 1523.52 Q1800.05 1525.65 1799.24 1527.57 Q1798.45 1529.47 1796.34 1532.07 Q1795.77 1532.74 1792.66 1535.95 Q1789.56 1539.15 1783.91 1544.91 Z" fill="#000000" fill-rule="evenodd" fill-opacity="1"></path><path clip-path="url(#clip680)" d="M1814.08 1544.91 L1830.39 1544.91 L1830.39 1548.85 L1808.45 1548.85 L1808.45 1544.91 Q1811.11 1542.16 1815.7 1537.53 Q1820.3 1532.88 1821.48 1531.53 Q1823.73 1529.01 1824.61 1527.27 Q1825.51 1525.51 1825.51 1523.82 Q1825.51 1521.07 1823.57 1519.33 Q1821.64 1517.6 1818.54 1517.6 Q1816.34 1517.6 1813.89 1518.36 Q1811.46 1519.13 1808.68 1520.68 L1808.68 1515.95 Q1811.51 1514.82 1813.96 1514.24 Q1816.41 1513.66 1818.45 1513.66 Q1823.82 1513.66 1827.02 1516.35 Q1830.21 1519.03 1830.21 1523.52 Q1830.21 1525.65 1829.4 1527.57 Q1828.61 1529.47 1826.51 1532.07 Q1825.93 1532.74 1822.83 1535.95 Q1819.72 1539.15 1814.08 1544.91 Z" fill="#000000" fill-rule="evenodd" fill-opacity="1"></path><path clip-path="url(#clip680)" d="M1837.46 1533.96 L1849.93 1533.96 L1849.93 1537.76 L1837.46 1537.76 L1837.46 1533.96 Z" fill="#000000" fill-rule="evenodd" fill-opacity="1"></path><path clip-path="url(#clip680)" d="M1867.32 1517.37 Q1863.7 1517.37 1861.88 1520.93 Q1860.07 1524.47 1860.07 1531.6 Q1860.07 1538.71 1861.88 1542.27 Q1863.7 1545.82 1867.32 1545.82 Q1870.95 1545.82 1872.76 1542.27 Q1874.58 1538.71 1874.58 1531.6 Q1874.58 1524.47 1872.76 1520.93 Q1870.95 1517.37 1867.32 1517.37 M1867.32 1513.66 Q1873.13 1513.66 1876.18 1518.27 Q1879.26 1522.85 1879.26 1531.6 Q1879.26 1540.33 1876.18 1544.94 Q1873.13 1549.52 1867.32 1549.52 Q1861.51 1549.52 1858.43 1544.94 Q1855.37 1540.33 1855.37 1531.6 Q1855.37 1522.85 1858.43 1518.27 Q1861.51 1513.66 1867.32 1513.66 Z" fill="#000000" fill-rule="evenodd" fill-opacity="1"></path><path clip-path="url(#clip680)" d="M1886.3 1514.29 L1908.52 1514.29 L1908.52 1516.28 L1895.97 1548.85 L1891.09 1548.85 L1902.89 1518.22 L1886.3 1518.22 L1886.3 1514.29 Z" fill="#000000" fill-rule="evenodd" fill-opacity="1"></path><path clip-path="url(#clip680)" d="M1914.89 1533.96 L1927.36 1533.96 L1927.36 1537.76 L1914.89 1537.76 L1914.89 1533.96 Z" fill="#000000" fill-rule="evenodd" fill-opacity="1"></path><path clip-path="url(#clip680)" d="M1944.75 1517.37 Q1941.14 1517.37 1939.31 1520.93 Q1937.5 1524.47 1937.5 1531.6 Q1937.5 1538.71 1939.31 1542.27 Q1941.14 1545.82 1944.75 1545.82 Q1948.38 1545.82 1950.19 1542.27 Q1952.01 1538.71 1952.01 1531.6 Q1952.01 1524.47 1950.19 1520.93 Q1948.38 1517.37 1944.75 1517.37 M1944.75 1513.66 Q1950.56 1513.66 1953.61 1518.27 Q1956.69 1522.85 1956.69 1531.6 Q1956.69 1540.33 1953.61 1544.94 Q1950.56 1549.52 1944.75 1549.52 Q1938.94 1549.52 1935.86 1544.94 Q1932.8 1540.33 1932.8 1531.6 Q1932.8 1522.85 1935.86 1518.27 Q1938.94 1513.66 1944.75 1513.66 Z" fill="#000000" fill-rule="evenodd" fill-opacity="1"></path><path clip-path="url(#clip680)" d="M1965.72 1544.91 L1973.36 1544.91 L1973.36 1518.55 L1965.05 1520.21 L1965.05 1515.95 L1973.31 1514.29 L1977.99 1514.29 L1977.99 1544.91 L1985.63 1544.91 L1985.63 1548.85 L1965.72 1548.85 L1965.72 1544.91 Z" fill="#000000" fill-rule="evenodd" fill-opacity="1"></path><polyline clip-path="url(#clip682)" style="stroke:#000000; stroke-linecap:butt; stroke-linejoin:round; stroke-width:2; stroke-opacity:0.1; fill:none" points="
  235.283,1447.87 2352.76,1447.87 
  "></polyline>
<polyline clip-path="url(#clip682)" style="stroke:#000000; stroke-linecap:butt; stroke-linejoin:round; stroke-width:2; stroke-opacity:0.1; fill:none" points="
  235.283,1174.01 2352.76,1174.01 
  "></polyline>
<polyline clip-path="url(#clip682)" style="stroke:#000000; stroke-linecap:butt; stroke-linejoin:round; stroke-width:2; stroke-opacity:0.1; fill:none" points="
  235.283,900.155 2352.76,900.155 
  "></polyline>
<polyline clip-path="url(#clip682)" style="stroke:#000000; stroke-linecap:butt; stroke-linejoin:round; stroke-width:2; stroke-opacity:0.1; fill:none" points="
  235.283,626.296 2352.76,626.296 
  "></polyline>
<polyline clip-path="url(#clip682)" style="stroke:#000000; stroke-linecap:butt; stroke-linejoin:round; stroke-width:2; stroke-opacity:0.1; fill:none" points="
  235.283,352.437 2352.76,352.437 
  "></polyline>
<polyline clip-path="url(#clip680)" style="stroke:#000000; stroke-linecap:butt; stroke-linejoin:round; stroke-width:4; stroke-opacity:1; fill:none" points="
  235.283,1486.45 235.283,123.472 
  "></polyline>
<polyline clip-path="url(#clip680)" style="stroke:#000000; stroke-linecap:butt; stroke-linejoin:round; stroke-width:4; stroke-opacity:1; fill:none" points="
  235.283,1447.87 254.18,1447.87 
  "></polyline>
<polyline clip-path="url(#clip680)" style="stroke:#000000; stroke-linecap:butt; stroke-linejoin:round; stroke-width:4; stroke-opacity:1; fill:none" points="
  235.283,1174.01 254.18,1174.01 
  "></polyline>
<polyline clip-path="url(#clip680)" style="stroke:#000000; stroke-linecap:butt; stroke-linejoin:round; stroke-width:4; stroke-opacity:1; fill:none" points="
  235.283,900.155 254.18,900.155 
  "></polyline>
<polyline clip-path="url(#clip680)" style="stroke:#000000; stroke-linecap:butt; stroke-linejoin:round; stroke-width:4; stroke-opacity:1; fill:none" points="
  235.283,626.296 254.18,626.296 
  "></polyline>
<polyline clip-path="url(#clip680)" style="stroke:#000000; stroke-linecap:butt; stroke-linejoin:round; stroke-width:4; stroke-opacity:1; fill:none" points="
  235.283,352.437 254.18,352.437 
  "></polyline>
<path clip-path="url(#clip680)" d="M187.338 1433.67 Q183.727 1433.67 181.899 1437.24 Q180.093 1440.78 180.093 1447.91 Q180.093 1455.01 181.899 1458.58 Q183.727 1462.12 187.338 1462.12 Q190.973 1462.12 192.778 1458.58 Q194.607 1455.01 194.607 1447.91 Q194.607 1440.78 192.778 1437.24 Q190.973 1433.67 187.338 1433.67 M187.338 1429.97 Q193.149 1429.97 196.204 1434.57 Q199.283 1439.16 199.283 1447.91 Q199.283 1456.63 196.204 1461.24 Q193.149 1465.82 187.338 1465.82 Q181.528 1465.82 178.45 1461.24 Q175.394 1456.63 175.394 1447.91 Q175.394 1439.16 178.45 1434.57 Q181.528 1429.97 187.338 1429.97 Z" fill="#000000" fill-rule="evenodd" fill-opacity="1"></path><path clip-path="url(#clip680)" d="M117.825 1187.36 L125.464 1187.36 L125.464 1160.99 L117.154 1162.66 L117.154 1158.4 L125.418 1156.73 L130.093 1156.73 L130.093 1187.36 L137.732 1187.36 L137.732 1191.29 L117.825 1191.29 L117.825 1187.36 Z" fill="#000000" fill-rule="evenodd" fill-opacity="1"></path><path clip-path="url(#clip680)" d="M157.177 1159.81 Q153.566 1159.81 151.737 1163.38 Q149.931 1166.92 149.931 1174.05 Q149.931 1181.16 151.737 1184.72 Q153.566 1188.26 157.177 1188.26 Q160.811 1188.26 162.616 1184.72 Q164.445 1181.16 164.445 1174.05 Q164.445 1166.92 162.616 1163.38 Q160.811 1159.81 157.177 1159.81 M157.177 1156.11 Q162.987 1156.11 166.042 1160.72 Q169.121 1165.3 169.121 1174.05 Q169.121 1182.78 166.042 1187.38 Q162.987 1191.97 157.177 1191.97 Q151.366 1191.97 148.288 1187.38 Q145.232 1182.78 145.232 1174.05 Q145.232 1165.3 148.288 1160.72 Q151.366 1156.11 157.177 1156.11 Z" fill="#000000" fill-rule="evenodd" fill-opacity="1"></path><path clip-path="url(#clip680)" d="M187.338 1159.81 Q183.727 1159.81 181.899 1163.38 Q180.093 1166.92 180.093 1174.05 Q180.093 1181.16 181.899 1184.72 Q183.727 1188.26 187.338 1188.26 Q190.973 1188.26 192.778 1184.72 Q194.607 1181.16 194.607 1174.05 Q194.607 1166.92 192.778 1163.38 Q190.973 1159.81 187.338 1159.81 M187.338 1156.11 Q193.149 1156.11 196.204 1160.72 Q199.283 1165.3 199.283 1174.05 Q199.283 1182.78 196.204 1187.38 Q193.149 1191.97 187.338 1191.97 Q181.528 1191.97 178.45 1187.38 Q175.394 1182.78 175.394 1174.05 Q175.394 1165.3 178.45 1160.72 Q181.528 1156.11 187.338 1156.11 Z" fill="#000000" fill-rule="evenodd" fill-opacity="1"></path><path clip-path="url(#clip680)" d="M121.043 913.5 L137.362 913.5 L137.362 917.435 L115.418 917.435 L115.418 913.5 Q118.08 910.745 122.663 906.116 Q127.269 901.463 128.45 900.12 Q130.695 897.597 131.575 895.861 Q132.478 894.102 132.478 892.412 Q132.478 889.658 130.533 887.921 Q128.612 886.185 125.51 886.185 Q123.311 886.185 120.857 886.949 Q118.427 887.713 115.649 889.264 L115.649 884.542 Q118.473 883.408 120.927 882.829 Q123.38 882.25 125.418 882.25 Q130.788 882.25 133.982 884.935 Q137.177 887.62 137.177 892.111 Q137.177 894.241 136.367 896.162 Q135.579 898.06 133.473 900.653 Q132.894 901.324 129.792 904.542 Q126.691 907.736 121.043 913.5 Z" fill="#000000" fill-rule="evenodd" fill-opacity="1"></path><path clip-path="url(#clip680)" d="M157.177 885.954 Q153.566 885.954 151.737 889.519 Q149.931 893.06 149.931 900.19 Q149.931 907.296 151.737 910.861 Q153.566 914.403 157.177 914.403 Q160.811 914.403 162.616 910.861 Q164.445 907.296 164.445 900.19 Q164.445 893.06 162.616 889.519 Q160.811 885.954 157.177 885.954 M157.177 882.25 Q162.987 882.25 166.042 886.857 Q169.121 891.44 169.121 900.19 Q169.121 908.917 166.042 913.523 Q162.987 918.106 157.177 918.106 Q151.366 918.106 148.288 913.523 Q145.232 908.917 145.232 900.19 Q145.232 891.44 148.288 886.857 Q151.366 882.25 157.177 882.25 Z" fill="#000000" fill-rule="evenodd" fill-opacity="1"></path><path clip-path="url(#clip680)" d="M187.338 885.954 Q183.727 885.954 181.899 889.519 Q180.093 893.06 180.093 900.19 Q180.093 907.296 181.899 910.861 Q183.727 914.403 187.338 914.403 Q190.973 914.403 192.778 910.861 Q194.607 907.296 194.607 900.19 Q194.607 893.06 192.778 889.519 Q190.973 885.954 187.338 885.954 M187.338 882.25 Q193.149 882.25 196.204 886.857 Q199.283 891.44 199.283 900.19 Q199.283 908.917 196.204 913.523 Q193.149 918.106 187.338 918.106 Q181.528 918.106 178.45 913.523 Q175.394 908.917 175.394 900.19 Q175.394 891.44 178.45 886.857 Q181.528 882.25 187.338 882.25 Z" fill="#000000" fill-rule="evenodd" fill-opacity="1"></path><path clip-path="url(#clip680)" d="M131.181 624.942 Q134.538 625.66 136.413 627.928 Q138.311 630.197 138.311 633.53 Q138.311 638.646 134.792 641.447 Q131.274 644.247 124.793 644.247 Q122.617 644.247 120.302 643.808 Q118.01 643.391 115.556 642.534 L115.556 638.021 Q117.501 639.155 119.816 639.734 Q122.13 640.312 124.654 640.312 Q129.052 640.312 131.343 638.576 Q133.658 636.84 133.658 633.53 Q133.658 630.474 131.505 628.761 Q129.376 627.025 125.556 627.025 L121.529 627.025 L121.529 623.183 L125.742 623.183 Q129.191 623.183 131.019 621.817 Q132.848 620.428 132.848 617.836 Q132.848 615.174 130.95 613.761 Q129.075 612.326 125.556 612.326 Q123.635 612.326 121.436 612.743 Q119.237 613.16 116.598 614.039 L116.598 609.873 Q119.26 609.132 121.575 608.762 Q123.913 608.391 125.973 608.391 Q131.297 608.391 134.399 610.822 Q137.501 613.229 137.501 617.349 Q137.501 620.22 135.857 622.211 Q134.214 624.178 131.181 624.942 Z" fill="#000000" fill-rule="evenodd" fill-opacity="1"></path><path clip-path="url(#clip680)" d="M157.177 612.095 Q153.566 612.095 151.737 615.66 Q149.931 619.201 149.931 626.331 Q149.931 633.437 151.737 637.002 Q153.566 640.544 157.177 640.544 Q160.811 640.544 162.616 637.002 Q164.445 633.437 164.445 626.331 Q164.445 619.201 162.616 615.66 Q160.811 612.095 157.177 612.095 M157.177 608.391 Q162.987 608.391 166.042 612.998 Q169.121 617.581 169.121 626.331 Q169.121 635.058 166.042 639.664 Q162.987 644.247 157.177 644.247 Q151.366 644.247 148.288 639.664 Q145.232 635.058 145.232 626.331 Q145.232 617.581 148.288 612.998 Q151.366 608.391 157.177 608.391 Z" fill="#000000" fill-rule="evenodd" fill-opacity="1"></path><path clip-path="url(#clip680)" d="M187.338 612.095 Q183.727 612.095 181.899 615.66 Q180.093 619.201 180.093 626.331 Q180.093 633.437 181.899 637.002 Q183.727 640.544 187.338 640.544 Q190.973 640.544 192.778 637.002 Q194.607 633.437 194.607 626.331 Q194.607 619.201 192.778 615.66 Q190.973 612.095 187.338 612.095 M187.338 608.391 Q193.149 608.391 196.204 612.998 Q199.283 617.581 199.283 626.331 Q199.283 635.058 196.204 639.664 Q193.149 644.247 187.338 644.247 Q181.528 644.247 178.45 639.664 Q175.394 635.058 175.394 626.331 Q175.394 617.581 178.45 612.998 Q181.528 608.391 187.338 608.391 Z" fill="#000000" fill-rule="evenodd" fill-opacity="1"></path><path clip-path="url(#clip680)" d="M129.862 339.231 L118.056 357.68 L129.862 357.68 L129.862 339.231 M128.635 335.157 L134.515 335.157 L134.515 357.68 L139.445 357.68 L139.445 361.569 L134.515 361.569 L134.515 369.717 L129.862 369.717 L129.862 361.569 L114.26 361.569 L114.26 357.055 L128.635 335.157 Z" fill="#000000" fill-rule="evenodd" fill-opacity="1"></path><path clip-path="url(#clip680)" d="M157.177 338.236 Q153.566 338.236 151.737 341.801 Q149.931 345.342 149.931 352.472 Q149.931 359.578 151.737 363.143 Q153.566 366.685 157.177 366.685 Q160.811 366.685 162.616 363.143 Q164.445 359.578 164.445 352.472 Q164.445 345.342 162.616 341.801 Q160.811 338.236 157.177 338.236 M157.177 334.532 Q162.987 334.532 166.042 339.139 Q169.121 343.722 169.121 352.472 Q169.121 361.199 166.042 365.805 Q162.987 370.388 157.177 370.388 Q151.366 370.388 148.288 365.805 Q145.232 361.199 145.232 352.472 Q145.232 343.722 148.288 339.139 Q151.366 334.532 157.177 334.532 Z" fill="#000000" fill-rule="evenodd" fill-opacity="1"></path><path clip-path="url(#clip680)" d="M187.338 338.236 Q183.727 338.236 181.899 341.801 Q180.093 345.342 180.093 352.472 Q180.093 359.578 181.899 363.143 Q183.727 366.685 187.338 366.685 Q190.973 366.685 192.778 363.143 Q194.607 359.578 194.607 352.472 Q194.607 345.342 192.778 341.801 Q190.973 338.236 187.338 338.236 M187.338 334.532 Q193.149 334.532 196.204 339.139 Q199.283 343.722 199.283 352.472 Q199.283 361.199 196.204 365.805 Q193.149 370.388 187.338 370.388 Q181.528 370.388 178.45 365.805 Q175.394 361.199 175.394 352.472 Q175.394 343.722 178.45 339.139 Q181.528 334.532 187.338 334.532 Z" fill="#000000" fill-rule="evenodd" fill-opacity="1"></path><path clip-path="url(#clip680)" d="M33.8307 1022.08 Q33.2578 1023.07 33.0032 1024.24 Q32.7167 1025.39 32.7167 1026.79 Q32.7167 1031.75 35.9632 1034.43 Q39.1779 1037.07 45.2253 1037.07 L64.0042 1037.07 L64.0042 1042.96 L28.3562 1042.96 L28.3562 1037.07 L33.8944 1037.07 Q30.6479 1035.22 29.0883 1032.26 Q27.4968 1029.3 27.4968 1025.07 Q27.4968 1024.47 27.5923 1023.73 Q27.656 1023 27.8151 1022.11 L33.8307 1022.08 Z" fill="#000000" fill-rule="evenodd" fill-opacity="1"></path><path clip-path="url(#clip680)" d="M44.7161 986.876 L47.5806 986.876 L47.5806 1013.8 Q53.6281 1013.42 56.8109 1010.17 Q59.9619 1006.9 59.9619 1001.07 Q59.9619 997.698 59.1344 994.547 Q58.3069 991.364 56.6518 988.245 L62.1899 988.245 Q63.5267 991.396 64.227 994.706 Q64.9272 998.016 64.9272 1001.42 Q64.9272 1009.95 59.9619 1014.95 Q54.9967 1019.91 46.5303 1019.91 Q37.7774 1019.91 32.6531 1015.2 Q27.4968 1010.46 27.4968 1002.44 Q27.4968 995.247 32.1438 991.077 Q36.7589 986.876 44.7161 986.876 M42.9973 992.732 Q38.1912 992.796 35.3266 995.438 Q32.4621 998.048 32.4621 1002.38 Q32.4621 1007.28 35.2312 1010.24 Q38.0002 1013.17 43.0292 1013.61 L42.9973 992.732 Z" fill="#000000" fill-rule="evenodd" fill-opacity="1"></path><path clip-path="url(#clip680)" d="M58.657 971.598 L77.5631 971.598 L77.5631 977.487 L28.3562 977.487 L28.3562 971.598 L33.7671 971.598 Q30.5842 969.752 29.0564 966.951 Q27.4968 964.119 27.4968 960.204 Q27.4968 953.711 32.6531 949.668 Q37.8093 945.594 46.212 945.594 Q54.6147 945.594 59.771 949.668 Q64.9272 953.711 64.9272 960.204 Q64.9272 964.119 63.3994 966.951 Q61.8398 969.752 58.657 971.598 M46.212 951.674 Q39.7508 951.674 36.0905 954.347 Q32.3984 956.989 32.3984 961.636 Q32.3984 966.283 36.0905 968.957 Q39.7508 971.598 46.212 971.598 Q52.6732 971.598 56.3653 968.957 Q60.0256 966.283 60.0256 961.636 Q60.0256 956.989 56.3653 954.347 Q52.6732 951.674 46.212 951.674 Z" fill="#000000" fill-rule="evenodd" fill-opacity="1"></path><path clip-path="url(#clip680)" d="M32.4621 922.073 Q32.4621 926.784 36.1542 929.521 Q39.8145 932.258 46.212 932.258 Q52.6095 932.258 56.3017 929.553 Q59.9619 926.816 59.9619 922.073 Q59.9619 917.394 56.2698 914.657 Q52.5777 911.92 46.212 911.92 Q39.8781 911.92 36.186 914.657 Q32.4621 917.394 32.4621 922.073 M27.4968 922.073 Q27.4968 914.434 32.4621 910.074 Q37.4273 905.713 46.212 905.713 Q54.9649 905.713 59.9619 910.074 Q64.9272 914.434 64.9272 922.073 Q64.9272 929.744 59.9619 934.104 Q54.9649 938.433 46.212 938.433 Q37.4273 938.433 32.4621 934.104 Q27.4968 929.744 27.4968 922.073 Z" fill="#000000" fill-rule="evenodd" fill-opacity="1"></path><path clip-path="url(#clip680)" d="M33.8307 875.349 Q33.2578 876.335 33.0032 877.513 Q32.7167 878.659 32.7167 880.059 Q32.7167 885.025 35.9632 887.698 Q39.1779 890.34 45.2253 890.34 L64.0042 890.34 L64.0042 896.228 L28.3562 896.228 L28.3562 890.34 L33.8944 890.34 Q30.6479 888.494 29.0883 885.534 Q27.4968 882.574 27.4968 878.341 Q27.4968 877.736 27.5923 877.004 Q27.656 876.272 27.8151 875.381 L33.8307 875.349 Z" fill="#000000" fill-rule="evenodd" fill-opacity="1"></path><path clip-path="url(#clip680)" d="M18.2347 863.413 L28.3562 863.413 L28.3562 851.35 L32.9077 851.35 L32.9077 863.413 L52.2594 863.413 Q56.6199 863.413 57.8613 862.235 Q59.1026 861.026 59.1026 857.366 L59.1026 851.35 L64.0042 851.35 L64.0042 857.366 Q64.0042 864.145 61.4897 866.723 Q58.9434 869.301 52.2594 869.301 L32.9077 869.301 L32.9077 873.598 L28.3562 873.598 L28.3562 869.301 L18.2347 869.301 L18.2347 863.413 Z" fill="#000000" fill-rule="evenodd" fill-opacity="1"></path><path clip-path="url(#clip680)" d="M44.7161 813.156 L47.5806 813.156 L47.5806 840.083 Q53.6281 839.701 56.8109 836.454 Q59.9619 833.176 59.9619 827.351 Q59.9619 823.978 59.1344 820.827 Q58.3069 817.644 56.6518 814.524 L62.1899 814.524 Q63.5267 817.675 64.227 820.986 Q64.9272 824.296 64.9272 827.701 Q64.9272 836.232 59.9619 841.229 Q54.9967 846.194 46.5303 846.194 Q37.7774 846.194 32.6531 841.483 Q27.4968 836.741 27.4968 828.72 Q27.4968 821.527 32.1438 817.357 Q36.7589 813.156 44.7161 813.156 M42.9973 819.012 Q38.1912 819.076 35.3266 821.718 Q32.4621 824.328 32.4621 828.656 Q32.4621 833.558 35.2312 836.518 Q38.0002 839.446 43.0292 839.892 L42.9973 819.012 Z" fill="#000000" fill-rule="evenodd" fill-opacity="1"></path><path clip-path="url(#clip680)" d="M33.7671 780.086 L14.479 780.086 L14.479 774.23 L64.0042 774.23 L64.0042 780.086 L58.657 780.086 Q61.8398 781.932 63.3994 784.765 Q64.9272 787.566 64.9272 791.512 Q64.9272 797.974 59.771 802.048 Q54.6147 806.09 46.212 806.09 Q37.8093 806.09 32.6531 802.048 Q27.4968 797.974 27.4968 791.512 Q27.4968 787.566 29.0564 784.765 Q30.5842 781.932 33.7671 780.086 M46.212 800.042 Q52.6732 800.042 56.3653 797.401 Q60.0256 794.727 60.0256 790.08 Q60.0256 785.433 56.3653 782.76 Q52.6732 780.086 46.212 780.086 Q39.7508 780.086 36.0905 782.76 Q32.3984 785.433 32.3984 790.08 Q32.3984 794.727 36.0905 797.401 Q39.7508 800.042 46.212 800.042 Z" fill="#000000" fill-rule="evenodd" fill-opacity="1"></path><path clip-path="url(#clip680)" d="M29.7248 715.792 L35.1993 715.792 Q33.8307 718.275 33.1623 720.789 Q32.4621 723.272 32.4621 725.818 Q32.4621 731.516 36.0905 734.667 Q39.6872 737.818 46.212 737.818 Q52.7369 737.818 56.3653 734.667 Q59.9619 731.516 59.9619 725.818 Q59.9619 723.272 59.2935 720.789 Q58.5933 718.275 57.2247 715.792 L62.6355 715.792 Q63.7814 718.243 64.3543 720.885 Q64.9272 723.495 64.9272 726.455 Q64.9272 734.508 59.8664 739.25 Q54.8057 743.992 46.212 743.992 Q37.491 743.992 32.4939 739.218 Q27.4968 734.412 27.4968 726.073 Q27.4968 723.368 28.0697 720.789 Q28.6108 718.211 29.7248 715.792 Z" fill="#000000" fill-rule="evenodd" fill-opacity="1"></path><path clip-path="url(#clip680)" d="M46.0847 689.407 Q46.0847 696.504 47.7079 699.242 Q49.3312 701.979 53.2461 701.979 Q56.3653 701.979 58.2114 699.942 Q60.0256 697.873 60.0256 694.34 Q60.0256 689.47 56.5881 686.542 Q53.1188 683.582 47.3897 683.582 L46.0847 683.582 L46.0847 689.407 M43.6657 677.725 L64.0042 677.725 L64.0042 683.582 L58.5933 683.582 Q61.8398 685.587 63.3994 688.579 Q64.9272 691.571 64.9272 695.9 Q64.9272 701.374 61.8716 704.621 Q58.7843 707.835 53.6281 707.835 Q47.6125 707.835 44.5569 703.825 Q41.5014 699.783 41.5014 691.794 L41.5014 683.582 L40.9285 683.582 Q36.8862 683.582 34.6901 686.255 Q32.4621 688.897 32.4621 693.703 Q32.4621 696.759 33.1941 699.655 Q33.9262 702.552 35.3903 705.225 L29.9795 705.225 Q28.7381 702.011 28.1334 698.987 Q27.4968 695.963 27.4968 693.099 Q27.4968 685.364 31.5072 681.545 Q35.5176 677.725 43.6657 677.725 Z" fill="#000000" fill-rule="evenodd" fill-opacity="1"></path><path clip-path="url(#clip680)" d="M29.4065 642.937 L34.9447 642.937 Q33.6716 645.419 33.035 648.093 Q32.3984 650.767 32.3984 653.631 Q32.3984 657.992 33.7352 660.188 Q35.072 662.352 37.7456 662.352 Q39.7826 662.352 40.9603 660.793 Q42.1061 659.233 43.1565 654.522 L43.6021 652.517 Q44.9389 646.279 47.3897 643.669 Q49.8086 641.027 54.1691 641.027 Q59.1344 641.027 62.0308 644.974 Q64.9272 648.889 64.9272 655.764 Q64.9272 658.628 64.3543 661.748 Q63.8132 664.835 62.6992 668.272 L56.6518 668.272 Q58.3387 665.026 59.198 661.875 Q60.0256 658.724 60.0256 655.636 Q60.0256 651.499 58.6251 649.271 Q57.1929 647.043 54.6147 647.043 Q52.2276 647.043 50.9545 648.666 Q49.6813 650.257 48.5037 655.7 L48.0262 657.737 Q46.8804 663.18 44.5251 665.599 Q42.138 668.018 38.0002 668.018 Q32.9713 668.018 30.2341 664.453 Q27.4968 660.888 27.4968 654.331 Q27.4968 651.085 27.9743 648.22 Q28.4517 645.356 29.4065 642.937 Z" fill="#000000" fill-rule="evenodd" fill-opacity="1"></path><path clip-path="url(#clip680)" d="M44.7161 601.21 L47.5806 601.21 L47.5806 628.137 Q53.6281 627.755 56.8109 624.508 Q59.9619 621.23 59.9619 615.405 Q59.9619 612.031 59.1344 608.88 Q58.3069 605.697 56.6518 602.578 L62.1899 602.578 Q63.5267 605.729 64.227 609.039 Q64.9272 612.35 64.9272 615.755 Q64.9272 624.285 59.9619 629.282 Q54.9967 634.248 46.5303 634.248 Q37.7774 634.248 32.6531 629.537 Q27.4968 624.795 27.4968 616.774 Q27.4968 609.581 32.1438 605.411 Q36.7589 601.21 44.7161 601.21 M42.9973 607.066 Q38.1912 607.13 35.3266 609.772 Q32.4621 612.381 32.4621 616.71 Q32.4621 621.612 35.2312 624.572 Q38.0002 627.5 43.0292 627.946 L42.9973 607.066 Z" fill="#000000" fill-rule="evenodd" fill-opacity="1"></path><path clip-path="url(#clip680)" d="M29.4065 568.872 L34.9447 568.872 Q33.6716 571.354 33.035 574.028 Q32.3984 576.702 32.3984 579.566 Q32.3984 583.927 33.7352 586.123 Q35.072 588.287 37.7456 588.287 Q39.7826 588.287 40.9603 586.728 Q42.1061 585.168 43.1565 580.457 L43.6021 578.452 Q44.9389 572.214 47.3897 569.604 Q49.8086 566.962 54.1691 566.962 Q59.1344 566.962 62.0308 570.909 Q64.9272 574.824 64.9272 581.699 Q64.9272 584.563 64.3543 587.683 Q63.8132 590.77 62.6992 594.207 L56.6518 594.207 Q58.3387 590.961 59.198 587.81 Q60.0256 584.659 60.0256 581.571 Q60.0256 577.434 58.6251 575.206 Q57.1929 572.978 54.6147 572.978 Q52.2276 572.978 50.9545 574.601 Q49.6813 576.192 48.5037 581.635 L48.0262 583.672 Q46.8804 589.115 44.5251 591.534 Q42.138 593.953 38.0002 593.953 Q32.9713 593.953 30.2341 590.388 Q27.4968 586.823 27.4968 580.266 Q27.4968 577.02 27.9743 574.155 Q28.4517 571.291 29.4065 568.872 Z" fill="#000000" fill-rule="evenodd" fill-opacity="1"></path><path clip-path="url(#clip680)" d="M695.032 12.096 L703.296 12.096 L716.016 63.2184 L728.695 12.096 L737.891 12.096 L750.611 63.2184 L763.29 12.096 L771.595 12.096 L756.404 72.576 L746.114 72.576 L733.354 20.0763 L720.472 72.576 L710.183 72.576 L695.032 12.096 Z" fill="#000000" fill-rule="evenodd" fill-opacity="1"></path><path clip-path="url(#clip680)" d="M816.073 48.0275 L816.073 51.6733 L781.803 51.6733 Q782.289 59.3701 786.421 63.421 Q790.593 67.4314 798.006 67.4314 Q802.3 67.4314 806.311 66.3781 Q810.362 65.3249 814.332 63.2184 L814.332 70.267 Q810.321 71.9684 806.108 72.8596 Q801.895 73.7508 797.561 73.7508 Q786.704 73.7508 780.344 67.4314 Q774.025 61.1119 774.025 50.3365 Q774.025 39.1965 780.02 32.6746 Q786.056 26.1121 796.265 26.1121 Q805.42 26.1121 810.726 32.0264 Q816.073 37.9003 816.073 48.0275 M808.62 45.84 Q808.539 39.7232 805.177 36.0774 Q801.855 32.4315 796.346 32.4315 Q790.107 32.4315 786.34 35.9558 Q782.613 39.4801 782.046 45.8805 L808.62 45.84 Z" fill="#000000" fill-rule="evenodd" fill-opacity="1"></path><path clip-path="url(#clip680)" d="M867.115 48.0275 L867.115 51.6733 L832.844 51.6733 Q833.33 59.3701 837.462 63.421 Q841.635 67.4314 849.048 67.4314 Q853.342 67.4314 857.352 66.3781 Q861.403 65.3249 865.373 63.2184 L865.373 70.267 Q861.363 71.9684 857.15 72.8596 Q852.937 73.7508 848.602 73.7508 Q837.746 73.7508 831.386 67.4314 Q825.066 61.1119 825.066 50.3365 Q825.066 39.1965 831.062 32.6746 Q837.098 26.1121 847.306 26.1121 Q856.461 26.1121 861.768 32.0264 Q867.115 37.9003 867.115 48.0275 M859.661 45.84 Q859.58 39.7232 856.218 36.0774 Q852.896 32.4315 847.387 32.4315 Q841.149 32.4315 837.381 35.9558 Q833.654 39.4801 833.087 45.8805 L859.661 45.84 Z" fill="#000000" fill-rule="evenodd" fill-opacity="1"></path><path clip-path="url(#clip680)" d="M879.065 9.54393 L886.559 9.54393 L886.559 46.7717 L908.799 27.2059 L918.318 27.2059 L894.256 48.4326 L919.331 72.576 L909.609 72.576 L886.559 50.4176 L886.559 72.576 L879.065 72.576 L879.065 9.54393 Z" fill="#000000" fill-rule="evenodd" fill-opacity="1"></path><path clip-path="url(#clip680)" d="M927.392 9.54393 L934.846 9.54393 L934.846 72.576 L927.392 72.576 L927.392 9.54393 Z" fill="#000000" fill-rule="evenodd" fill-opacity="1"></path><path clip-path="url(#clip680)" d="M969.319 76.7889 Q966.159 84.8907 963.162 87.3618 Q960.164 89.8329 955.141 89.8329 L949.186 89.8329 L949.186 83.5945 L953.561 83.5945 Q956.64 83.5945 958.341 82.1361 Q960.043 80.6778 962.109 75.2496 L963.445 71.8468 L945.095 27.2059 L952.994 27.2059 L967.172 62.6918 L981.35 27.2059 L989.25 27.2059 L969.319 76.7889 Z" fill="#000000" fill-rule="evenodd" fill-opacity="1"></path><path clip-path="url(#clip680)" d="M1052.2 34.1734 Q1050.94 33.4443 1049.45 33.1202 Q1047.99 32.7556 1046.21 32.7556 Q1039.89 32.7556 1036.48 36.8875 Q1033.12 40.9789 1033.12 48.6757 L1033.12 72.576 L1025.63 72.576 L1025.63 27.2059 L1033.12 27.2059 L1033.12 34.2544 Q1035.47 30.1225 1039.24 28.1376 Q1043.01 26.1121 1048.39 26.1121 Q1049.16 26.1121 1050.09 26.2337 Q1051.03 26.3147 1052.16 26.5172 L1052.2 34.1734 Z" fill="#000000" fill-rule="evenodd" fill-opacity="1"></path><path clip-path="url(#clip680)" d="M1097 48.0275 L1097 51.6733 L1062.73 51.6733 Q1063.22 59.3701 1067.35 63.421 Q1071.52 67.4314 1078.94 67.4314 Q1083.23 67.4314 1087.24 66.3781 Q1091.29 65.3249 1095.26 63.2184 L1095.26 70.267 Q1091.25 71.9684 1087.04 72.8596 Q1082.83 73.7508 1078.49 73.7508 Q1067.63 73.7508 1061.27 67.4314 Q1054.96 61.1119 1054.96 50.3365 Q1054.96 39.1965 1060.95 32.6746 Q1066.99 26.1121 1077.19 26.1121 Q1086.35 26.1121 1091.66 32.0264 Q1097 37.9003 1097 48.0275 M1089.55 45.84 Q1089.47 39.7232 1086.11 36.0774 Q1082.78 32.4315 1077.28 32.4315 Q1071.04 32.4315 1067.27 35.9558 Q1063.54 39.4801 1062.98 45.8805 L1089.55 45.84 Z" fill="#000000" fill-rule="evenodd" fill-opacity="1"></path><path clip-path="url(#clip680)" d="M1116.45 65.7705 L1116.45 89.8329 L1108.95 89.8329 L1108.95 27.2059 L1116.45 27.2059 L1116.45 34.0924 Q1118.8 30.0415 1122.36 28.0971 Q1125.97 26.1121 1130.95 26.1121 Q1139.21 26.1121 1144.36 32.6746 Q1149.54 39.2371 1149.54 49.9314 Q1149.54 60.6258 1144.36 67.1883 Q1139.21 73.7508 1130.95 73.7508 Q1125.97 73.7508 1122.36 71.8063 Q1118.8 69.8214 1116.45 65.7705 M1141.81 49.9314 Q1141.81 41.7081 1138.4 37.0496 Q1135.04 32.3505 1129.13 32.3505 Q1123.21 32.3505 1119.81 37.0496 Q1116.45 41.7081 1116.45 49.9314 Q1116.45 58.1548 1119.81 62.8538 Q1123.21 67.5124 1129.13 67.5124 Q1135.04 67.5124 1138.4 62.8538 Q1141.81 58.1548 1141.81 49.9314 Z" fill="#000000" fill-rule="evenodd" fill-opacity="1"></path><path clip-path="url(#clip680)" d="M1179.48 32.4315 Q1173.48 32.4315 1170 37.1306 Q1166.52 41.7891 1166.52 49.9314 Q1166.52 58.0738 1169.96 62.7728 Q1173.44 67.4314 1179.48 67.4314 Q1185.43 67.4314 1188.92 62.7323 Q1192.4 58.0333 1192.4 49.9314 Q1192.4 41.8701 1188.92 37.1711 Q1185.43 32.4315 1179.48 32.4315 M1179.48 26.1121 Q1189.2 26.1121 1194.75 32.4315 Q1200.3 38.7509 1200.3 49.9314 Q1200.3 61.0714 1194.75 67.4314 Q1189.2 73.7508 1179.48 73.7508 Q1169.72 73.7508 1164.17 67.4314 Q1158.66 61.0714 1158.66 49.9314 Q1158.66 38.7509 1164.17 32.4315 Q1169.72 26.1121 1179.48 26.1121 Z" fill="#000000" fill-rule="evenodd" fill-opacity="1"></path><path clip-path="url(#clip680)" d="M1238.95 34.1734 Q1237.69 33.4443 1236.19 33.1202 Q1234.73 32.7556 1232.95 32.7556 Q1226.63 32.7556 1223.23 36.8875 Q1219.87 40.9789 1219.87 48.6757 L1219.87 72.576 L1212.37 72.576 L1212.37 27.2059 L1219.87 27.2059 L1219.87 34.2544 Q1222.22 30.1225 1225.98 28.1376 Q1229.75 26.1121 1235.14 26.1121 Q1235.91 26.1121 1236.84 26.2337 Q1237.77 26.3147 1238.91 26.5172 L1238.95 34.1734 Z" fill="#000000" fill-rule="evenodd" fill-opacity="1"></path><path clip-path="url(#clip680)" d="M1254.14 14.324 L1254.14 27.2059 L1269.49 27.2059 L1269.49 32.9987 L1254.14 32.9987 L1254.14 57.6282 Q1254.14 63.1779 1255.64 64.7578 Q1257.18 66.3376 1261.83 66.3376 L1269.49 66.3376 L1269.49 72.576 L1261.83 72.576 Q1253.21 72.576 1249.93 69.3758 Q1246.64 66.1351 1246.64 57.6282 L1246.64 32.9987 L1241.18 32.9987 L1241.18 27.2059 L1246.64 27.2059 L1246.64 14.324 L1254.14 14.324 Z" fill="#000000" fill-rule="evenodd" fill-opacity="1"></path><path clip-path="url(#clip680)" d="M1318.1 48.0275 L1318.1 51.6733 L1283.83 51.6733 Q1284.32 59.3701 1288.45 63.421 Q1292.62 67.4314 1300.03 67.4314 Q1304.33 67.4314 1308.34 66.3781 Q1312.39 65.3249 1316.36 63.2184 L1316.36 70.267 Q1312.35 71.9684 1308.14 72.8596 Q1303.92 73.7508 1299.59 73.7508 Q1288.73 73.7508 1282.37 67.4314 Q1276.05 61.1119 1276.05 50.3365 Q1276.05 39.1965 1282.05 32.6746 Q1288.08 26.1121 1298.29 26.1121 Q1307.45 26.1121 1312.75 32.0264 Q1318.1 37.9003 1318.1 48.0275 M1310.65 45.84 Q1310.57 39.7232 1307.21 36.0774 Q1303.88 32.4315 1298.37 32.4315 Q1292.14 32.4315 1288.37 35.9558 Q1284.64 39.4801 1284.07 45.8805 L1310.65 45.84 Z" fill="#000000" fill-rule="evenodd" fill-opacity="1"></path><path clip-path="url(#clip680)" d="M1360.19 34.0924 L1360.19 9.54393 L1367.64 9.54393 L1367.64 72.576 L1360.19 72.576 L1360.19 65.7705 Q1357.84 69.8214 1354.24 71.8063 Q1350.67 73.7508 1345.65 73.7508 Q1337.42 73.7508 1332.24 67.1883 Q1327.1 60.6258 1327.1 49.9314 Q1327.1 39.2371 1332.24 32.6746 Q1337.42 26.1121 1345.65 26.1121 Q1350.67 26.1121 1354.24 28.0971 Q1357.84 30.0415 1360.19 34.0924 M1334.79 49.9314 Q1334.79 58.1548 1338.15 62.8538 Q1341.56 67.5124 1347.47 67.5124 Q1353.39 67.5124 1356.79 62.8538 Q1360.19 58.1548 1360.19 49.9314 Q1360.19 41.7081 1356.79 37.0496 Q1353.39 32.3505 1347.47 32.3505 Q1341.56 32.3505 1338.15 37.0496 Q1334.79 41.7081 1334.79 49.9314 Z" fill="#000000" fill-rule="evenodd" fill-opacity="1"></path><path clip-path="url(#clip680)" d="M1409.69 12.096 L1421.89 12.096 L1437.32 53.2532 L1452.84 12.096 L1465.03 12.096 L1465.03 72.576 L1457.05 72.576 L1457.05 19.4686 L1441.45 60.9499 L1433.23 60.9499 L1417.63 19.4686 L1417.63 72.576 L1409.69 72.576 L1409.69 12.096 Z" fill="#000000" fill-rule="evenodd" fill-opacity="1"></path><path clip-path="url(#clip680)" d="M1489.46 18.8205 L1489.46 41.5461 L1499.74 41.5461 Q1505.46 41.5461 1508.58 38.5889 Q1511.69 35.6318 1511.69 30.163 Q1511.69 24.7348 1508.58 21.7777 Q1505.46 18.8205 1499.74 18.8205 L1489.46 18.8205 M1481.27 12.096 L1499.74 12.096 Q1509.91 12.096 1515.1 16.714 Q1520.32 21.2916 1520.32 30.163 Q1520.32 39.1155 1515.1 43.6931 Q1509.91 48.2706 1499.74 48.2706 L1489.46 48.2706 L1489.46 72.576 L1481.27 72.576 L1481.27 12.096 Z" fill="#000000" fill-rule="evenodd" fill-opacity="1"></path><path clip-path="url(#clip680)" d="M1528.38 12.096 L1537.17 12.096 L1552.2 34.5785 L1567.31 12.096 L1576.1 12.096 L1556.66 41.141 L1577.4 72.576 L1568.61 72.576 L1551.6 46.8528 L1534.46 72.576 L1525.63 72.576 L1547.22 40.2903 L1528.38 12.096 Z" fill="#000000" fill-rule="evenodd" fill-opacity="1"></path><path clip-path="url(#clip680)" d="M1603.73 72.576 L1580.64 12.096 L1589.19 12.096 L1608.35 63.0159 L1627.55 12.096 L1636.06 12.096 L1613.01 72.576 L1603.73 72.576 Z" fill="#000000" fill-rule="evenodd" fill-opacity="1"></path><path clip-path="url(#clip680)" d="M1703.59 28.9478 L1703.59 35.9153 Q1700.43 34.1734 1697.23 33.3227 Q1694.07 32.4315 1690.83 32.4315 Q1683.57 32.4315 1679.56 37.0496 Q1675.55 41.6271 1675.55 49.9314 Q1675.55 58.2358 1679.56 62.8538 Q1683.57 67.4314 1690.83 67.4314 Q1694.07 67.4314 1697.23 66.5807 Q1700.43 65.6895 1703.59 63.9476 L1703.59 70.8341 Q1700.47 72.2924 1697.1 73.0216 Q1693.78 73.7508 1690.02 73.7508 Q1679.77 73.7508 1673.73 67.3098 Q1667.7 60.8689 1667.7 49.9314 Q1667.7 38.832 1673.77 32.472 Q1679.89 26.1121 1690.5 26.1121 Q1693.94 26.1121 1697.23 26.8413 Q1700.51 27.5299 1703.59 28.9478 Z" fill="#000000" fill-rule="evenodd" fill-opacity="1"></path><path clip-path="url(#clip680)" d="M1737.17 49.7694 Q1728.13 49.7694 1724.65 51.8354 Q1721.17 53.9013 1721.17 58.8839 Q1721.17 62.8538 1723.76 65.2034 Q1726.39 67.5124 1730.89 67.5124 Q1737.09 67.5124 1740.81 63.1374 Q1744.58 58.7219 1744.58 51.4303 L1744.58 49.7694 L1737.17 49.7694 M1752.03 46.6907 L1752.03 72.576 L1744.58 72.576 L1744.58 65.6895 Q1742.03 69.8214 1738.22 71.8063 Q1734.41 73.7508 1728.9 73.7508 Q1721.94 73.7508 1717.8 69.8619 Q1713.71 65.9325 1713.71 59.3701 Q1713.71 51.7138 1718.82 47.825 Q1723.96 43.9361 1734.13 43.9361 L1744.58 43.9361 L1744.58 43.2069 Q1744.58 38.0623 1741.18 35.2672 Q1737.82 32.4315 1731.7 32.4315 Q1727.81 32.4315 1724.12 33.3632 Q1720.44 34.295 1717.04 36.1584 L1717.04 29.2718 Q1721.13 27.692 1724.97 26.9223 Q1728.82 26.1121 1732.47 26.1121 Q1742.31 26.1121 1747.17 31.2163 Q1752.03 36.3204 1752.03 46.6907 Z" fill="#000000" fill-rule="evenodd" fill-opacity="1"></path><path clip-path="url(#clip680)" d="M1796.31 28.5427 L1796.31 35.5912 Q1793.15 33.9709 1789.75 33.1607 Q1786.35 32.3505 1782.7 32.3505 Q1777.15 32.3505 1774.36 34.0519 Q1771.6 35.7533 1771.6 39.156 Q1771.6 41.7486 1773.59 43.2475 Q1775.57 44.7058 1781.57 46.0426 L1784.12 46.6097 Q1792.06 48.3111 1795.38 51.4303 Q1798.74 54.509 1798.74 60.0587 Q1798.74 66.3781 1793.72 70.0644 Q1788.74 73.7508 1779.99 73.7508 Q1776.34 73.7508 1772.37 73.0216 Q1768.44 72.3329 1764.07 70.9151 L1764.07 63.2184 Q1768.2 65.3654 1772.21 66.4591 Q1776.22 67.5124 1780.15 67.5124 Q1785.41 67.5124 1788.25 65.73 Q1791.09 63.9071 1791.09 60.6258 Q1791.09 57.5877 1789.02 55.9673 Q1786.99 54.3469 1780.07 52.8481 L1777.47 52.2405 Q1770.55 50.7821 1767.47 47.7845 Q1764.39 44.7463 1764.39 39.4801 Q1764.39 33.0797 1768.93 29.5959 Q1773.46 26.1121 1781.81 26.1121 Q1785.94 26.1121 1789.59 26.7198 Q1793.23 27.3274 1796.31 28.5427 Z" fill="#000000" fill-rule="evenodd" fill-opacity="1"></path><path clip-path="url(#clip680)" d="M1849.42 48.0275 L1849.42 51.6733 L1815.15 51.6733 Q1815.63 59.3701 1819.77 63.421 Q1823.94 67.4314 1831.35 67.4314 Q1835.65 67.4314 1839.66 66.3781 Q1843.71 65.3249 1847.68 63.2184 L1847.68 70.267 Q1843.67 71.9684 1839.45 72.8596 Q1835.24 73.7508 1830.91 73.7508 Q1820.05 73.7508 1813.69 67.4314 Q1807.37 61.1119 1807.37 50.3365 Q1807.37 39.1965 1813.37 32.6746 Q1819.4 26.1121 1829.61 26.1121 Q1838.76 26.1121 1844.07 32.0264 Q1849.42 37.9003 1849.42 48.0275 M1841.96 45.84 Q1841.88 39.7232 1838.52 36.0774 Q1835.2 32.4315 1829.69 32.4315 Q1823.45 32.4315 1819.68 35.9558 Q1815.96 39.4801 1815.39 45.8805 L1841.96 45.84 Z" fill="#000000" fill-rule="evenodd" fill-opacity="1"></path><path clip-path="url(#clip680)" d="M1890.58 28.5427 L1890.58 35.5912 Q1887.42 33.9709 1884.01 33.1607 Q1880.61 32.3505 1876.96 32.3505 Q1871.42 32.3505 1868.62 34.0519 Q1865.87 35.7533 1865.87 39.156 Q1865.87 41.7486 1867.85 43.2475 Q1869.84 44.7058 1875.83 46.0426 L1878.38 46.6097 Q1886.32 48.3111 1889.64 51.4303 Q1893.01 54.509 1893.01 60.0587 Q1893.01 66.3781 1887.98 70.0644 Q1883 73.7508 1874.25 73.7508 Q1870.6 73.7508 1866.63 73.0216 Q1862.71 72.3329 1858.33 70.9151 L1858.33 63.2184 Q1862.46 65.3654 1866.47 66.4591 Q1870.48 67.5124 1874.41 67.5124 Q1879.68 67.5124 1882.51 65.73 Q1885.35 63.9071 1885.35 60.6258 Q1885.35 57.5877 1883.28 55.9673 Q1881.26 54.3469 1874.33 52.8481 L1871.74 52.2405 Q1864.81 50.7821 1861.73 47.7845 Q1858.65 44.7463 1858.65 39.4801 Q1858.65 33.0797 1863.19 29.5959 Q1867.73 26.1121 1876.07 26.1121 Q1880.21 26.1121 1883.85 26.7198 Q1887.5 27.3274 1890.58 28.5427 Z" fill="#000000" fill-rule="evenodd" fill-opacity="1"></path><circle clip-path="url(#clip682)" cx="295.211" cy="1447.87" r="14.4" fill="#009af9" fill-rule="evenodd" fill-opacity="1" stroke="#000000" stroke-opacity="1" stroke-width="3.2"></circle>
<circle clip-path="url(#clip682)" cx="476.813" cy="1431.44" r="14.4" fill="#009af9" fill-rule="evenodd" fill-opacity="1" stroke="#000000" stroke-opacity="1" stroke-width="3.2"></circle>
<circle clip-path="url(#clip682)" cx="658.414" cy="1412.75" r="14.4" fill="#009af9" fill-rule="evenodd" fill-opacity="1" stroke="#000000" stroke-opacity="1" stroke-width="3.2"></circle>
<circle clip-path="url(#clip682)" cx="840.016" cy="1230.87" r="14.4" fill="#009af9" fill-rule="evenodd" fill-opacity="1" stroke="#000000" stroke-opacity="1" stroke-width="3.2"></circle>
<circle clip-path="url(#clip682)" cx="1021.62" cy="1155.29" r="14.4" fill="#009af9" fill-rule="evenodd" fill-opacity="1" stroke="#000000" stroke-opacity="1" stroke-width="3.2"></circle>
<circle clip-path="url(#clip682)" cx="1203.22" cy="824.604" r="14.4" fill="#009af9" fill-rule="evenodd" fill-opacity="1" stroke="#000000" stroke-opacity="1" stroke-width="3.2"></circle>
<circle clip-path="url(#clip682)" cx="1384.82" cy="1183.22" r="14.4" fill="#009af9" fill-rule="evenodd" fill-opacity="1" stroke="#000000" stroke-opacity="1" stroke-width="3.2"></circle>
<circle clip-path="url(#clip682)" cx="1566.42" cy="162.047" r="14.4" fill="#009af9" fill-rule="evenodd" fill-opacity="1" stroke="#000000" stroke-opacity="1" stroke-width="3.2"></circle>
<circle clip-path="url(#clip682)" cx="1748.02" cy="1049.53" r="14.4" fill="#009af9" fill-rule="evenodd" fill-opacity="1" stroke="#000000" stroke-opacity="1" stroke-width="3.2"></circle>
<circle clip-path="url(#clip682)" cx="1929.62" cy="691.791" r="14.4" fill="#009af9" fill-rule="evenodd" fill-opacity="1" stroke="#000000" stroke-opacity="1" stroke-width="3.2"></circle>
<circle clip-path="url(#clip682)" cx="2111.23" cy="684.38" r="14.4" fill="#009af9" fill-rule="evenodd" fill-opacity="1" stroke="#000000" stroke-opacity="1" stroke-width="3.2"></circle>
<circle clip-path="url(#clip682)" cx="2292.83" cy="768.703" r="14.4" fill="#009af9" fill-rule="evenodd" fill-opacity="1" stroke="#000000" stroke-opacity="1" stroke-width="3.2"></circle>
<circle clip-path="url(#clip682)" cx="295.211" cy="1445.13" r="14.4" fill="#e26f46" fill-rule="evenodd" fill-opacity="1" stroke="#000000" stroke-opacity="1" stroke-width="3.2"></circle>
<circle clip-path="url(#clip682)" cx="476.813" cy="1447.87" r="14.4" fill="#e26f46" fill-rule="evenodd" fill-opacity="1" stroke="#000000" stroke-opacity="1" stroke-width="3.2"></circle>
<circle clip-path="url(#clip682)" cx="658.414" cy="1447.4" r="14.4" fill="#e26f46" fill-rule="evenodd" fill-opacity="1" stroke="#000000" stroke-opacity="1" stroke-width="3.2"></circle>
<circle clip-path="url(#clip682)" cx="840.016" cy="1443.05" r="14.4" fill="#e26f46" fill-rule="evenodd" fill-opacity="1" stroke="#000000" stroke-opacity="1" stroke-width="3.2"></circle>
<circle clip-path="url(#clip682)" cx="1021.62" cy="1430.99" r="14.4" fill="#e26f46" fill-rule="evenodd" fill-opacity="1" stroke="#000000" stroke-opacity="1" stroke-width="3.2"></circle>
<circle clip-path="url(#clip682)" cx="1203.22" cy="1419.36" r="14.4" fill="#e26f46" fill-rule="evenodd" fill-opacity="1" stroke="#000000" stroke-opacity="1" stroke-width="3.2"></circle>
<circle clip-path="url(#clip682)" cx="1384.82" cy="1444.15" r="14.4" fill="#e26f46" fill-rule="evenodd" fill-opacity="1" stroke="#000000" stroke-opacity="1" stroke-width="3.2"></circle>
<circle clip-path="url(#clip682)" cx="1566.42" cy="1405.48" r="14.4" fill="#e26f46" fill-rule="evenodd" fill-opacity="1" stroke="#000000" stroke-opacity="1" stroke-width="3.2"></circle>
<circle clip-path="url(#clip682)" cx="1748.02" cy="1435.42" r="14.4" fill="#e26f46" fill-rule="evenodd" fill-opacity="1" stroke="#000000" stroke-opacity="1" stroke-width="3.2"></circle>
<circle clip-path="url(#clip682)" cx="1929.62" cy="1390.59" r="14.4" fill="#e26f46" fill-rule="evenodd" fill-opacity="1" stroke="#000000" stroke-opacity="1" stroke-width="3.2"></circle>
<circle clip-path="url(#clip682)" cx="2111.23" cy="1400.74" r="14.4" fill="#e26f46" fill-rule="evenodd" fill-opacity="1" stroke="#000000" stroke-opacity="1" stroke-width="3.2"></circle>
<circle clip-path="url(#clip682)" cx="2292.83" cy="1382.15" r="14.4" fill="#e26f46" fill-rule="evenodd" fill-opacity="1" stroke="#000000" stroke-opacity="1" stroke-width="3.2"></circle>
<path clip-path="url(#clip680)" d="
M1837.73 324.425 L2282.17 324.425 L2282.17 168.905 L1837.73 168.905  Z
  " fill="#ffffff" fill-rule="evenodd" fill-opacity="1"></path>
<polyline clip-path="url(#clip680)" style="stroke:#000000; stroke-linecap:butt; stroke-linejoin:round; stroke-width:4; stroke-opacity:1; fill:none" points="
  1837.73,324.425 2282.17,324.425 2282.17,168.905 1837.73,168.905 1837.73,324.425 
  "></polyline>
<circle clip-path="url(#clip680)" cx="1931.84" cy="220.745" r="23.04" fill="#009af9" fill-rule="evenodd" fill-opacity="1" stroke="#000000" stroke-opacity="1" stroke-width="5.12"></circle>
<path clip-path="url(#clip680)" d="M2025.95 203.465 L2032.92 203.465 L2041.74 226.983 L2050.61 203.465 L2057.57 203.465 L2057.57 238.025 L2053.01 238.025 L2053.01 207.678 L2044.1 231.381 L2039.4 231.381 L2030.49 207.678 L2030.49 238.025 L2025.95 238.025 L2025.95 203.465 Z" fill="#000000" fill-rule="evenodd" fill-opacity="1"></path><path clip-path="url(#clip680)" d="M2087.57 204.599 L2087.57 209.159 Q2084.91 207.886 2082.55 207.261 Q2080.19 206.636 2077.99 206.636 Q2074.17 206.636 2072.09 208.117 Q2070.03 209.599 2070.03 212.33 Q2070.03 214.622 2071.39 215.803 Q2072.78 216.96 2076.62 217.678 L2079.45 218.256 Q2084.68 219.252 2087.16 221.775 Q2089.66 224.275 2089.66 228.488 Q2089.66 233.511 2086.28 236.103 Q2082.92 238.696 2076.42 238.696 Q2073.96 238.696 2071.18 238.14 Q2068.43 237.585 2065.47 236.497 L2065.47 231.682 Q2068.31 233.279 2071.05 234.089 Q2073.78 234.9 2076.42 234.9 Q2080.42 234.9 2082.6 233.326 Q2084.77 231.752 2084.77 228.835 Q2084.77 226.289 2083.2 224.853 Q2081.65 223.418 2078.08 222.701 L2075.24 222.145 Q2070 221.103 2067.67 218.881 Q2065.33 216.659 2065.33 212.701 Q2065.33 208.117 2068.55 205.479 Q2071.79 202.84 2077.46 202.84 Q2079.89 202.84 2082.41 203.279 Q2084.93 203.719 2087.57 204.599 Z" fill="#000000" fill-rule="evenodd" fill-opacity="1"></path><path clip-path="url(#clip680)" d="M2096.95 203.465 L2103.92 203.465 L2112.73 226.983 L2121.6 203.465 L2128.57 203.465 L2128.57 238.025 L2124.01 238.025 L2124.01 207.678 L2115.1 231.381 L2110.4 231.381 L2101.48 207.678 L2101.48 238.025 L2096.95 238.025 L2096.95 203.465 Z" fill="#000000" fill-rule="evenodd" fill-opacity="1"></path><circle clip-path="url(#clip680)" cx="1931.84" cy="272.585" r="23.04" fill="#e26f46" fill-rule="evenodd" fill-opacity="1" stroke="#000000" stroke-opacity="1" stroke-width="5.12"></circle>
<path clip-path="url(#clip680)" d="M2047.67 274.217 L2047.67 289.865 L2043.41 289.865 L2043.41 274.355 Q2043.41 270.675 2041.97 268.846 Q2040.54 267.018 2037.67 267.018 Q2034.22 267.018 2032.23 269.217 Q2030.24 271.416 2030.24 275.212 L2030.24 289.865 L2025.95 289.865 L2025.95 263.939 L2030.24 263.939 L2030.24 267.967 Q2031.76 265.629 2033.82 264.471 Q2035.91 263.314 2038.61 263.314 Q2043.08 263.314 2045.37 266.092 Q2047.67 268.846 2047.67 274.217 Z" fill="#000000" fill-rule="evenodd" fill-opacity="1"></path><path clip-path="url(#clip680)" d="M2066.21 266.925 Q2062.78 266.925 2060.79 269.61 Q2058.8 272.272 2058.8 276.925 Q2058.8 281.578 2060.77 284.263 Q2062.76 286.925 2066.21 286.925 Q2069.61 286.925 2071.6 284.24 Q2073.59 281.555 2073.59 276.925 Q2073.59 272.318 2071.6 269.633 Q2069.61 266.925 2066.21 266.925 M2066.21 263.314 Q2071.76 263.314 2074.93 266.925 Q2078.11 270.536 2078.11 276.925 Q2078.11 283.291 2074.93 286.925 Q2071.76 290.536 2066.21 290.536 Q2060.63 290.536 2057.46 286.925 Q2054.31 283.291 2054.31 276.925 Q2054.31 270.536 2057.46 266.925 Q2060.63 263.314 2066.21 263.314 Z" fill="#000000" fill-rule="evenodd" fill-opacity="1"></path><path clip-path="url(#clip680)" d="M2106.72 274.217 L2106.72 289.865 L2102.46 289.865 L2102.46 274.355 Q2102.46 270.675 2101.02 268.846 Q2099.59 267.018 2096.72 267.018 Q2093.27 267.018 2091.28 269.217 Q2089.29 271.416 2089.29 275.212 L2089.29 289.865 L2085 289.865 L2085 263.939 L2089.29 263.939 L2089.29 267.967 Q2090.81 265.629 2092.87 264.471 Q2094.96 263.314 2097.67 263.314 Q2102.13 263.314 2104.42 266.092 Q2106.72 268.846 2106.72 274.217 Z" fill="#000000" fill-rule="evenodd" fill-opacity="1"></path><path clip-path="url(#clip680)" d="M2113.06 274.98 L2125.54 274.98 L2125.54 278.777 L2113.06 278.777 L2113.06 274.98 Z" fill="#000000" fill-rule="evenodd" fill-opacity="1"></path><path clip-path="url(#clip680)" d="M2132.5 255.305 L2139.47 255.305 L2148.29 278.823 L2157.16 255.305 L2164.12 255.305 L2164.12 289.865 L2159.56 289.865 L2159.56 259.518 L2150.65 283.221 L2145.95 283.221 L2137.04 259.518 L2137.04 289.865 L2132.5 289.865 L2132.5 255.305 Z" fill="#000000" fill-rule="evenodd" fill-opacity="1"></path><path clip-path="url(#clip680)" d="M2194.12 256.439 L2194.12 260.999 Q2191.46 259.726 2189.1 259.101 Q2186.74 258.476 2184.54 258.476 Q2180.72 258.476 2178.64 259.957 Q2176.58 261.439 2176.58 264.17 Q2176.58 266.462 2177.94 267.643 Q2179.33 268.8 2183.17 269.518 L2186 270.096 Q2191.23 271.092 2193.71 273.615 Q2196.21 276.115 2196.21 280.328 Q2196.21 285.351 2192.83 287.943 Q2189.47 290.536 2182.97 290.536 Q2180.51 290.536 2177.73 289.98 Q2174.98 289.425 2172.02 288.337 L2172.02 283.522 Q2174.86 285.119 2177.6 285.929 Q2180.33 286.74 2182.97 286.74 Q2186.97 286.74 2189.15 285.166 Q2191.32 283.592 2191.32 280.675 Q2191.32 278.129 2189.75 276.693 Q2188.2 275.258 2184.63 274.541 L2181.79 273.985 Q2176.55 272.943 2174.22 270.721 Q2171.88 268.499 2171.88 264.541 Q2171.88 259.957 2175.1 257.319 Q2178.34 254.68 2184.01 254.68 Q2186.44 254.68 2188.96 255.119 Q2191.48 255.559 2194.12 256.439 Z" fill="#000000" fill-rule="evenodd" fill-opacity="1"></path><path clip-path="url(#clip680)" d="M2203.5 255.305 L2210.47 255.305 L2219.29 278.823 L2228.15 255.305 L2235.12 255.305 L2235.12 289.865 L2230.56 289.865 L2230.56 259.518 L2221.65 283.221 L2216.95 283.221 L2208.04 259.518 L2208.04 289.865 L2203.5 289.865 L2203.5 255.305 Z" fill="#000000" fill-rule="evenodd" fill-opacity="1"></path></svg>