<svg xmlns="http://www.w3.org/2000/svg" xmlns:xlink="http://www.w3.org/1999/xlink" width="600" height="400" viewBox="0 0 2400 1600">
<defs>
  <clipPath id="clip270">
    <rect x="0" y="0" width="2400" height="1600"></rect>
  </clipPath>
</defs>
<path clip-path="url(#clip270)" d="
M0 1600 L2400 1600 L2400 0 L0 0  Z
  " fill="#ffffff" fill-rule="evenodd" fill-opacity="1"></path>
<defs>
  <clipPath id="clip271">
    <rect x="480" y="0" width="1681" height="1600"></rect>
  </clipPath>
</defs>
<path clip-path="url(#clip270)" d="
M262.551 1486.45 L2352.76 1486.45 L2352.76 123.472 L262.551 123.472  Z
  " fill="#ffffff" fill-rule="evenodd" fill-opacity="1"></path>
<defs>
  <clipPath id="clip272">
    <rect x="262" y="123" width="2091" height="1364"></rect>
  </clipPath>
</defs>
<polyline clip-path="url(#clip272)" style="stroke:#000000; stroke-linecap:butt; stroke-linejoin:round; stroke-width:2; stroke-opacity:0.1; fill:none" points="
  309.46,1486.45 309.46,123.472 
  "></polyline>
<polyline clip-path="url(#clip272)" style="stroke:#000000; stroke-linecap:butt; stroke-linejoin:round; stroke-width:2; stroke-opacity:0.1; fill:none" points="
  689.141,1486.45 689.141,123.472 
  "></polyline>
<polyline clip-path="url(#clip272)" style="stroke:#000000; stroke-linecap:butt; stroke-linejoin:round; stroke-width:2; stroke-opacity:0.1; fill:none" points="
  1056.57,1486.45 1056.57,123.472 
  "></polyline>
<polyline clip-path="url(#clip272)" style="stroke:#000000; stroke-linecap:butt; stroke-linejoin:round; stroke-width:2; stroke-opacity:0.1; fill:none" points="
  1436.26,1486.45 1436.26,123.472 
  "></polyline>
<polyline clip-path="url(#clip272)" style="stroke:#000000; stroke-linecap:butt; stroke-linejoin:round; stroke-width:2; stroke-opacity:0.1; fill:none" points="
  1815.94,1486.45 1815.94,123.472 
  "></polyline>
<polyline clip-path="url(#clip272)" style="stroke:#000000; stroke-linecap:butt; stroke-linejoin:round; stroke-width:2; stroke-opacity:0.1; fill:none" points="
  2183.37,1486.45 2183.37,123.472 
  "></polyline>
<polyline clip-path="url(#clip270)" style="stroke:#000000; stroke-linecap:butt; stroke-linejoin:round; stroke-width:4; stroke-opacity:1; fill:none" points="
  262.551,1486.45 2352.76,1486.45 
  "></polyline>
<polyline clip-path="url(#clip270)" style="stroke:#000000; stroke-linecap:butt; stroke-linejoin:round; stroke-width:4; stroke-opacity:1; fill:none" points="
  309.46,1486.45 309.46,1467.55 
  "></polyline>
<polyline clip-path="url(#clip270)" style="stroke:#000000; stroke-linecap:butt; stroke-linejoin:round; stroke-width:4; stroke-opacity:1; fill:none" points="
  689.141,1486.45 689.141,1467.55 
  "></polyline>
<polyline clip-path="url(#clip270)" style="stroke:#000000; stroke-linecap:butt; stroke-linejoin:round; stroke-width:4; stroke-opacity:1; fill:none" points="
  1056.57,1486.45 1056.57,1467.55 
  "></polyline>
<polyline clip-path="url(#clip270)" style="stroke:#000000; stroke-linecap:butt; stroke-linejoin:round; stroke-width:4; stroke-opacity:1; fill:none" points="
  1436.26,1486.45 1436.26,1467.55 
  "></polyline>
<polyline clip-path="url(#clip270)" style="stroke:#000000; stroke-linecap:butt; stroke-linejoin:round; stroke-width:4; stroke-opacity:1; fill:none" points="
  1815.94,1486.45 1815.94,1467.55 
  "></polyline>
<polyline clip-path="url(#clip270)" style="stroke:#000000; stroke-linecap:butt; stroke-linejoin:round; stroke-width:4; stroke-opacity:1; fill:none" points="
  2183.37,1486.45 2183.37,1467.55 
  "></polyline>
<path clip-path="url(#clip270)" d="M181.255 1544.91 L197.574 1544.91 L197.574 1548.85 L175.63 1548.85 L175.63 1544.91 Q178.292 1542.16 182.875 1537.53 Q187.482 1532.88 188.662 1531.53 Q190.908 1529.01 191.787 1527.27 Q192.69 1525.51 192.69 1523.82 Q192.69 1521.07 190.746 1519.33 Q188.824 1517.6 185.722 1517.6 Q183.523 1517.6 181.07 1518.36 Q178.639 1519.13 175.861 1520.68 L175.861 1515.95 Q178.685 1514.82 181.139 1514.24 Q183.593 1513.66 185.63 1513.66 Q191 1513.66 194.195 1516.35 Q197.389 1519.03 197.389 1523.52 Q197.389 1525.65 196.579 1527.57 Q195.792 1529.47 193.685 1532.07 Q193.107 1532.74 190.005 1535.95 Q186.903 1539.15 181.255 1544.91 Z" fill="#000000" fill-rule="evenodd" fill-opacity="1"></path><path clip-path="url(#clip270)" d="M217.389 1517.37 Q213.778 1517.37 211.949 1520.93 Q210.144 1524.47 210.144 1531.6 Q210.144 1538.71 211.949 1542.27 Q213.778 1545.82 217.389 1545.82 Q221.023 1545.82 222.829 1542.27 Q224.657 1538.71 224.657 1531.6 Q224.657 1524.47 222.829 1520.93 Q221.023 1517.37 217.389 1517.37 M217.389 1513.66 Q223.199 1513.66 226.255 1518.27 Q229.333 1522.85 229.333 1531.6 Q229.333 1540.33 226.255 1544.94 Q223.199 1549.52 217.389 1549.52 Q211.579 1549.52 208.5 1544.94 Q205.445 1540.33 205.445 1531.6 Q205.445 1522.85 208.5 1518.27 Q211.579 1513.66 217.389 1513.66 Z" fill="#000000" fill-rule="evenodd" fill-opacity="1"></path><path clip-path="url(#clip270)" d="M241.579 1544.91 L257.898 1544.91 L257.898 1548.85 L235.954 1548.85 L235.954 1544.91 Q238.616 1542.16 243.199 1537.53 Q247.805 1532.88 248.986 1531.53 Q251.231 1529.01 252.111 1527.27 Q253.014 1525.51 253.014 1523.82 Q253.014 1521.07 251.069 1519.33 Q249.148 1517.6 246.046 1517.6 Q243.847 1517.6 241.393 1518.36 Q238.963 1519.13 236.185 1520.68 L236.185 1515.95 Q239.009 1514.82 241.463 1514.24 Q243.917 1513.66 245.954 1513.66 Q251.324 1513.66 254.518 1516.35 Q257.713 1519.03 257.713 1523.52 Q257.713 1525.65 256.903 1527.57 Q256.116 1529.47 254.009 1532.07 Q253.43 1532.74 250.329 1535.95 Q247.227 1539.15 241.579 1544.91 Z" fill="#000000" fill-rule="evenodd" fill-opacity="1"></path><path clip-path="url(#clip270)" d="M271.74 1544.91 L288.06 1544.91 L288.06 1548.85 L266.116 1548.85 L266.116 1544.91 Q268.778 1542.16 273.361 1537.53 Q277.967 1532.88 279.148 1531.53 Q281.393 1529.01 282.273 1527.27 Q283.176 1525.51 283.176 1523.82 Q283.176 1521.07 281.231 1519.33 Q279.31 1517.6 276.208 1517.6 Q274.009 1517.6 271.555 1518.36 Q269.125 1519.13 266.347 1520.68 L266.347 1515.95 Q269.171 1514.82 271.625 1514.24 Q274.078 1513.66 276.115 1513.66 Q281.486 1513.66 284.68 1516.35 Q287.875 1519.03 287.875 1523.52 Q287.875 1525.65 287.064 1527.57 Q286.277 1529.47 284.171 1532.07 Q283.592 1532.74 280.49 1535.95 Q277.389 1539.15 271.74 1544.91 Z" fill="#000000" fill-rule="evenodd" fill-opacity="1"></path><path clip-path="url(#clip270)" d="M295.12 1533.96 L307.597 1533.96 L307.597 1537.76 L295.12 1537.76 L295.12 1533.96 Z" fill="#000000" fill-rule="evenodd" fill-opacity="1"></path><path clip-path="url(#clip270)" d="M324.981 1517.37 Q321.37 1517.37 319.541 1520.93 Q317.736 1524.47 317.736 1531.6 Q317.736 1538.71 319.541 1542.27 Q321.37 1545.82 324.981 1545.82 Q328.615 1545.82 330.421 1542.27 Q332.249 1538.71 332.249 1531.6 Q332.249 1524.47 330.421 1520.93 Q328.615 1517.37 324.981 1517.37 M324.981 1513.66 Q330.791 1513.66 333.847 1518.27 Q336.925 1522.85 336.925 1531.6 Q336.925 1540.33 333.847 1544.94 Q330.791 1549.52 324.981 1549.52 Q319.171 1549.52 316.092 1544.94 Q313.037 1540.33 313.037 1531.6 Q313.037 1522.85 316.092 1518.27 Q319.171 1513.66 324.981 1513.66 Z" fill="#000000" fill-rule="evenodd" fill-opacity="1"></path><path clip-path="url(#clip270)" d="M345.189 1514.29 L363.546 1514.29 L363.546 1518.22 L349.472 1518.22 L349.472 1526.7 Q350.49 1526.35 351.509 1526.19 Q352.527 1526 353.546 1526 Q359.333 1526 362.712 1529.17 Q366.092 1532.34 366.092 1537.76 Q366.092 1543.34 362.62 1546.44 Q359.147 1549.52 352.828 1549.52 Q350.652 1549.52 348.384 1549.15 Q346.138 1548.78 343.731 1548.04 L343.731 1543.34 Q345.814 1544.47 348.036 1545.03 Q350.259 1545.58 352.735 1545.58 Q356.74 1545.58 359.078 1543.48 Q361.416 1541.37 361.416 1537.76 Q361.416 1534.15 359.078 1532.04 Q356.74 1529.94 352.735 1529.94 Q350.86 1529.94 348.985 1530.35 Q347.134 1530.77 345.189 1531.65 L345.189 1514.29 Z" fill="#000000" fill-rule="evenodd" fill-opacity="1"></path><path clip-path="url(#clip270)" d="M372.55 1533.96 L385.027 1533.96 L385.027 1537.76 L372.55 1537.76 L372.55 1533.96 Z" fill="#000000" fill-rule="evenodd" fill-opacity="1"></path><path clip-path="url(#clip270)" d="M402.411 1517.37 Q398.8 1517.37 396.971 1520.93 Q395.166 1524.47 395.166 1531.6 Q395.166 1538.71 396.971 1542.27 Q398.8 1545.82 402.411 1545.82 Q406.045 1545.82 407.851 1542.27 Q409.68 1538.71 409.68 1531.6 Q409.68 1524.47 407.851 1520.93 Q406.045 1517.37 402.411 1517.37 M402.411 1513.66 Q408.221 1513.66 411.277 1518.27 Q414.355 1522.85 414.355 1531.6 Q414.355 1540.33 411.277 1544.94 Q408.221 1549.52 402.411 1549.52 Q396.601 1549.52 393.522 1544.94 Q390.467 1540.33 390.467 1531.6 Q390.467 1522.85 393.522 1518.27 Q396.601 1513.66 402.411 1513.66 Z" fill="#000000" fill-rule="evenodd" fill-opacity="1"></path><path clip-path="url(#clip270)" d="M423.383 1544.91 L431.022 1544.91 L431.022 1518.55 L422.712 1520.21 L422.712 1515.95 L430.976 1514.29 L435.652 1514.29 L435.652 1544.91 L443.29 1544.91 L443.29 1548.85 L423.383 1548.85 L423.383 1544.91 Z" fill="#000000" fill-rule="evenodd" fill-opacity="1"></path><path clip-path="url(#clip270)" d="M560.936 1544.91 L577.255 1544.91 L577.255 1548.85 L555.311 1548.85 L555.311 1544.91 Q557.973 1542.16 562.556 1537.53 Q567.163 1532.88 568.343 1531.53 Q570.588 1529.01 571.468 1527.27 Q572.371 1525.51 572.371 1523.82 Q572.371 1521.07 570.426 1519.33 Q568.505 1517.6 565.403 1517.6 Q563.204 1517.6 560.751 1518.36 Q558.32 1519.13 555.542 1520.68 L555.542 1515.95 Q558.366 1514.82 560.82 1514.24 Q563.274 1513.66 565.311 1513.66 Q570.681 1513.66 573.876 1516.35 Q577.07 1519.03 577.07 1523.52 Q577.07 1525.65 576.26 1527.57 Q575.473 1529.47 573.366 1532.07 Q572.788 1532.74 569.686 1535.95 Q566.584 1539.15 560.936 1544.91 Z" fill="#000000" fill-rule="evenodd" fill-opacity="1"></path><path clip-path="url(#clip270)" d="M597.07 1517.37 Q593.459 1517.37 591.63 1520.93 Q589.825 1524.47 589.825 1531.6 Q589.825 1538.71 591.63 1542.27 Q593.459 1545.82 597.07 1545.82 Q600.704 1545.82 602.51 1542.27 Q604.338 1538.71 604.338 1531.6 Q604.338 1524.47 602.51 1520.93 Q600.704 1517.37 597.07 1517.37 M597.07 1513.66 Q602.88 1513.66 605.936 1518.27 Q609.014 1522.85 609.014 1531.6 Q609.014 1540.33 605.936 1544.94 Q602.88 1549.52 597.07 1549.52 Q591.26 1549.52 588.181 1544.94 Q585.125 1540.33 585.125 1531.6 Q585.125 1522.85 588.181 1518.27 Q591.26 1513.66 597.07 1513.66 Z" fill="#000000" fill-rule="evenodd" fill-opacity="1"></path><path clip-path="url(#clip270)" d="M621.26 1544.91 L637.579 1544.91 L637.579 1548.85 L615.635 1548.85 L615.635 1544.91 Q618.297 1542.16 622.88 1537.53 Q627.486 1532.88 628.667 1531.53 Q630.912 1529.01 631.792 1527.27 Q632.695 1525.51 632.695 1523.82 Q632.695 1521.07 630.75 1519.33 Q628.829 1517.6 625.727 1517.6 Q623.528 1517.6 621.074 1518.36 Q618.644 1519.13 615.866 1520.68 L615.866 1515.95 Q618.69 1514.82 621.144 1514.24 Q623.597 1513.66 625.634 1513.66 Q631.005 1513.66 634.199 1516.35 Q637.394 1519.03 637.394 1523.52 Q637.394 1525.65 636.584 1527.57 Q635.796 1529.47 633.69 1532.07 Q633.111 1532.74 630.009 1535.95 Q626.908 1539.15 621.26 1544.91 Z" fill="#000000" fill-rule="evenodd" fill-opacity="1"></path><path clip-path="url(#clip270)" d="M651.421 1544.91 L667.741 1544.91 L667.741 1548.85 L645.796 1548.85 L645.796 1544.91 Q648.458 1542.16 653.042 1537.53 Q657.648 1532.88 658.829 1531.53 Q661.074 1529.01 661.954 1527.27 Q662.857 1525.51 662.857 1523.82 Q662.857 1521.07 660.912 1519.33 Q658.991 1517.6 655.889 1517.6 Q653.69 1517.6 651.236 1518.36 Q648.806 1519.13 646.028 1520.68 L646.028 1515.95 Q648.852 1514.82 651.306 1514.24 Q653.759 1513.66 655.796 1513.66 Q661.167 1513.66 664.361 1516.35 Q667.556 1519.03 667.556 1523.52 Q667.556 1525.65 666.745 1527.57 Q665.958 1529.47 663.852 1532.07 Q663.273 1532.74 660.171 1535.95 Q657.07 1539.15 651.421 1544.91 Z" fill="#000000" fill-rule="evenodd" fill-opacity="1"></path><path clip-path="url(#clip270)" d="M674.801 1533.96 L687.278 1533.96 L687.278 1537.76 L674.801 1537.76 L674.801 1533.96 Z" fill="#000000" fill-rule="evenodd" fill-opacity="1"></path><path clip-path="url(#clip270)" d="M704.662 1517.37 Q701.051 1517.37 699.222 1520.93 Q697.417 1524.47 697.417 1531.6 Q697.417 1538.71 699.222 1542.27 Q701.051 1545.82 704.662 1545.82 Q708.296 1545.82 710.102 1542.27 Q711.93 1538.71 711.93 1531.6 Q711.93 1524.47 710.102 1520.93 Q708.296 1517.37 704.662 1517.37 M704.662 1513.66 Q710.472 1513.66 713.528 1518.27 Q716.606 1522.85 716.606 1531.6 Q716.606 1540.33 713.528 1544.94 Q710.472 1549.52 704.662 1549.52 Q698.852 1549.52 695.773 1544.94 Q692.717 1540.33 692.717 1531.6 Q692.717 1522.85 695.773 1518.27 Q698.852 1513.66 704.662 1513.66 Z" fill="#000000" fill-rule="evenodd" fill-opacity="1"></path><path clip-path="url(#clip270)" d="M735.402 1529.7 Q732.254 1529.7 730.402 1531.86 Q728.574 1534.01 728.574 1537.76 Q728.574 1541.49 730.402 1543.66 Q732.254 1545.82 735.402 1545.82 Q738.551 1545.82 740.379 1543.66 Q742.231 1541.49 742.231 1537.76 Q742.231 1534.01 740.379 1531.86 Q738.551 1529.7 735.402 1529.7 M744.685 1515.05 L744.685 1519.31 Q742.926 1518.48 741.12 1518.04 Q739.338 1517.6 737.578 1517.6 Q732.949 1517.6 730.495 1520.72 Q728.065 1523.85 727.717 1530.17 Q729.083 1528.15 731.143 1527.09 Q733.203 1526 735.68 1526 Q740.889 1526 743.898 1529.17 Q746.93 1532.32 746.93 1537.76 Q746.93 1543.08 743.782 1546.3 Q740.634 1549.52 735.402 1549.52 Q729.407 1549.52 726.236 1544.94 Q723.065 1540.33 723.065 1531.6 Q723.065 1523.41 726.953 1518.55 Q730.842 1513.66 737.393 1513.66 Q739.152 1513.66 740.935 1514.01 Q742.74 1514.36 744.685 1515.05 Z" fill="#000000" fill-rule="evenodd" fill-opacity="1"></path><path clip-path="url(#clip270)" d="M752.231 1533.96 L764.708 1533.96 L764.708 1537.76 L752.231 1537.76 L752.231 1533.96 Z" fill="#000000" fill-rule="evenodd" fill-opacity="1"></path><path clip-path="url(#clip270)" d="M782.092 1517.37 Q778.481 1517.37 776.652 1520.93 Q774.847 1524.47 774.847 1531.6 Q774.847 1538.71 776.652 1542.27 Q778.481 1545.82 782.092 1545.82 Q785.726 1545.82 787.532 1542.27 Q789.36 1538.71 789.36 1531.6 Q789.36 1524.47 787.532 1520.93 Q785.726 1517.37 782.092 1517.37 M782.092 1513.66 Q787.902 1513.66 790.958 1518.27 Q794.036 1522.85 794.036 1531.6 Q794.036 1540.33 790.958 1544.94 Q787.902 1549.52 782.092 1549.52 Q776.282 1549.52 773.203 1544.94 Q770.148 1540.33 770.148 1531.6 Q770.148 1522.85 773.203 1518.27 Q776.282 1513.66 782.092 1513.66 Z" fill="#000000" fill-rule="evenodd" fill-opacity="1"></path><path clip-path="url(#clip270)" d="M803.064 1544.91 L810.703 1544.91 L810.703 1518.55 L802.393 1520.21 L802.393 1515.95 L810.657 1514.29 L815.333 1514.29 L815.333 1544.91 L822.971 1544.91 L822.971 1548.85 L803.064 1548.85 L803.064 1544.91 Z" fill="#000000" fill-rule="evenodd" fill-opacity="1"></path><path clip-path="url(#clip270)" d="M928.369 1544.91 L944.688 1544.91 L944.688 1548.85 L922.744 1548.85 L922.744 1544.91 Q925.406 1542.16 929.989 1537.53 Q934.596 1532.88 935.776 1531.53 Q938.022 1529.01 938.901 1527.27 Q939.804 1525.51 939.804 1523.82 Q939.804 1521.07 937.86 1519.33 Q935.938 1517.6 932.836 1517.6 Q930.637 1517.6 928.184 1518.36 Q925.753 1519.13 922.975 1520.68 L922.975 1515.95 Q925.799 1514.82 928.253 1514.24 Q930.707 1513.66 932.744 1513.66 Q938.114 1513.66 941.309 1516.35 Q944.503 1519.03 944.503 1523.52 Q944.503 1525.65 943.693 1527.57 Q942.906 1529.47 940.799 1532.07 Q940.221 1532.74 937.119 1535.95 Q934.017 1539.15 928.369 1544.91 Z" fill="#000000" fill-rule="evenodd" fill-opacity="1"></path><path clip-path="url(#clip270)" d="M964.503 1517.37 Q960.892 1517.37 959.063 1520.93 Q957.258 1524.47 957.258 1531.6 Q957.258 1538.71 959.063 1542.27 Q960.892 1545.82 964.503 1545.82 Q968.137 1545.82 969.943 1542.27 Q971.771 1538.71 971.771 1531.6 Q971.771 1524.47 969.943 1520.93 Q968.137 1517.37 964.503 1517.37 M964.503 1513.66 Q970.313 1513.66 973.369 1518.27 Q976.447 1522.85 976.447 1531.6 Q976.447 1540.33 973.369 1544.94 Q970.313 1549.52 964.503 1549.52 Q958.693 1549.52 955.614 1544.94 Q952.559 1540.33 952.559 1531.6 Q952.559 1522.85 955.614 1518.27 Q958.693 1513.66 964.503 1513.66 Z" fill="#000000" fill-rule="evenodd" fill-opacity="1"></path><path clip-path="url(#clip270)" d="M988.693 1544.91 L1005.01 1544.91 L1005.01 1548.85 L983.068 1548.85 L983.068 1544.91 Q985.73 1542.16 990.313 1537.53 Q994.919 1532.88 996.1 1531.53 Q998.345 1529.01 999.225 1527.27 Q1000.13 1525.51 1000.13 1523.82 Q1000.13 1521.07 998.183 1519.33 Q996.262 1517.6 993.16 1517.6 Q990.961 1517.6 988.507 1518.36 Q986.077 1519.13 983.299 1520.68 L983.299 1515.95 Q986.123 1514.82 988.577 1514.24 Q991.031 1513.66 993.068 1513.66 Q998.438 1513.66 1001.63 1516.35 Q1004.83 1519.03 1004.83 1523.52 Q1004.83 1525.65 1004.02 1527.57 Q1003.23 1529.47 1001.12 1532.07 Q1000.54 1532.74 997.443 1535.95 Q994.341 1539.15 988.693 1544.91 Z" fill="#000000" fill-rule="evenodd" fill-opacity="1"></path><path clip-path="url(#clip270)" d="M1018.85 1544.91 L1035.17 1544.91 L1035.17 1548.85 L1013.23 1548.85 L1013.23 1544.91 Q1015.89 1542.16 1020.47 1537.53 Q1025.08 1532.88 1026.26 1531.53 Q1028.51 1529.01 1029.39 1527.27 Q1030.29 1525.51 1030.29 1523.82 Q1030.29 1521.07 1028.35 1519.33 Q1026.42 1517.6 1023.32 1517.6 Q1021.12 1517.6 1018.67 1518.36 Q1016.24 1519.13 1013.46 1520.68 L1013.46 1515.95 Q1016.29 1514.82 1018.74 1514.24 Q1021.19 1513.66 1023.23 1513.66 Q1028.6 1513.66 1031.79 1516.35 Q1034.99 1519.03 1034.99 1523.52 Q1034.99 1525.65 1034.18 1527.57 Q1033.39 1529.47 1031.29 1532.07 Q1030.71 1532.74 1027.6 1535.95 Q1024.5 1539.15 1018.85 1544.91 Z" fill="#000000" fill-rule="evenodd" fill-opacity="1"></path><path clip-path="url(#clip270)" d="M1042.23 1533.96 L1054.71 1533.96 L1054.71 1537.76 L1042.23 1537.76 L1042.23 1533.96 Z" fill="#000000" fill-rule="evenodd" fill-opacity="1"></path><path clip-path="url(#clip270)" d="M1072.09 1517.37 Q1068.48 1517.37 1066.66 1520.93 Q1064.85 1524.47 1064.85 1531.6 Q1064.85 1538.71 1066.66 1542.27 Q1068.48 1545.82 1072.09 1545.82 Q1075.73 1545.82 1077.53 1542.27 Q1079.36 1538.71 1079.36 1531.6 Q1079.36 1524.47 1077.53 1520.93 Q1075.73 1517.37 1072.09 1517.37 M1072.09 1513.66 Q1077.91 1513.66 1080.96 1518.27 Q1084.04 1522.85 1084.04 1531.6 Q1084.04 1540.33 1080.96 1544.94 Q1077.91 1549.52 1072.09 1549.52 Q1066.28 1549.52 1063.21 1544.94 Q1060.15 1540.33 1060.15 1531.6 Q1060.15 1522.85 1063.21 1518.27 Q1066.28 1513.66 1072.09 1513.66 Z" fill="#000000" fill-rule="evenodd" fill-opacity="1"></path><path clip-path="url(#clip270)" d="M1091.08 1514.29 L1113.3 1514.29 L1113.3 1516.28 L1100.75 1548.85 L1095.87 1548.85 L1107.67 1518.22 L1091.08 1518.22 L1091.08 1514.29 Z" fill="#000000" fill-rule="evenodd" fill-opacity="1"></path><path clip-path="url(#clip270)" d="M1119.66 1533.96 L1132.14 1533.96 L1132.14 1537.76 L1119.66 1537.76 L1119.66 1533.96 Z" fill="#000000" fill-rule="evenodd" fill-opacity="1"></path><path clip-path="url(#clip270)" d="M1149.53 1517.37 Q1145.91 1517.37 1144.09 1520.93 Q1142.28 1524.47 1142.28 1531.6 Q1142.28 1538.71 1144.09 1542.27 Q1145.91 1545.82 1149.53 1545.82 Q1153.16 1545.82 1154.96 1542.27 Q1156.79 1538.71 1156.79 1531.6 Q1156.79 1524.47 1154.96 1520.93 Q1153.16 1517.37 1149.53 1517.37 M1149.53 1513.66 Q1155.34 1513.66 1158.39 1518.27 Q1161.47 1522.85 1161.47 1531.6 Q1161.47 1540.33 1158.39 1544.94 Q1155.34 1549.52 1149.53 1549.52 Q1143.71 1549.52 1140.64 1544.94 Q1137.58 1540.33 1137.58 1531.6 Q1137.58 1522.85 1140.64 1518.27 Q1143.71 1513.66 1149.53 1513.66 Z" fill="#000000" fill-rule="evenodd" fill-opacity="1"></path><path clip-path="url(#clip270)" d="M1170.5 1544.91 L1178.14 1544.91 L1178.14 1518.55 L1169.83 1520.21 L1169.83 1515.95 L1178.09 1514.29 L1182.77 1514.29 L1182.77 1544.91 L1190.4 1544.91 L1190.4 1548.85 L1170.5 1548.85 L1170.5 1544.91 Z" fill="#000000" fill-rule="evenodd" fill-opacity="1"></path><path clip-path="url(#clip270)" d="M1308.05 1544.91 L1324.37 1544.91 L1324.37 1548.85 L1302.42 1548.85 L1302.42 1544.91 Q1305.09 1542.16 1309.67 1537.53 Q1314.28 1532.88 1315.46 1531.53 Q1317.7 1529.01 1318.58 1527.27 Q1319.48 1525.51 1319.48 1523.82 Q1319.48 1521.07 1317.54 1519.33 Q1315.62 1517.6 1312.52 1517.6 Q1310.32 1517.6 1307.86 1518.36 Q1305.43 1519.13 1302.66 1520.68 L1302.66 1515.95 Q1305.48 1514.82 1307.93 1514.24 Q1310.39 1513.66 1312.42 1513.66 Q1317.8 1513.66 1320.99 1516.35 Q1324.18 1519.03 1324.18 1523.52 Q1324.18 1525.65 1323.37 1527.57 Q1322.59 1529.47 1320.48 1532.07 Q1319.9 1532.74 1316.8 1535.95 Q1313.7 1539.15 1308.05 1544.91 Z" fill="#000000" fill-rule="evenodd" fill-opacity="1"></path><path clip-path="url(#clip270)" d="M1344.18 1517.37 Q1340.57 1517.37 1338.74 1520.93 Q1336.94 1524.47 1336.94 1531.6 Q1336.94 1538.71 1338.74 1542.27 Q1340.57 1545.82 1344.18 1545.82 Q1347.82 1545.82 1349.62 1542.27 Q1351.45 1538.71 1351.45 1531.6 Q1351.45 1524.47 1349.62 1520.93 Q1347.82 1517.37 1344.18 1517.37 M1344.18 1513.66 Q1349.99 1513.66 1353.05 1518.27 Q1356.13 1522.85 1356.13 1531.6 Q1356.13 1540.33 1353.05 1544.94 Q1349.99 1549.52 1344.18 1549.52 Q1338.37 1549.52 1335.3 1544.94 Q1332.24 1540.33 1332.24 1531.6 Q1332.24 1522.85 1335.3 1518.27 Q1338.37 1513.66 1344.18 1513.66 Z" fill="#000000" fill-rule="evenodd" fill-opacity="1"></path><path clip-path="url(#clip270)" d="M1368.37 1544.91 L1384.69 1544.91 L1384.69 1548.85 L1362.75 1548.85 L1362.75 1544.91 Q1365.41 1542.16 1369.99 1537.53 Q1374.6 1532.88 1375.78 1531.53 Q1378.03 1529.01 1378.91 1527.27 Q1379.81 1525.51 1379.81 1523.82 Q1379.81 1521.07 1377.86 1519.33 Q1375.94 1517.6 1372.84 1517.6 Q1370.64 1517.6 1368.19 1518.36 Q1365.76 1519.13 1362.98 1520.68 L1362.98 1515.95 Q1365.8 1514.82 1368.26 1514.24 Q1370.71 1513.66 1372.75 1513.66 Q1378.12 1513.66 1381.31 1516.35 Q1384.51 1519.03 1384.51 1523.52 Q1384.51 1525.65 1383.7 1527.57 Q1382.91 1529.47 1380.8 1532.07 Q1380.23 1532.74 1377.12 1535.95 Q1374.02 1539.15 1368.37 1544.91 Z" fill="#000000" fill-rule="evenodd" fill-opacity="1"></path><path clip-path="url(#clip270)" d="M1398.54 1544.91 L1414.85 1544.91 L1414.85 1548.85 L1392.91 1548.85 L1392.91 1544.91 Q1395.57 1542.16 1400.16 1537.53 Q1404.76 1532.88 1405.94 1531.53 Q1408.19 1529.01 1409.07 1527.27 Q1409.97 1525.51 1409.97 1523.82 Q1409.97 1521.07 1408.03 1519.33 Q1406.1 1517.6 1403 1517.6 Q1400.8 1517.6 1398.35 1518.36 Q1395.92 1519.13 1393.14 1520.68 L1393.14 1515.95 Q1395.97 1514.82 1398.42 1514.24 Q1400.87 1513.66 1402.91 1513.66 Q1408.28 1513.66 1411.48 1516.35 Q1414.67 1519.03 1414.67 1523.52 Q1414.67 1525.65 1413.86 1527.57 Q1413.07 1529.47 1410.97 1532.07 Q1410.39 1532.74 1407.29 1535.95 Q1404.18 1539.15 1398.54 1544.91 Z" fill="#000000" fill-rule="evenodd" fill-opacity="1"></path><path clip-path="url(#clip270)" d="M1421.91 1533.96 L1434.39 1533.96 L1434.39 1537.76 L1421.91 1537.76 L1421.91 1533.96 Z" fill="#000000" fill-rule="evenodd" fill-opacity="1"></path><path clip-path="url(#clip270)" d="M1451.78 1517.37 Q1448.16 1517.37 1446.34 1520.93 Q1444.53 1524.47 1444.53 1531.6 Q1444.53 1538.71 1446.34 1542.27 Q1448.16 1545.82 1451.78 1545.82 Q1455.41 1545.82 1457.22 1542.27 Q1459.04 1538.71 1459.04 1531.6 Q1459.04 1524.47 1457.22 1520.93 Q1455.41 1517.37 1451.78 1517.37 M1451.78 1513.66 Q1457.59 1513.66 1460.64 1518.27 Q1463.72 1522.85 1463.72 1531.6 Q1463.72 1540.33 1460.64 1544.94 Q1457.59 1549.52 1451.78 1549.52 Q1445.97 1549.52 1442.89 1544.94 Q1439.83 1540.33 1439.83 1531.6 Q1439.83 1522.85 1442.89 1518.27 Q1445.97 1513.66 1451.78 1513.66 Z" fill="#000000" fill-rule="evenodd" fill-opacity="1"></path><path clip-path="url(#clip270)" d="M1481.94 1532.44 Q1478.6 1532.44 1476.68 1534.22 Q1474.79 1536 1474.79 1539.13 Q1474.79 1542.25 1476.68 1544.03 Q1478.6 1545.82 1481.94 1545.82 Q1485.27 1545.82 1487.19 1544.03 Q1489.11 1542.23 1489.11 1539.13 Q1489.11 1536 1487.19 1534.22 Q1485.29 1532.44 1481.94 1532.44 M1477.26 1530.45 Q1474.25 1529.7 1472.56 1527.64 Q1470.9 1525.58 1470.9 1522.62 Q1470.9 1518.48 1473.84 1516.07 Q1476.8 1513.66 1481.94 1513.66 Q1487.1 1513.66 1490.04 1516.07 Q1492.98 1518.48 1492.98 1522.62 Q1492.98 1525.58 1491.29 1527.64 Q1489.62 1529.7 1486.64 1530.45 Q1490.02 1531.23 1491.89 1533.52 Q1493.79 1535.82 1493.79 1539.13 Q1493.79 1544.15 1490.71 1546.83 Q1487.66 1549.52 1481.94 1549.52 Q1476.22 1549.52 1473.14 1546.83 Q1470.09 1544.15 1470.09 1539.13 Q1470.09 1535.82 1471.98 1533.52 Q1473.88 1531.23 1477.26 1530.45 M1475.55 1523.06 Q1475.55 1525.75 1477.22 1527.25 Q1478.91 1528.76 1481.94 1528.76 Q1484.95 1528.76 1486.64 1527.25 Q1488.35 1525.75 1488.35 1523.06 Q1488.35 1520.38 1486.64 1518.87 Q1484.95 1517.37 1481.94 1517.37 Q1478.91 1517.37 1477.22 1518.87 Q1475.55 1520.38 1475.55 1523.06 Z" fill="#000000" fill-rule="evenodd" fill-opacity="1"></path><path clip-path="url(#clip270)" d="M1499.35 1533.96 L1511.82 1533.96 L1511.82 1537.76 L1499.35 1537.76 L1499.35 1533.96 Z" fill="#000000" fill-rule="evenodd" fill-opacity="1"></path><path clip-path="url(#clip270)" d="M1529.21 1517.37 Q1525.59 1517.37 1523.77 1520.93 Q1521.96 1524.47 1521.96 1531.6 Q1521.96 1538.71 1523.77 1542.27 Q1525.59 1545.82 1529.21 1545.82 Q1532.84 1545.82 1534.65 1542.27 Q1536.47 1538.71 1536.47 1531.6 Q1536.47 1524.47 1534.65 1520.93 Q1532.84 1517.37 1529.21 1517.37 M1529.21 1513.66 Q1535.02 1513.66 1538.07 1518.27 Q1541.15 1522.85 1541.15 1531.6 Q1541.15 1540.33 1538.07 1544.94 Q1535.02 1549.52 1529.21 1549.52 Q1523.4 1549.52 1520.32 1544.94 Q1517.26 1540.33 1517.26 1531.6 Q1517.26 1522.85 1520.32 1518.27 Q1523.4 1513.66 1529.21 1513.66 Z" fill="#000000" fill-rule="evenodd" fill-opacity="1"></path><path clip-path="url(#clip270)" d="M1550.18 1544.91 L1557.82 1544.91 L1557.82 1518.55 L1549.51 1520.21 L1549.51 1515.95 L1557.77 1514.29 L1562.45 1514.29 L1562.45 1544.91 L1570.09 1544.91 L1570.09 1548.85 L1550.18 1548.85 L1550.18 1544.91 Z" fill="#000000" fill-rule="evenodd" fill-opacity="1"></path><path clip-path="url(#clip270)" d="M1687.73 1544.91 L1704.05 1544.91 L1704.05 1548.85 L1682.11 1548.85 L1682.11 1544.91 Q1684.77 1542.16 1689.35 1537.53 Q1693.96 1532.88 1695.14 1531.53 Q1697.38 1529.01 1698.26 1527.27 Q1699.17 1525.51 1699.17 1523.82 Q1699.17 1521.07 1697.22 1519.33 Q1695.3 1517.6 1692.2 1517.6 Q1690 1517.6 1687.55 1518.36 Q1685.12 1519.13 1682.34 1520.68 L1682.34 1515.95 Q1685.16 1514.82 1687.62 1514.24 Q1690.07 1513.66 1692.11 1513.66 Q1697.48 1513.66 1700.67 1516.35 Q1703.86 1519.03 1703.86 1523.52 Q1703.86 1525.65 1703.05 1527.57 Q1702.27 1529.47 1700.16 1532.07 Q1699.58 1532.74 1696.48 1535.95 Q1693.38 1539.15 1687.73 1544.91 Z" fill="#000000" fill-rule="evenodd" fill-opacity="1"></path><path clip-path="url(#clip270)" d="M1723.86 1517.37 Q1720.25 1517.37 1718.43 1520.93 Q1716.62 1524.47 1716.62 1531.6 Q1716.62 1538.71 1718.43 1542.27 Q1720.25 1545.82 1723.86 1545.82 Q1727.5 1545.82 1729.3 1542.27 Q1731.13 1538.71 1731.13 1531.6 Q1731.13 1524.47 1729.3 1520.93 Q1727.5 1517.37 1723.86 1517.37 M1723.86 1513.66 Q1729.67 1513.66 1732.73 1518.27 Q1735.81 1522.85 1735.81 1531.6 Q1735.81 1540.33 1732.73 1544.94 Q1729.67 1549.52 1723.86 1549.52 Q1718.05 1549.52 1714.98 1544.94 Q1711.92 1540.33 1711.92 1531.6 Q1711.92 1522.85 1714.98 1518.27 Q1718.05 1513.66 1723.86 1513.66 Z" fill="#000000" fill-rule="evenodd" fill-opacity="1"></path><path clip-path="url(#clip270)" d="M1748.05 1544.91 L1764.37 1544.91 L1764.37 1548.85 L1742.43 1548.85 L1742.43 1544.91 Q1745.09 1542.16 1749.67 1537.53 Q1754.28 1532.88 1755.46 1531.53 Q1757.71 1529.01 1758.59 1527.27 Q1759.49 1525.51 1759.49 1523.82 Q1759.49 1521.07 1757.55 1519.33 Q1755.62 1517.6 1752.52 1517.6 Q1750.32 1517.6 1747.87 1518.36 Q1745.44 1519.13 1742.66 1520.68 L1742.66 1515.95 Q1745.49 1514.82 1747.94 1514.24 Q1750.39 1513.66 1752.43 1513.66 Q1757.8 1513.66 1760.99 1516.35 Q1764.19 1519.03 1764.19 1523.52 Q1764.19 1525.65 1763.38 1527.57 Q1762.59 1529.47 1760.48 1532.07 Q1759.91 1532.74 1756.8 1535.95 Q1753.7 1539.15 1748.05 1544.91 Z" fill="#000000" fill-rule="evenodd" fill-opacity="1"></path><path clip-path="url(#clip270)" d="M1778.22 1544.91 L1794.54 1544.91 L1794.54 1548.85 L1772.59 1548.85 L1772.59 1544.91 Q1775.25 1542.16 1779.84 1537.53 Q1784.44 1532.88 1785.62 1531.53 Q1787.87 1529.01 1788.75 1527.27 Q1789.65 1525.51 1789.65 1523.82 Q1789.65 1521.07 1787.71 1519.33 Q1785.79 1517.6 1782.68 1517.6 Q1780.48 1517.6 1778.03 1518.36 Q1775.6 1519.13 1772.82 1520.68 L1772.82 1515.95 Q1775.65 1514.82 1778.1 1514.24 Q1780.55 1513.66 1782.59 1513.66 Q1787.96 1513.66 1791.16 1516.35 Q1794.35 1519.03 1794.35 1523.52 Q1794.35 1525.65 1793.54 1527.57 Q1792.75 1529.47 1790.65 1532.07 Q1790.07 1532.74 1786.97 1535.95 Q1783.86 1539.15 1778.22 1544.91 Z" fill="#000000" fill-rule="evenodd" fill-opacity="1"></path><path clip-path="url(#clip270)" d="M1801.6 1533.96 L1814.07 1533.96 L1814.07 1537.76 L1801.6 1537.76 L1801.6 1533.96 Z" fill="#000000" fill-rule="evenodd" fill-opacity="1"></path><path clip-path="url(#clip270)" d="M1831.46 1517.37 Q1827.85 1517.37 1826.02 1520.93 Q1824.21 1524.47 1824.21 1531.6 Q1824.21 1538.71 1826.02 1542.27 Q1827.85 1545.82 1831.46 1545.82 Q1835.09 1545.82 1836.9 1542.27 Q1838.73 1538.71 1838.73 1531.6 Q1838.73 1524.47 1836.9 1520.93 Q1835.09 1517.37 1831.46 1517.37 M1831.46 1513.66 Q1837.27 1513.66 1840.32 1518.27 Q1843.4 1522.85 1843.4 1531.6 Q1843.4 1540.33 1840.32 1544.94 Q1837.27 1549.52 1831.46 1549.52 Q1825.65 1549.52 1822.57 1544.94 Q1819.51 1540.33 1819.51 1531.6 Q1819.51 1522.85 1822.57 1518.27 Q1825.65 1513.66 1831.46 1513.66 Z" fill="#000000" fill-rule="evenodd" fill-opacity="1"></path><path clip-path="url(#clip270)" d="M1851.76 1548.13 L1851.76 1543.87 Q1853.52 1544.7 1855.32 1545.14 Q1857.13 1545.58 1858.86 1545.58 Q1863.49 1545.58 1865.92 1542.48 Q1868.38 1539.36 1868.73 1533.01 Q1867.38 1535.01 1865.32 1536.07 Q1863.26 1537.13 1860.76 1537.13 Q1855.58 1537.13 1852.54 1534.01 Q1849.54 1530.86 1849.54 1525.42 Q1849.54 1520.1 1852.68 1516.88 Q1855.83 1513.66 1861.06 1513.66 Q1867.06 1513.66 1870.21 1518.27 Q1873.38 1522.85 1873.38 1531.6 Q1873.38 1539.77 1869.49 1544.66 Q1865.62 1549.52 1859.07 1549.52 Q1857.31 1549.52 1855.51 1549.17 Q1853.7 1548.82 1851.76 1548.13 M1861.06 1533.48 Q1864.21 1533.48 1866.04 1531.32 Q1867.89 1529.17 1867.89 1525.42 Q1867.89 1521.7 1866.04 1519.54 Q1864.21 1517.37 1861.06 1517.37 Q1857.92 1517.37 1856.06 1519.54 Q1854.23 1521.7 1854.23 1525.42 Q1854.23 1529.17 1856.06 1531.32 Q1857.92 1533.48 1861.06 1533.48 Z" fill="#000000" fill-rule="evenodd" fill-opacity="1"></path><path clip-path="url(#clip270)" d="M1879.03 1533.96 L1891.5 1533.96 L1891.5 1537.76 L1879.03 1537.76 L1879.03 1533.96 Z" fill="#000000" fill-rule="evenodd" fill-opacity="1"></path><path clip-path="url(#clip270)" d="M1908.89 1517.37 Q1905.28 1517.37 1903.45 1520.93 Q1901.64 1524.47 1901.64 1531.6 Q1901.64 1538.71 1903.45 1542.27 Q1905.28 1545.82 1908.89 1545.82 Q1912.52 1545.82 1914.33 1542.27 Q1916.16 1538.71 1916.16 1531.6 Q1916.16 1524.47 1914.33 1520.93 Q1912.52 1517.37 1908.89 1517.37 M1908.89 1513.66 Q1914.7 1513.66 1917.75 1518.27 Q1920.83 1522.85 1920.83 1531.6 Q1920.83 1540.33 1917.75 1544.94 Q1914.7 1549.52 1908.89 1549.52 Q1903.08 1549.52 1900 1544.94 Q1896.94 1540.33 1896.94 1531.6 Q1896.94 1522.85 1900 1518.27 Q1903.08 1513.66 1908.89 1513.66 Z" fill="#000000" fill-rule="evenodd" fill-opacity="1"></path><path clip-path="url(#clip270)" d="M1929.86 1544.91 L1937.5 1544.91 L1937.5 1518.55 L1929.19 1520.21 L1929.19 1515.95 L1937.45 1514.29 L1942.13 1514.29 L1942.13 1544.91 L1949.77 1544.91 L1949.77 1548.85 L1929.86 1548.85 L1929.86 1544.91 Z" fill="#000000" fill-rule="evenodd" fill-opacity="1"></path><path clip-path="url(#clip270)" d="M2055.16 1544.91 L2071.48 1544.91 L2071.48 1548.85 L2049.54 1548.85 L2049.54 1544.91 Q2052.2 1542.16 2056.78 1537.53 Q2061.39 1532.88 2062.57 1531.53 Q2064.82 1529.01 2065.7 1527.27 Q2066.6 1525.51 2066.6 1523.82 Q2066.6 1521.07 2064.65 1519.33 Q2062.73 1517.6 2059.63 1517.6 Q2057.43 1517.6 2054.98 1518.36 Q2052.55 1519.13 2049.77 1520.68 L2049.77 1515.95 Q2052.59 1514.82 2055.05 1514.24 Q2057.5 1513.66 2059.54 1513.66 Q2064.91 1513.66 2068.1 1516.35 Q2071.3 1519.03 2071.3 1523.52 Q2071.3 1525.65 2070.49 1527.57 Q2069.7 1529.47 2067.59 1532.07 Q2067.02 1532.74 2063.91 1535.95 Q2060.81 1539.15 2055.16 1544.91 Z" fill="#000000" fill-rule="evenodd" fill-opacity="1"></path><path clip-path="url(#clip270)" d="M2091.3 1517.37 Q2087.69 1517.37 2085.86 1520.93 Q2084.05 1524.47 2084.05 1531.6 Q2084.05 1538.71 2085.86 1542.27 Q2087.69 1545.82 2091.3 1545.82 Q2094.93 1545.82 2096.74 1542.27 Q2098.57 1538.71 2098.57 1531.6 Q2098.57 1524.47 2096.74 1520.93 Q2094.93 1517.37 2091.3 1517.37 M2091.3 1513.66 Q2097.11 1513.66 2100.16 1518.27 Q2103.24 1522.85 2103.24 1531.6 Q2103.24 1540.33 2100.16 1544.94 Q2097.11 1549.52 2091.3 1549.52 Q2085.49 1549.52 2082.41 1544.94 Q2079.35 1540.33 2079.35 1531.6 Q2079.35 1522.85 2082.41 1518.27 Q2085.49 1513.66 2091.3 1513.66 Z" fill="#000000" fill-rule="evenodd" fill-opacity="1"></path><path clip-path="url(#clip270)" d="M2115.49 1544.91 L2131.81 1544.91 L2131.81 1548.85 L2109.86 1548.85 L2109.86 1544.91 Q2112.52 1542.16 2117.11 1537.53 Q2121.71 1532.88 2122.9 1531.53 Q2125.14 1529.01 2126.02 1527.27 Q2126.92 1525.51 2126.92 1523.82 Q2126.92 1521.07 2124.98 1519.33 Q2123.06 1517.6 2119.96 1517.6 Q2117.76 1517.6 2115.3 1518.36 Q2112.87 1519.13 2110.09 1520.68 L2110.09 1515.95 Q2112.92 1514.82 2115.37 1514.24 Q2117.83 1513.66 2119.86 1513.66 Q2125.23 1513.66 2128.43 1516.35 Q2131.62 1519.03 2131.62 1523.52 Q2131.62 1525.65 2130.81 1527.57 Q2130.02 1529.47 2127.92 1532.07 Q2127.34 1532.74 2124.24 1535.95 Q2121.14 1539.15 2115.49 1544.91 Z" fill="#000000" fill-rule="evenodd" fill-opacity="1"></path><path clip-path="url(#clip270)" d="M2145.65 1544.91 L2161.97 1544.91 L2161.97 1548.85 L2140.02 1548.85 L2140.02 1544.91 Q2142.69 1542.16 2147.27 1537.53 Q2151.88 1532.88 2153.06 1531.53 Q2155.3 1529.01 2156.18 1527.27 Q2157.08 1525.51 2157.08 1523.82 Q2157.08 1521.07 2155.14 1519.33 Q2153.22 1517.6 2150.12 1517.6 Q2147.92 1517.6 2145.46 1518.36 Q2143.03 1519.13 2140.26 1520.68 L2140.26 1515.95 Q2143.08 1514.82 2145.53 1514.24 Q2147.99 1513.66 2150.02 1513.66 Q2155.39 1513.66 2158.59 1516.35 Q2161.78 1519.03 2161.78 1523.52 Q2161.78 1525.65 2160.97 1527.57 Q2160.19 1529.47 2158.08 1532.07 Q2157.5 1532.74 2154.4 1535.95 Q2151.3 1539.15 2145.65 1544.91 Z" fill="#000000" fill-rule="evenodd" fill-opacity="1"></path><path clip-path="url(#clip270)" d="M2169.03 1533.96 L2181.51 1533.96 L2181.51 1537.76 L2169.03 1537.76 L2169.03 1533.96 Z" fill="#000000" fill-rule="evenodd" fill-opacity="1"></path><path clip-path="url(#clip270)" d="M2189.7 1544.91 L2197.34 1544.91 L2197.34 1518.55 L2189.03 1520.21 L2189.03 1515.95 L2197.29 1514.29 L2201.97 1514.29 L2201.97 1544.91 L2209.61 1544.91 L2209.61 1548.85 L2189.7 1548.85 L2189.7 1544.91 Z" fill="#000000" fill-rule="evenodd" fill-opacity="1"></path><path clip-path="url(#clip270)" d="M2229.05 1517.37 Q2225.44 1517.37 2223.61 1520.93 Q2221.81 1524.47 2221.81 1531.6 Q2221.81 1538.71 2223.61 1542.27 Q2225.44 1545.82 2229.05 1545.82 Q2232.69 1545.82 2234.49 1542.27 Q2236.32 1538.71 2236.32 1531.6 Q2236.32 1524.47 2234.49 1520.93 Q2232.69 1517.37 2229.05 1517.37 M2229.05 1513.66 Q2234.86 1513.66 2237.92 1518.27 Q2241 1522.85 2241 1531.6 Q2241 1540.33 2237.92 1544.94 Q2234.86 1549.52 2229.05 1549.52 Q2223.24 1549.52 2220.16 1544.94 Q2217.11 1540.33 2217.11 1531.6 Q2217.11 1522.85 2220.16 1518.27 Q2223.24 1513.66 2229.05 1513.66 Z" fill="#000000" fill-rule="evenodd" fill-opacity="1"></path><path clip-path="url(#clip270)" d="M2246.46 1533.96 L2258.94 1533.96 L2258.94 1537.76 L2246.46 1537.76 L2246.46 1533.96 Z" fill="#000000" fill-rule="evenodd" fill-opacity="1"></path><path clip-path="url(#clip270)" d="M2276.32 1517.37 Q2272.71 1517.37 2270.88 1520.93 Q2269.07 1524.47 2269.07 1531.6 Q2269.07 1538.71 2270.88 1542.27 Q2272.71 1545.82 2276.32 1545.82 Q2279.95 1545.82 2281.76 1542.27 Q2283.59 1538.71 2283.59 1531.6 Q2283.59 1524.47 2281.76 1520.93 Q2279.95 1517.37 2276.32 1517.37 M2276.32 1513.66 Q2282.13 1513.66 2285.19 1518.27 Q2288.26 1522.85 2288.26 1531.6 Q2288.26 1540.33 2285.19 1544.94 Q2282.13 1549.52 2276.32 1549.52 Q2270.51 1549.52 2267.43 1544.94 Q2264.38 1540.33 2264.38 1531.6 Q2264.38 1522.85 2267.43 1518.27 Q2270.51 1513.66 2276.32 1513.66 Z" fill="#000000" fill-rule="evenodd" fill-opacity="1"></path><path clip-path="url(#clip270)" d="M2297.29 1544.91 L2304.93 1544.91 L2304.93 1518.55 L2296.62 1520.21 L2296.62 1515.95 L2304.88 1514.29 L2309.56 1514.29 L2309.56 1544.91 L2317.2 1544.91 L2317.2 1548.85 L2297.29 1548.85 L2297.29 1544.91 Z" fill="#000000" fill-rule="evenodd" fill-opacity="1"></path><polyline clip-path="url(#clip272)" style="stroke:#000000; stroke-linecap:butt; stroke-linejoin:round; stroke-width:2; stroke-opacity:0.1; fill:none" points="
  262.551,1447.87 2352.76,1447.87 
  "></polyline>
<polyline clip-path="url(#clip272)" style="stroke:#000000; stroke-linecap:butt; stroke-linejoin:round; stroke-width:2; stroke-opacity:0.1; fill:none" points="
  262.551,1092.49 2352.76,1092.49 
  "></polyline>
<polyline clip-path="url(#clip272)" style="stroke:#000000; stroke-linecap:butt; stroke-linejoin:round; stroke-width:2; stroke-opacity:0.1; fill:none" points="
  262.551,737.111 2352.76,737.111 
  "></polyline>
<polyline clip-path="url(#clip272)" style="stroke:#000000; stroke-linecap:butt; stroke-linejoin:round; stroke-width:2; stroke-opacity:0.1; fill:none" points="
  262.551,381.73 2352.76,381.73 
  "></polyline>
<polyline clip-path="url(#clip270)" style="stroke:#000000; stroke-linecap:butt; stroke-linejoin:round; stroke-width:4; stroke-opacity:1; fill:none" points="
  262.551,1486.45 262.551,123.472 
  "></polyline>
<polyline clip-path="url(#clip270)" style="stroke:#000000; stroke-linecap:butt; stroke-linejoin:round; stroke-width:4; stroke-opacity:1; fill:none" points="
  262.551,1447.87 281.449,1447.87 
  "></polyline>
<polyline clip-path="url(#clip270)" style="stroke:#000000; stroke-linecap:butt; stroke-linejoin:round; stroke-width:4; stroke-opacity:1; fill:none" points="
  262.551,1092.49 281.449,1092.49 
  "></polyline>
<polyline clip-path="url(#clip270)" style="stroke:#000000; stroke-linecap:butt; stroke-linejoin:round; stroke-width:4; stroke-opacity:1; fill:none" points="
  262.551,737.111 281.449,737.111 
  "></polyline>
<polyline clip-path="url(#clip270)" style="stroke:#000000; stroke-linecap:butt; stroke-linejoin:round; stroke-width:4; stroke-opacity:1; fill:none" points="
  262.551,381.73 281.449,381.73 
  "></polyline>
<path clip-path="url(#clip270)" d="M206.644 1461.22 L214.283 1461.22 L214.283 1434.85 L205.973 1436.52 L205.973 1432.26 L214.236 1430.59 L218.912 1430.59 L218.912 1461.22 L226.551 1461.22 L226.551 1465.15 L206.644 1465.15 L206.644 1461.22 Z" fill="#000000" fill-rule="evenodd" fill-opacity="1"></path><path clip-path="url(#clip270)" d="M175.255 1105.84 L182.894 1105.84 L182.894 1079.47 L174.584 1081.14 L174.584 1076.88 L182.848 1075.21 L187.524 1075.21 L187.524 1105.84 L195.163 1105.84 L195.163 1109.77 L175.255 1109.77 L175.255 1105.84 Z" fill="#000000" fill-rule="evenodd" fill-opacity="1"></path><path clip-path="url(#clip270)" d="M214.607 1078.29 Q210.996 1078.29 209.167 1081.86 Q207.362 1085.4 207.362 1092.53 Q207.362 1099.63 209.167 1103.2 Q210.996 1106.74 214.607 1106.74 Q218.241 1106.74 220.047 1103.2 Q221.875 1099.63 221.875 1092.53 Q221.875 1085.4 220.047 1081.86 Q218.241 1078.29 214.607 1078.29 M214.607 1074.59 Q220.417 1074.59 223.473 1079.19 Q226.551 1083.78 226.551 1092.53 Q226.551 1101.25 223.473 1105.86 Q220.417 1110.44 214.607 1110.44 Q208.797 1110.44 205.718 1105.86 Q202.662 1101.25 202.662 1092.53 Q202.662 1083.78 205.718 1079.19 Q208.797 1074.59 214.607 1074.59 Z" fill="#000000" fill-rule="evenodd" fill-opacity="1"></path><path clip-path="url(#clip270)" d="M145.093 750.456 L152.732 750.456 L152.732 724.09 L144.422 725.757 L144.422 721.497 L152.686 719.831 L157.362 719.831 L157.362 750.456 L165.001 750.456 L165.001 754.391 L145.093 754.391 L145.093 750.456 Z" fill="#000000" fill-rule="evenodd" fill-opacity="1"></path><path clip-path="url(#clip270)" d="M184.445 722.909 Q180.834 722.909 179.005 726.474 Q177.2 730.016 177.2 737.145 Q177.2 744.252 179.005 747.817 Q180.834 751.358 184.445 751.358 Q188.079 751.358 189.885 747.817 Q191.713 744.252 191.713 737.145 Q191.713 730.016 189.885 726.474 Q188.079 722.909 184.445 722.909 M184.445 719.206 Q190.255 719.206 193.311 723.812 Q196.389 728.395 196.389 737.145 Q196.389 745.872 193.311 750.479 Q190.255 755.062 184.445 755.062 Q178.635 755.062 175.556 750.479 Q172.501 745.872 172.501 737.145 Q172.501 728.395 175.556 723.812 Q178.635 719.206 184.445 719.206 Z" fill="#000000" fill-rule="evenodd" fill-opacity="1"></path><path clip-path="url(#clip270)" d="M214.607 722.909 Q210.996 722.909 209.167 726.474 Q207.362 730.016 207.362 737.145 Q207.362 744.252 209.167 747.817 Q210.996 751.358 214.607 751.358 Q218.241 751.358 220.047 747.817 Q221.875 744.252 221.875 737.145 Q221.875 730.016 220.047 726.474 Q218.241 722.909 214.607 722.909 M214.607 719.206 Q220.417 719.206 223.473 723.812 Q226.551 728.395 226.551 737.145 Q226.551 745.872 223.473 750.479 Q220.417 755.062 214.607 755.062 Q208.797 755.062 205.718 750.479 Q202.662 745.872 202.662 737.145 Q202.662 728.395 205.718 723.812 Q208.797 719.206 214.607 719.206 Z" fill="#000000" fill-rule="evenodd" fill-opacity="1"></path><path clip-path="url(#clip270)" d="M114.931 395.074 L122.57 395.074 L122.57 368.709 L114.26 370.375 L114.26 366.116 L122.524 364.45 L127.2 364.45 L127.2 395.074 L134.839 395.074 L134.839 399.01 L114.931 399.01 L114.931 395.074 Z" fill="#000000" fill-rule="evenodd" fill-opacity="1"></path><path clip-path="url(#clip270)" d="M154.283 367.528 Q150.672 367.528 148.843 371.093 Q147.038 374.635 147.038 381.764 Q147.038 388.871 148.843 392.436 Q150.672 395.977 154.283 395.977 Q157.917 395.977 159.723 392.436 Q161.552 388.871 161.552 381.764 Q161.552 374.635 159.723 371.093 Q157.917 367.528 154.283 367.528 M154.283 363.825 Q160.093 363.825 163.149 368.431 Q166.227 373.014 166.227 381.764 Q166.227 390.491 163.149 395.098 Q160.093 399.681 154.283 399.681 Q148.473 399.681 145.394 395.098 Q142.339 390.491 142.339 381.764 Q142.339 373.014 145.394 368.431 Q148.473 363.825 154.283 363.825 Z" fill="#000000" fill-rule="evenodd" fill-opacity="1"></path><path clip-path="url(#clip270)" d="M184.445 367.528 Q180.834 367.528 179.005 371.093 Q177.2 374.635 177.2 381.764 Q177.2 388.871 179.005 392.436 Q180.834 395.977 184.445 395.977 Q188.079 395.977 189.885 392.436 Q191.713 388.871 191.713 381.764 Q191.713 374.635 189.885 371.093 Q188.079 367.528 184.445 367.528 M184.445 363.825 Q190.255 363.825 193.311 368.431 Q196.389 373.014 196.389 381.764 Q196.389 390.491 193.311 395.098 Q190.255 399.681 184.445 399.681 Q178.635 399.681 175.556 395.098 Q172.501 390.491 172.501 381.764 Q172.501 373.014 175.556 368.431 Q178.635 363.825 184.445 363.825 Z" fill="#000000" fill-rule="evenodd" fill-opacity="1"></path><path clip-path="url(#clip270)" d="M214.607 367.528 Q210.996 367.528 209.167 371.093 Q207.362 374.635 207.362 381.764 Q207.362 388.871 209.167 392.436 Q210.996 395.977 214.607 395.977 Q218.241 395.977 220.047 392.436 Q221.875 388.871 221.875 381.764 Q221.875 374.635 220.047 371.093 Q218.241 367.528 214.607 367.528 M214.607 363.825 Q220.417 363.825 223.473 368.431 Q226.551 373.014 226.551 381.764 Q226.551 390.491 223.473 395.098 Q220.417 399.681 214.607 399.681 Q208.797 399.681 205.718 395.098 Q202.662 390.491 202.662 381.764 Q202.662 373.014 205.718 368.431 Q208.797 363.825 214.607 363.825 Z" fill="#000000" fill-rule="evenodd" fill-opacity="1"></path><path clip-path="url(#clip270)" d="M16.4842 1022.19 L16.4842 1015.7 L56.6518 1005.7 L16.4842 995.74 L16.4842 988.515 L56.6518 978.521 L16.4842 968.559 L16.4842 962.034 L64.0042 973.97 L64.0042 982.054 L22.7544 992.08 L64.0042 1002.2 L64.0042 1010.29 L16.4842 1022.19 Z" fill="#000000" fill-rule="evenodd" fill-opacity="1"></path><path clip-path="url(#clip270)" d="M44.7161 927.086 L47.5806 927.086 L47.5806 954.013 Q53.6281 953.631 56.8109 950.385 Q59.9619 947.106 59.9619 941.282 Q59.9619 937.908 59.1344 934.757 Q58.3069 931.574 56.6518 928.455 L62.1899 928.455 Q63.5267 931.606 64.227 934.916 Q64.9272 938.226 64.9272 941.632 Q64.9272 950.162 59.9619 955.159 Q54.9967 960.124 46.5303 960.124 Q37.7774 960.124 32.6531 955.413 Q27.4968 950.671 27.4968 942.65 Q27.4968 935.457 32.1438 931.287 Q36.7589 927.086 44.7161 927.086 M42.9973 932.943 Q38.1912 933.006 35.3266 935.648 Q32.4621 938.258 32.4621 942.587 Q32.4621 947.488 35.2312 950.448 Q38.0002 953.376 43.0292 953.822 L42.9973 932.943 Z" fill="#000000" fill-rule="evenodd" fill-opacity="1"></path><path clip-path="url(#clip270)" d="M44.7161 886.982 L47.5806 886.982 L47.5806 913.909 Q53.6281 913.527 56.8109 910.281 Q59.9619 907.002 59.9619 901.178 Q59.9619 897.804 59.1344 894.653 Q58.3069 891.47 56.6518 888.351 L62.1899 888.351 Q63.5267 891.502 64.227 894.812 Q64.9272 898.122 64.9272 901.528 Q64.9272 910.058 59.9619 915.055 Q54.9967 920.02 46.5303 920.02 Q37.7774 920.02 32.6531 915.31 Q27.4968 910.567 27.4968 902.546 Q27.4968 895.353 32.1438 891.183 Q36.7589 886.982 44.7161 886.982 M42.9973 892.839 Q38.1912 892.902 35.3266 895.544 Q32.4621 898.154 32.4621 902.483 Q32.4621 907.384 35.2312 910.344 Q38.0002 913.272 43.0292 913.718 L42.9973 892.839 Z" fill="#000000" fill-rule="evenodd" fill-opacity="1"></path><path clip-path="url(#clip270)" d="M14.479 877.593 L14.479 871.704 L43.7294 871.704 L28.3562 854.231 L28.3562 846.751 L45.0344 865.657 L64.0042 845.955 L64.0042 853.594 L46.5939 871.704 L64.0042 871.704 L64.0042 877.593 L14.479 877.593 Z" fill="#000000" fill-rule="evenodd" fill-opacity="1"></path><path clip-path="url(#clip270)" d="M14.479 839.621 L14.479 833.765 L64.0042 833.765 L64.0042 839.621 L14.479 839.621 Z" fill="#000000" fill-rule="evenodd" fill-opacity="1"></path><path clip-path="url(#clip270)" d="M67.3143 806.679 Q73.68 809.161 75.6216 811.517 Q77.5631 813.872 77.5631 817.819 L77.5631 822.498 L72.6615 822.498 L72.6615 819.06 Q72.6615 816.641 71.5157 815.304 Q70.3699 813.967 66.1048 812.344 L63.4312 811.294 L28.3562 825.712 L28.3562 819.506 L56.238 808.366 L28.3562 797.226 L28.3562 791.019 L67.3143 806.679 Z" fill="#000000" fill-rule="evenodd" fill-opacity="1"></path><path clip-path="url(#clip270)" d="M29.7248 736.56 L35.1993 736.56 Q33.8307 739.043 33.1623 741.558 Q32.4621 744.04 32.4621 746.586 Q32.4621 752.284 36.0905 755.435 Q39.6872 758.586 46.212 758.586 Q52.7369 758.586 56.3653 755.435 Q59.9619 752.284 59.9619 746.586 Q59.9619 744.04 59.2935 741.558 Q58.5933 739.043 57.2247 736.56 L62.6355 736.56 Q63.7814 739.011 64.3543 741.653 Q64.9272 744.263 64.9272 747.223 Q64.9272 755.276 59.8664 760.018 Q54.8057 764.761 46.212 764.761 Q37.491 764.761 32.4939 759.986 Q27.4968 755.18 27.4968 746.841 Q27.4968 744.136 28.0697 741.558 Q28.6108 738.979 29.7248 736.56 Z" fill="#000000" fill-rule="evenodd" fill-opacity="1"></path><path clip-path="url(#clip270)" d="M46.0847 710.175 Q46.0847 717.272 47.7079 720.01 Q49.3312 722.747 53.2461 722.747 Q56.3653 722.747 58.2114 720.71 Q60.0256 718.641 60.0256 715.108 Q60.0256 710.238 56.5881 707.31 Q53.1188 704.35 47.3897 704.35 L46.0847 704.35 L46.0847 710.175 M43.6657 698.494 L64.0042 698.494 L64.0042 704.35 L58.5933 704.35 Q61.8398 706.355 63.3994 709.347 Q64.9272 712.339 64.9272 716.668 Q64.9272 722.142 61.8716 725.389 Q58.7843 728.603 53.6281 728.603 Q47.6125 728.603 44.5569 724.593 Q41.5014 720.551 41.5014 712.562 L41.5014 704.35 L40.9285 704.35 Q36.8862 704.35 34.6901 707.024 Q32.4621 709.665 32.4621 714.471 Q32.4621 717.527 33.1941 720.423 Q33.9262 723.32 35.3903 725.993 L29.9795 725.993 Q28.7381 722.779 28.1334 719.755 Q27.4968 716.731 27.4968 713.867 Q27.4968 706.132 31.5072 702.313 Q35.5176 698.494 43.6657 698.494 Z" fill="#000000" fill-rule="evenodd" fill-opacity="1"></path><path clip-path="url(#clip270)" d="M29.4065 663.705 L34.9447 663.705 Q33.6716 666.188 33.035 668.861 Q32.3984 671.535 32.3984 674.399 Q32.3984 678.76 33.7352 680.956 Q35.072 683.12 37.7456 683.12 Q39.7826 683.12 40.9603 681.561 Q42.1061 680.001 43.1565 675.291 L43.6021 673.285 Q44.9389 667.047 47.3897 664.437 Q49.8086 661.795 54.1691 661.795 Q59.1344 661.795 62.0308 665.742 Q64.9272 669.657 64.9272 676.532 Q64.9272 679.396 64.3543 682.516 Q63.8132 685.603 62.6992 689.04 L56.6518 689.04 Q58.3387 685.794 59.198 682.643 Q60.0256 679.492 60.0256 676.405 Q60.0256 672.267 58.6251 670.039 Q57.1929 667.811 54.6147 667.811 Q52.2276 667.811 50.9545 669.434 Q49.6813 671.026 48.5037 676.468 L48.0262 678.505 Q46.8804 683.948 44.5251 686.367 Q42.138 688.786 38.0002 688.786 Q32.9713 688.786 30.2341 685.221 Q27.4968 681.656 27.4968 675.1 Q27.4968 671.853 27.9743 668.989 Q28.4517 666.124 29.4065 663.705 Z" fill="#000000" fill-rule="evenodd" fill-opacity="1"></path><path clip-path="url(#clip270)" d="M44.7161 621.978 L47.5806 621.978 L47.5806 648.905 Q53.6281 648.523 56.8109 645.276 Q59.9619 641.998 59.9619 636.173 Q59.9619 632.799 59.1344 629.648 Q58.3069 626.466 56.6518 623.346 L62.1899 623.346 Q63.5267 626.497 64.227 629.808 Q64.9272 633.118 64.9272 636.523 Q64.9272 645.053 59.9619 650.051 Q54.9967 655.016 46.5303 655.016 Q37.7774 655.016 32.6531 650.305 Q27.4968 645.563 27.4968 637.542 Q27.4968 630.349 32.1438 626.179 Q36.7589 621.978 44.7161 621.978 M42.9973 627.834 Q38.1912 627.898 35.3266 630.54 Q32.4621 633.15 32.4621 637.478 Q32.4621 642.38 35.2312 645.34 Q38.0002 648.268 43.0292 648.714 L42.9973 627.834 Z" fill="#000000" fill-rule="evenodd" fill-opacity="1"></path><path clip-path="url(#clip270)" d="M29.4065 589.64 L34.9447 589.64 Q33.6716 592.123 33.035 594.796 Q32.3984 597.47 32.3984 600.334 Q32.3984 604.695 33.7352 606.891 Q35.072 609.055 37.7456 609.055 Q39.7826 609.055 40.9603 607.496 Q42.1061 605.936 43.1565 601.226 L43.6021 599.22 Q44.9389 592.982 47.3897 590.372 Q49.8086 587.73 54.1691 587.73 Q59.1344 587.73 62.0308 591.677 Q64.9272 595.592 64.9272 602.467 Q64.9272 605.331 64.3543 608.451 Q63.8132 611.538 62.6992 614.975 L56.6518 614.975 Q58.3387 611.729 59.198 608.578 Q60.0256 605.427 60.0256 602.34 Q60.0256 598.202 58.6251 595.974 Q57.1929 593.746 54.6147 593.746 Q52.2276 593.746 50.9545 595.369 Q49.6813 596.961 48.5037 602.403 L48.0262 604.44 Q46.8804 609.883 44.5251 612.302 Q42.138 614.721 38.0002 614.721 Q32.9713 614.721 30.2341 611.156 Q27.4968 607.591 27.4968 601.035 Q27.4968 597.788 27.9743 594.924 Q28.4517 592.059 29.4065 589.64 Z" fill="#000000" fill-rule="evenodd" fill-opacity="1"></path><path clip-path="url(#clip270)" d="M977.302 12.096 L989.496 12.096 L1004.93 53.2532 L1020.44 12.096 L1032.64 12.096 L1032.64 72.576 L1024.66 72.576 L1024.66 19.4686 L1009.06 60.9499 L1000.84 60.9499 L985.242 19.4686 L985.242 72.576 L977.302 72.576 L977.302 12.096 Z" fill="#000000" fill-rule="evenodd" fill-opacity="1"></path><path clip-path="url(#clip270)" d="M1057.06 18.8205 L1057.06 41.5461 L1067.35 41.5461 Q1073.07 41.5461 1076.18 38.5889 Q1079.3 35.6318 1079.3 30.163 Q1079.3 24.7348 1076.18 21.7777 Q1073.07 18.8205 1067.35 18.8205 L1057.06 18.8205 M1048.88 12.096 L1067.35 12.096 Q1077.52 12.096 1082.71 16.714 Q1087.93 21.2916 1087.93 30.163 Q1087.93 39.1155 1082.71 43.6931 Q1077.52 48.2706 1067.35 48.2706 L1057.06 48.2706 L1057.06 72.576 L1048.88 72.576 L1048.88 12.096 Z" fill="#000000" fill-rule="evenodd" fill-opacity="1"></path><path clip-path="url(#clip270)" d="M1114.51 72.576 L1091.42 12.096 L1099.96 12.096 L1119.12 63.0159 L1138.33 12.096 L1146.83 12.096 L1123.78 72.576 L1114.51 72.576 Z" fill="#000000" fill-rule="evenodd" fill-opacity="1"></path><path clip-path="url(#clip270)" d="M1152.75 12.096 L1161.54 12.096 L1176.57 34.5785 L1191.68 12.096 L1200.47 12.096 L1181.02 41.141 L1201.76 72.576 L1192.97 72.576 L1175.96 46.8528 L1158.82 72.576 L1149.99 72.576 L1171.58 40.2903 L1152.75 12.096 Z" fill="#000000" fill-rule="evenodd" fill-opacity="1"></path><path clip-path="url(#clip270)" d="M1245.76 65.7705 L1245.76 89.8329 L1238.26 89.8329 L1238.26 27.2059 L1245.76 27.2059 L1245.76 34.0924 Q1248.11 30.0415 1251.67 28.0971 Q1255.28 26.1121 1260.26 26.1121 Q1268.52 26.1121 1273.67 32.6746 Q1278.85 39.2371 1278.85 49.9314 Q1278.85 60.6258 1273.67 67.1883 Q1268.52 73.7508 1260.26 73.7508 Q1255.28 73.7508 1251.67 71.8063 Q1248.11 69.8214 1245.76 65.7705 M1271.11 49.9314 Q1271.11 41.7081 1267.71 37.0496 Q1264.35 32.3505 1258.44 32.3505 Q1252.52 32.3505 1249.12 37.0496 Q1245.76 41.7081 1245.76 49.9314 Q1245.76 58.1548 1249.12 62.8538 Q1252.52 67.5124 1258.44 67.5124 Q1264.35 67.5124 1267.71 62.8538 Q1271.11 58.1548 1271.11 49.9314 Z" fill="#000000" fill-rule="evenodd" fill-opacity="1"></path><path clip-path="url(#clip270)" d="M1317.5 34.1734 Q1316.24 33.4443 1314.74 33.1202 Q1313.28 32.7556 1311.5 32.7556 Q1305.18 32.7556 1301.78 36.8875 Q1298.42 40.9789 1298.42 48.6757 L1298.42 72.576 L1290.92 72.576 L1290.92 27.2059 L1298.42 27.2059 L1298.42 34.2544 Q1300.77 30.1225 1304.53 28.1376 Q1308.3 26.1121 1313.69 26.1121 Q1314.46 26.1121 1315.39 26.2337 Q1316.32 26.3147 1317.46 26.5172 L1317.5 34.1734 Z" fill="#000000" fill-rule="evenodd" fill-opacity="1"></path><path clip-path="url(#clip270)" d="M1341.07 32.4315 Q1335.08 32.4315 1331.59 37.1306 Q1328.11 41.7891 1328.11 49.9314 Q1328.11 58.0738 1331.55 62.7728 Q1335.04 67.4314 1341.07 67.4314 Q1347.03 67.4314 1350.51 62.7323 Q1354 58.0333 1354 49.9314 Q1354 41.8701 1350.51 37.1711 Q1347.03 32.4315 1341.07 32.4315 M1341.07 26.1121 Q1350.8 26.1121 1356.35 32.4315 Q1361.9 38.7509 1361.9 49.9314 Q1361.9 61.0714 1356.35 67.4314 Q1350.8 73.7508 1341.07 73.7508 Q1331.31 73.7508 1325.76 67.4314 Q1320.25 61.0714 1320.25 49.9314 Q1320.25 38.7509 1325.76 32.4315 Q1331.31 26.1121 1341.07 26.1121 Z" fill="#000000" fill-rule="evenodd" fill-opacity="1"></path><path clip-path="url(#clip270)" d="M1374.25 27.2059 L1381.7 27.2059 L1381.7 73.3862 Q1381.7 82.0551 1378.38 85.944 Q1375.1 89.8329 1367.77 89.8329 L1364.93 89.8329 L1364.93 83.5134 L1366.92 83.5134 Q1371.17 83.5134 1372.71 81.5285 Q1374.25 79.5841 1374.25 73.3862 L1374.25 27.2059 M1374.25 9.54393 L1381.7 9.54393 L1381.7 18.9825 L1374.25 18.9825 L1374.25 9.54393 Z" fill="#000000" fill-rule="evenodd" fill-opacity="1"></path><path clip-path="url(#clip270)" d="M1436.11 48.0275 L1436.11 51.6733 L1401.84 51.6733 Q1402.32 59.3701 1406.46 63.421 Q1410.63 67.4314 1418.04 67.4314 Q1422.33 67.4314 1426.35 66.3781 Q1430.4 65.3249 1434.37 63.2184 L1434.37 70.267 Q1430.36 71.9684 1426.14 72.8596 Q1421.93 73.7508 1417.6 73.7508 Q1406.74 73.7508 1400.38 67.4314 Q1394.06 61.1119 1394.06 50.3365 Q1394.06 39.1965 1400.05 32.6746 Q1406.09 26.1121 1416.3 26.1121 Q1425.45 26.1121 1430.76 32.0264 Q1436.11 37.9003 1436.11 48.0275 M1428.65 45.84 Q1428.57 39.7232 1425.21 36.0774 Q1421.89 32.4315 1416.38 32.4315 Q1410.14 32.4315 1406.37 35.9558 Q1402.65 39.4801 1402.08 45.8805 L1428.65 45.84 Z" fill="#000000" fill-rule="evenodd" fill-opacity="1"></path><path clip-path="url(#clip270)" d="M1480.99 28.9478 L1480.99 35.9153 Q1477.83 34.1734 1474.63 33.3227 Q1471.47 32.4315 1468.23 32.4315 Q1460.98 32.4315 1456.97 37.0496 Q1452.96 41.6271 1452.96 49.9314 Q1452.96 58.2358 1456.97 62.8538 Q1460.98 67.4314 1468.23 67.4314 Q1471.47 67.4314 1474.63 66.5807 Q1477.83 65.6895 1480.99 63.9476 L1480.99 70.8341 Q1477.87 72.2924 1474.51 73.0216 Q1471.19 73.7508 1467.42 73.7508 Q1457.17 73.7508 1451.14 67.3098 Q1445.1 60.8689 1445.1 49.9314 Q1445.1 38.832 1451.18 32.472 Q1457.29 26.1121 1467.91 26.1121 Q1471.35 26.1121 1474.63 26.8413 Q1477.91 27.5299 1480.99 28.9478 Z" fill="#000000" fill-rule="evenodd" fill-opacity="1"></path><path clip-path="url(#clip270)" d="M1501.33 14.324 L1501.33 27.2059 L1516.68 27.2059 L1516.68 32.9987 L1501.33 32.9987 L1501.33 57.6282 Q1501.33 63.1779 1502.83 64.7578 Q1504.37 66.3376 1509.02 66.3376 L1516.68 66.3376 L1516.68 72.576 L1509.02 72.576 Q1500.4 72.576 1497.11 69.3758 Q1493.83 66.1351 1493.83 57.6282 L1493.83 32.9987 L1488.36 32.9987 L1488.36 27.2059 L1493.83 27.2059 L1493.83 14.324 L1501.33 14.324 Z" fill="#000000" fill-rule="evenodd" fill-opacity="1"></path><path clip-path="url(#clip270)" d="M1526.48 27.2059 L1533.94 27.2059 L1533.94 72.576 L1526.48 72.576 L1526.48 27.2059 M1526.48 9.54393 L1533.94 9.54393 L1533.94 18.9825 L1526.48 18.9825 L1526.48 9.54393 Z" fill="#000000" fill-rule="evenodd" fill-opacity="1"></path><path clip-path="url(#clip270)" d="M1567.11 32.4315 Q1561.12 32.4315 1557.63 37.1306 Q1554.15 41.7891 1554.15 49.9314 Q1554.15 58.0738 1557.59 62.7728 Q1561.08 67.4314 1567.11 67.4314 Q1573.07 67.4314 1576.55 62.7323 Q1580.04 58.0333 1580.04 49.9314 Q1580.04 41.8701 1576.55 37.1711 Q1573.07 32.4315 1567.11 32.4315 M1567.11 26.1121 Q1576.84 26.1121 1582.39 32.4315 Q1587.94 38.7509 1587.94 49.9314 Q1587.94 61.0714 1582.39 67.4314 Q1576.84 73.7508 1567.11 73.7508 Q1557.35 73.7508 1551.8 67.4314 Q1546.29 61.0714 1546.29 49.9314 Q1546.29 38.7509 1551.8 32.4315 Q1557.35 26.1121 1567.11 26.1121 Z" fill="#000000" fill-rule="evenodd" fill-opacity="1"></path><path clip-path="url(#clip270)" d="M1638 45.1919 L1638 72.576 L1630.55 72.576 L1630.55 45.4349 Q1630.55 38.994 1628.04 35.7938 Q1625.53 32.5936 1620.5 32.5936 Q1614.47 32.5936 1610.99 36.4419 Q1607.5 40.2903 1607.5 46.9338 L1607.5 72.576 L1600.01 72.576 L1600.01 27.2059 L1607.5 27.2059 L1607.5 34.2544 Q1610.18 30.163 1613.78 28.1376 Q1617.43 26.1121 1622.17 26.1121 Q1629.98 26.1121 1633.99 30.9732 Q1638 35.7938 1638 45.1919 Z" fill="#000000" fill-rule="evenodd" fill-opacity="1"></path><path clip-path="url(#clip272)" d="
M321.708 1340.89 L407.442 1200.25 L493.177 1147.54 L578.911 1019.95 L664.646 957.372 L750.38 908.222 L836.114 847.209 L921.849 821.251 L1007.58 823.868 L1093.32 821.184 
  L1179.05 816.016 L1264.79 832.213 L1350.52 841.035 L1436.26 863.821 L1521.99 874.72 L1607.72 890.668 L1693.46 903.614 L1779.19 922.932 L1864.93 951.072 L1950.66 951.072 
  L2036.4 977.981 L2122.13 993.428 L2207.86 993.631 L2293.6 1040.56 L2293.6 162.047 L2207.86 179.789 L2122.13 180.956 L2036.4 212.611 L1950.66 220.247 L1864.93 240.892 
  L1779.19 263.92 L1693.46 282.782 L1607.72 303.208 L1521.99 337.567 L1436.26 358.381 L1350.52 373.302 L1264.79 393.908 L1179.05 418.267 L1093.32 440.743 L1007.58 463.925 
  L921.849 491.513 L836.114 520.795 L750.38 549.144 L664.646 586.697 L578.911 637.217 L493.177 698.95 L407.442 738.623 L321.708 856.96  Z
  " fill="#800080" fill-rule="evenodd" fill-opacity="0.3"></path>
<polyline clip-path="url(#clip272)" style="stroke:#800080; stroke-linecap:butt; stroke-linejoin:round; stroke-width:0; stroke-opacity:1; fill:none" points="
  321.708,1029.91 407.442,912.971 493.177,847.209 578.911,781.512 664.646,728.117 750.38,690.222 836.114,658.424 921.849,636.431 1007.58,619.688 1093.32,607.223 
  1179.05,602.635 1264.79,593.849 1350.52,587.281 1436.26,585.537 1521.99,572.252 1607.72,570.669 1693.46,556.628 1779.19,550.981 1864.93,542.223 1950.66,529.25 
  2036.4,518.588 2122.13,507.74 2207.86,497.441 2293.6,491.356 
  "></polyline>
<path clip-path="url(#clip272)" d="
M321.708 1126.93 L407.442 985.512 L493.177 917.871 L578.911 847.209 L664.646 789.971 L750.38 746.661 L836.114 711.565 L921.849 694.261 L1007.58 680.832 L1093.32 672.487 
  L1179.05 669.47 L1264.79 661.94 L1350.52 665.538 L1436.26 667.738 L1521.99 672.487 L1607.72 668.478 L1693.46 665.538 L1779.19 666.512 L1864.93 662.653 L1950.66 659.821 
  L2036.4 651.846 L2122.13 657.961 L2207.86 653.858 L2293.6 641.331 L2293.6 350.66 L2207.86 361.574 L2122.13 372.591 L2036.4 388.392 L1950.66 403.534 L1864.93 424.035 
  L1779.19 440.122 L1693.46 462.382 L1607.72 477.548 L1521.99 490.495 L1436.26 505.917 L1350.52 514.521 L1264.79 527.355 L1179.05 541.136 L1093.32 552.841 L1007.58 565.38 
  L921.849 586.697 L836.114 609.064 L750.38 638.657 L664.646 676.603 L578.911 726.668 L493.177 787.812 L407.442 847.209 L321.708 963.941  Z
  " fill="#800080" fill-rule="evenodd" fill-opacity="0.3"></path>
<polyline clip-path="url(#clip272)" style="stroke:#800080; stroke-linecap:butt; stroke-linejoin:round; stroke-width:12; stroke-opacity:1; fill:none" points="
  321.708,1029.91 407.442,912.971 493.177,847.209 578.911,781.512 664.646,728.117 750.38,690.222 836.114,658.424 921.849,636.431 1007.58,619.688 1093.32,607.223 
  1179.05,602.635 1264.79,593.849 1350.52,587.281 1436.26,585.537 1521.99,572.252 1607.72,570.669 1693.46,556.628 1779.19,550.981 1864.93,542.223 1950.66,529.25 
  2036.4,518.588 2122.13,507.74 2207.86,497.441 2293.6,491.356 
  "></polyline>
<circle clip-path="url(#clip272)" cx="321.708" cy="1447.87" r="21.6" fill="#008000" fill-rule="evenodd" fill-opacity="1" stroke="#000000" stroke-opacity="1" stroke-width="3.2"></circle>
<circle clip-path="url(#clip272)" cx="407.442" cy="1171.33" r="21.6" fill="#008000" fill-rule="evenodd" fill-opacity="1" stroke="#000000" stroke-opacity="1" stroke-width="3.2"></circle>
<circle clip-path="url(#clip272)" cx="1264.79" cy="582.673" r="21.6" fill="#008000" fill-rule="evenodd" fill-opacity="1" stroke="#000000" stroke-opacity="1" stroke-width="3.2"></circle>
<circle clip-path="url(#clip272)" cx="493.177" cy="1052" r="21.6" fill="#0000ff" fill-rule="evenodd" fill-opacity="1" stroke="#000000" stroke-opacity="1" stroke-width="3.2"></circle>
<circle clip-path="url(#clip272)" cx="578.911" cy="769.633" r="21.6" fill="#0000ff" fill-rule="evenodd" fill-opacity="1" stroke="#000000" stroke-opacity="1" stroke-width="3.2"></circle>
<circle clip-path="url(#clip272)" cx="664.646" cy="718.248" r="21.6" fill="#0000ff" fill-rule="evenodd" fill-opacity="1" stroke="#000000" stroke-opacity="1" stroke-width="3.2"></circle>
<circle clip-path="url(#clip272)" cx="750.38" cy="603.282" r="21.6" fill="#0000ff" fill-rule="evenodd" fill-opacity="1" stroke="#000000" stroke-opacity="1" stroke-width="3.2"></circle>
<circle clip-path="url(#clip272)" cx="836.114" cy="740.229" r="21.6" fill="#0000ff" fill-rule="evenodd" fill-opacity="1" stroke="#000000" stroke-opacity="1" stroke-width="3.2"></circle>
<circle clip-path="url(#clip272)" cx="921.849" cy="493.411" r="21.6" fill="#0000ff" fill-rule="evenodd" fill-opacity="1" stroke="#000000" stroke-opacity="1" stroke-width="3.2"></circle>
<circle clip-path="url(#clip272)" cx="1007.58" cy="674.531" r="21.6" fill="#0000ff" fill-rule="evenodd" fill-opacity="1" stroke="#000000" stroke-opacity="1" stroke-width="3.2"></circle>
<circle clip-path="url(#clip272)" cx="1093.32" cy="569.102" r="21.6" fill="#0000ff" fill-rule="evenodd" fill-opacity="1" stroke="#000000" stroke-opacity="1" stroke-width="3.2"></circle>
<circle clip-path="url(#clip272)" cx="1179.05" cy="569.623" r="21.6" fill="#0000ff" fill-rule="evenodd" fill-opacity="1" stroke="#000000" stroke-opacity="1" stroke-width="3.2"></circle>
<path clip-path="url(#clip270)" d="
M332.225 376.265 L1141.41 376.265 L1141.41 168.905 L332.225 168.905  Z
  " fill="#ffffff" fill-rule="evenodd" fill-opacity="1"></path>
<polyline clip-path="url(#clip270)" style="stroke:#000000; stroke-linecap:butt; stroke-linejoin:round; stroke-width:4; stroke-opacity:1; fill:none" points="
  332.225,376.265 1141.41,376.265 1141.41,168.905 332.225,168.905 332.225,376.265 
  "></polyline>
<polyline clip-path="url(#clip270)" style="stroke:#800080; stroke-linecap:butt; stroke-linejoin:round; stroke-width:4; stroke-opacity:1; fill:none" points="
  355.449,220.745 494.796,220.745 
  "></polyline>
<path clip-path="url(#clip270)" d="M522.697 207.307 L522.697 220.293 L528.576 220.293 Q531.84 220.293 533.622 218.603 Q535.405 216.914 535.405 213.789 Q535.405 210.687 533.622 208.997 Q531.84 207.307 528.576 207.307 L522.697 207.307 M518.021 203.465 L528.576 203.465 Q534.386 203.465 537.349 206.104 Q540.335 208.719 540.335 213.789 Q540.335 218.904 537.349 221.52 Q534.386 224.136 528.576 224.136 L522.697 224.136 L522.697 238.025 L518.021 238.025 L518.021 203.465 Z" fill="#000000" fill-rule="evenodd" fill-opacity="1"></path><path clip-path="url(#clip270)" d="M560.613 216.08 Q559.895 215.664 559.039 215.478 Q558.206 215.27 557.187 215.27 Q553.576 215.27 551.632 217.631 Q549.71 219.969 549.71 224.367 L549.71 238.025 L545.428 238.025 L545.428 212.099 L549.71 212.099 L549.71 216.127 Q551.053 213.766 553.206 212.631 Q555.358 211.474 558.437 211.474 Q558.877 211.474 559.409 211.543 Q559.942 211.59 560.59 211.705 L560.613 216.08 Z" fill="#000000" fill-rule="evenodd" fill-opacity="1"></path><path clip-path="url(#clip270)" d="M574.085 215.085 Q570.659 215.085 568.669 217.77 Q566.678 220.432 566.678 225.085 Q566.678 229.738 568.645 232.423 Q570.636 235.085 574.085 235.085 Q577.488 235.085 579.479 232.4 Q581.469 229.715 581.469 225.085 Q581.469 220.478 579.479 217.793 Q577.488 215.085 574.085 215.085 M574.085 211.474 Q579.641 211.474 582.812 215.085 Q585.983 218.696 585.983 225.085 Q585.983 231.451 582.812 235.085 Q579.641 238.696 574.085 238.696 Q568.507 238.696 565.335 235.085 Q562.187 231.451 562.187 225.085 Q562.187 218.696 565.335 215.085 Q568.507 211.474 574.085 211.474 Z" fill="#000000" fill-rule="evenodd" fill-opacity="1"></path><path clip-path="url(#clip270)" d="M593.043 212.099 L597.303 212.099 L597.303 238.488 Q597.303 243.441 595.405 245.663 Q593.53 247.886 589.34 247.886 L587.719 247.886 L587.719 244.275 L588.854 244.275 Q591.284 244.275 592.164 243.14 Q593.043 242.029 593.043 238.488 L593.043 212.099 M593.043 202.006 L597.303 202.006 L597.303 207.4 L593.043 207.4 L593.043 202.006 Z" fill="#000000" fill-rule="evenodd" fill-opacity="1"></path><path clip-path="url(#clip270)" d="M628.39 223.997 L628.39 226.08 L608.807 226.08 Q609.085 230.478 611.446 232.793 Q613.83 235.085 618.066 235.085 Q620.52 235.085 622.812 234.483 Q625.127 233.881 627.395 232.677 L627.395 236.705 Q625.103 237.677 622.696 238.187 Q620.289 238.696 617.812 238.696 Q611.608 238.696 607.974 235.085 Q604.363 231.474 604.363 225.316 Q604.363 218.951 607.789 215.224 Q611.238 211.474 617.071 211.474 Q622.303 211.474 625.335 214.853 Q628.39 218.21 628.39 223.997 M624.131 222.747 Q624.085 219.252 622.164 217.168 Q620.266 215.085 617.117 215.085 Q613.553 215.085 611.4 217.099 Q609.27 219.113 608.946 222.77 L624.131 222.747 Z" fill="#000000" fill-rule="evenodd" fill-opacity="1"></path><path clip-path="url(#clip270)" d="M654.038 213.094 L654.038 217.076 Q652.233 216.08 650.404 215.594 Q648.599 215.085 646.747 215.085 Q642.603 215.085 640.312 217.724 Q638.02 220.34 638.02 225.085 Q638.02 229.83 640.312 232.469 Q642.603 235.085 646.747 235.085 Q648.599 235.085 650.404 234.599 Q652.233 234.089 654.038 233.094 L654.038 237.029 Q652.256 237.863 650.335 238.279 Q648.437 238.696 646.284 238.696 Q640.427 238.696 636.978 235.015 Q633.529 231.335 633.529 225.085 Q633.529 218.742 637.002 215.108 Q640.497 211.474 646.562 211.474 Q648.529 211.474 650.404 211.891 Q652.279 212.284 654.038 213.094 Z" fill="#000000" fill-rule="evenodd" fill-opacity="1"></path><path clip-path="url(#clip270)" d="M665.659 204.738 L665.659 212.099 L674.432 212.099 L674.432 215.409 L665.659 215.409 L665.659 229.483 Q665.659 232.654 666.515 233.557 Q667.395 234.46 670.057 234.46 L674.432 234.46 L674.432 238.025 L670.057 238.025 Q665.126 238.025 663.251 236.196 Q661.376 234.344 661.376 229.483 L661.376 215.409 L658.251 215.409 L658.251 212.099 L661.376 212.099 L661.376 204.738 L665.659 204.738 Z" fill="#000000" fill-rule="evenodd" fill-opacity="1"></path><path clip-path="url(#clip270)" d="M680.034 212.099 L684.293 212.099 L684.293 238.025 L680.034 238.025 L680.034 212.099 M680.034 202.006 L684.293 202.006 L684.293 207.4 L680.034 207.4 L680.034 202.006 Z" fill="#000000" fill-rule="evenodd" fill-opacity="1"></path><path clip-path="url(#clip270)" d="M703.251 215.085 Q699.825 215.085 697.835 217.77 Q695.844 220.432 695.844 225.085 Q695.844 229.738 697.811 232.423 Q699.802 235.085 703.251 235.085 Q706.654 235.085 708.645 232.4 Q710.635 229.715 710.635 225.085 Q710.635 220.478 708.645 217.793 Q706.654 215.085 703.251 215.085 M703.251 211.474 Q708.807 211.474 711.978 215.085 Q715.149 218.696 715.149 225.085 Q715.149 231.451 711.978 235.085 Q708.807 238.696 703.251 238.696 Q697.672 238.696 694.501 235.085 Q691.353 231.451 691.353 225.085 Q691.353 218.696 694.501 215.085 Q697.672 211.474 703.251 211.474 Z" fill="#000000" fill-rule="evenodd" fill-opacity="1"></path><path clip-path="url(#clip270)" d="M743.76 222.377 L743.76 238.025 L739.501 238.025 L739.501 222.515 Q739.501 218.835 738.066 217.006 Q736.631 215.178 733.76 215.178 Q730.311 215.178 728.32 217.377 Q726.33 219.576 726.33 223.372 L726.33 238.025 L722.047 238.025 L722.047 212.099 L726.33 212.099 L726.33 216.127 Q727.858 213.789 729.918 212.631 Q732.001 211.474 734.709 211.474 Q739.177 211.474 741.469 214.252 Q743.76 217.006 743.76 222.377 Z" fill="#000000" fill-rule="evenodd" fill-opacity="1"></path><circle clip-path="url(#clip270)" cx="425.123" cy="272.585" r="23.04" fill="#008000" fill-rule="evenodd" fill-opacity="1" stroke="#000000" stroke-opacity="1" stroke-width="3.41333"></circle>
<path clip-path="url(#clip270)" d="M522.697 259.147 L522.697 286.022 L528.345 286.022 Q535.497 286.022 538.808 282.781 Q542.141 279.541 542.141 272.55 Q542.141 265.606 538.808 262.388 Q535.497 259.147 528.345 259.147 L522.697 259.147 M518.021 255.305 L527.627 255.305 Q537.673 255.305 542.372 259.494 Q547.071 263.661 547.071 272.55 Q547.071 281.485 542.349 285.675 Q537.627 289.865 527.627 289.865 L518.021 289.865 L518.021 255.305 Z" fill="#000000" fill-rule="evenodd" fill-opacity="1"></path><path clip-path="url(#clip270)" d="M566.122 276.832 Q560.96 276.832 558.97 278.013 Q556.979 279.193 556.979 282.041 Q556.979 284.309 558.46 285.652 Q559.965 286.971 562.534 286.971 Q566.076 286.971 568.206 284.471 Q570.358 281.948 570.358 277.781 L570.358 276.832 L566.122 276.832 M574.618 275.073 L574.618 289.865 L570.358 289.865 L570.358 285.929 Q568.9 288.291 566.724 289.425 Q564.548 290.536 561.4 290.536 Q557.419 290.536 555.058 288.314 Q552.72 286.068 552.72 282.318 Q552.72 277.943 555.636 275.721 Q558.576 273.499 564.386 273.499 L570.358 273.499 L570.358 273.082 Q570.358 270.143 568.414 268.545 Q566.493 266.925 562.997 266.925 Q560.775 266.925 558.669 267.457 Q556.562 267.99 554.618 269.055 L554.618 265.119 Q556.956 264.217 559.155 263.777 Q561.354 263.314 563.437 263.314 Q569.062 263.314 571.84 266.231 Q574.618 269.147 574.618 275.073 Z" fill="#000000" fill-rule="evenodd" fill-opacity="1"></path><path clip-path="url(#clip270)" d="M587.604 256.578 L587.604 263.939 L596.377 263.939 L596.377 267.249 L587.604 267.249 L587.604 281.323 Q587.604 284.494 588.46 285.397 Q589.34 286.3 592.002 286.3 L596.377 286.3 L596.377 289.865 L592.002 289.865 Q587.071 289.865 585.196 288.036 Q583.321 286.184 583.321 281.323 L583.321 267.249 L580.196 267.249 L580.196 263.939 L583.321 263.939 L583.321 256.578 L587.604 256.578 Z" fill="#000000" fill-rule="evenodd" fill-opacity="1"></path><path clip-path="url(#clip270)" d="M613.761 276.832 Q608.599 276.832 606.608 278.013 Q604.617 279.193 604.617 282.041 Q604.617 284.309 606.099 285.652 Q607.604 286.971 610.173 286.971 Q613.715 286.971 615.844 284.471 Q617.997 281.948 617.997 277.781 L617.997 276.832 L613.761 276.832 M622.256 275.073 L622.256 289.865 L617.997 289.865 L617.997 285.929 Q616.539 288.291 614.363 289.425 Q612.187 290.536 609.039 290.536 Q605.057 290.536 602.696 288.314 Q600.358 286.068 600.358 282.318 Q600.358 277.943 603.275 275.721 Q606.215 273.499 612.025 273.499 L617.997 273.499 L617.997 273.082 Q617.997 270.143 616.053 268.545 Q614.131 266.925 610.636 266.925 Q608.414 266.925 606.307 267.457 Q604.201 267.99 602.256 269.055 L602.256 265.119 Q604.594 264.217 606.793 263.777 Q608.992 263.314 611.076 263.314 Q616.701 263.314 619.478 266.231 Q622.256 269.147 622.256 275.073 Z" fill="#000000" fill-rule="evenodd" fill-opacity="1"></path><path clip-path="url(#clip270)" d="M656.33 253.893 Q653.228 259.217 651.724 264.425 Q650.219 269.633 650.219 274.98 Q650.219 280.328 651.724 285.582 Q653.251 290.814 656.33 296.115 L652.626 296.115 Q649.154 290.675 647.418 285.42 Q645.705 280.166 645.705 274.98 Q645.705 269.818 647.418 264.587 Q649.131 259.356 652.626 253.893 L656.33 253.893 Z" fill="#000000" fill-rule="evenodd" fill-opacity="1"></path><path clip-path="url(#clip270)" d="M686.145 274.217 L686.145 289.865 L681.886 289.865 L681.886 274.355 Q681.886 270.675 680.45 268.846 Q679.015 267.018 676.145 267.018 Q672.696 267.018 670.705 269.217 Q668.714 271.416 668.714 275.212 L668.714 289.865 L664.432 289.865 L664.432 263.939 L668.714 263.939 L668.714 267.967 Q670.242 265.629 672.302 264.471 Q674.386 263.314 677.094 263.314 Q681.561 263.314 683.853 266.092 Q686.145 268.846 686.145 274.217 Z" fill="#000000" fill-rule="evenodd" fill-opacity="1"></path><path clip-path="url(#clip270)" d="M704.686 266.925 Q701.26 266.925 699.27 269.61 Q697.279 272.272 697.279 276.925 Q697.279 281.578 699.247 284.263 Q701.237 286.925 704.686 286.925 Q708.089 286.925 710.08 284.24 Q712.071 281.555 712.071 276.925 Q712.071 272.318 710.08 269.633 Q708.089 266.925 704.686 266.925 M704.686 263.314 Q710.242 263.314 713.413 266.925 Q716.584 270.536 716.584 276.925 Q716.584 283.291 713.413 286.925 Q710.242 290.536 704.686 290.536 Q699.108 290.536 695.936 286.925 Q692.788 283.291 692.788 276.925 Q692.788 270.536 695.936 266.925 Q699.108 263.314 704.686 263.314 Z" fill="#000000" fill-rule="evenodd" fill-opacity="1"></path><path clip-path="url(#clip270)" d="M727.858 256.578 L727.858 263.939 L736.631 263.939 L736.631 267.249 L727.858 267.249 L727.858 281.323 Q727.858 284.494 728.714 285.397 Q729.594 286.3 732.256 286.3 L736.631 286.3 L736.631 289.865 L732.256 289.865 Q727.325 289.865 725.45 288.036 Q723.575 286.184 723.575 281.323 L723.575 267.249 L720.45 267.249 L720.45 263.939 L723.575 263.939 L723.575 256.578 L727.858 256.578 Z" fill="#000000" fill-rule="evenodd" fill-opacity="1"></path><path clip-path="url(#clip270)" d="M756.862 279.633 L756.862 263.939 L761.121 263.939 L761.121 279.471 Q761.121 283.152 762.556 285.004 Q763.992 286.832 766.862 286.832 Q770.311 286.832 772.302 284.633 Q774.316 282.434 774.316 278.638 L774.316 263.939 L778.575 263.939 L778.575 289.865 L774.316 289.865 L774.316 285.883 Q772.765 288.244 770.705 289.402 Q768.667 290.536 765.959 290.536 Q761.492 290.536 759.177 287.758 Q756.862 284.98 756.862 279.633 M767.58 263.314 L767.58 263.314 Z" fill="#000000" fill-rule="evenodd" fill-opacity="1"></path><path clip-path="url(#clip270)" d="M803.876 264.703 L803.876 268.731 Q802.07 267.805 800.126 267.342 Q798.181 266.879 796.098 266.879 Q792.927 266.879 791.329 267.851 Q789.755 268.823 789.755 270.768 Q789.755 272.249 790.89 273.105 Q792.024 273.939 795.45 274.703 L796.908 275.027 Q801.445 275.999 803.343 277.781 Q805.265 279.541 805.265 282.712 Q805.265 286.323 802.394 288.429 Q799.547 290.536 794.547 290.536 Q792.464 290.536 790.195 290.119 Q787.95 289.726 785.45 288.916 L785.45 284.517 Q787.811 285.744 790.103 286.369 Q792.394 286.971 794.64 286.971 Q797.649 286.971 799.269 285.953 Q800.89 284.911 800.89 283.036 Q800.89 281.3 799.709 280.374 Q798.552 279.448 794.593 278.592 L793.112 278.244 Q789.153 277.411 787.394 275.698 Q785.635 273.962 785.635 270.953 Q785.635 267.295 788.228 265.305 Q790.82 263.314 795.589 263.314 Q797.95 263.314 800.033 263.661 Q802.116 264.008 803.876 264.703 Z" fill="#000000" fill-rule="evenodd" fill-opacity="1"></path><path clip-path="url(#clip270)" d="M834.223 275.837 L834.223 277.92 L814.639 277.92 Q814.917 282.318 817.278 284.633 Q819.663 286.925 823.899 286.925 Q826.352 286.925 828.644 286.323 Q830.959 285.721 833.227 284.517 L833.227 288.545 Q830.936 289.517 828.528 290.027 Q826.121 290.536 823.644 290.536 Q817.44 290.536 813.806 286.925 Q810.195 283.314 810.195 277.156 Q810.195 270.791 813.621 267.064 Q817.07 263.314 822.903 263.314 Q828.135 263.314 831.167 266.693 Q834.223 270.05 834.223 275.837 M829.963 274.587 Q829.917 271.092 827.996 269.008 Q826.098 266.925 822.95 266.925 Q819.385 266.925 817.232 268.939 Q815.102 270.953 814.778 274.61 L829.963 274.587 Z" fill="#000000" fill-rule="evenodd" fill-opacity="1"></path><path clip-path="url(#clip270)" d="M858.273 267.874 L858.273 253.846 L862.533 253.846 L862.533 289.865 L858.273 289.865 L858.273 285.976 Q856.931 288.291 854.871 289.425 Q852.834 290.536 849.963 290.536 Q845.264 290.536 842.301 286.786 Q839.362 283.036 839.362 276.925 Q839.362 270.814 842.301 267.064 Q845.264 263.314 849.963 263.314 Q852.834 263.314 854.871 264.448 Q856.931 265.559 858.273 267.874 M843.76 276.925 Q843.76 281.624 845.681 284.309 Q847.625 286.971 851.005 286.971 Q854.385 286.971 856.329 284.309 Q858.273 281.624 858.273 276.925 Q858.273 272.226 856.329 269.564 Q854.385 266.879 851.005 266.879 Q847.625 266.879 845.681 269.564 Q843.76 272.226 843.76 276.925 Z" fill="#000000" fill-rule="evenodd" fill-opacity="1"></path><path clip-path="url(#clip270)" d="M886.375 263.939 L890.634 263.939 L890.634 289.865 L886.375 289.865 L886.375 263.939 M886.375 253.846 L890.634 253.846 L890.634 259.24 L886.375 259.24 L886.375 253.846 Z" fill="#000000" fill-rule="evenodd" fill-opacity="1"></path><path clip-path="url(#clip270)" d="M921.097 274.217 L921.097 289.865 L916.838 289.865 L916.838 274.355 Q916.838 270.675 915.403 268.846 Q913.968 267.018 911.097 267.018 Q907.648 267.018 905.657 269.217 Q903.667 271.416 903.667 275.212 L903.667 289.865 L899.384 289.865 L899.384 263.939 L903.667 263.939 L903.667 267.967 Q905.195 265.629 907.255 264.471 Q909.338 263.314 912.046 263.314 Q916.514 263.314 918.806 266.092 Q921.097 268.846 921.097 274.217 Z" fill="#000000" fill-rule="evenodd" fill-opacity="1"></path><path clip-path="url(#clip270)" d="M957.787 253.846 L957.787 257.388 L953.713 257.388 Q951.421 257.388 950.518 258.314 Q949.639 259.24 949.639 261.647 L949.639 263.939 L956.653 263.939 L956.653 267.249 L949.639 267.249 L949.639 289.865 L945.356 289.865 L945.356 267.249 L941.282 267.249 L941.282 263.939 L945.356 263.939 L945.356 262.133 Q945.356 257.805 947.37 255.837 Q949.384 253.846 953.759 253.846 L957.787 253.846 Z" fill="#000000" fill-rule="evenodd" fill-opacity="1"></path><path clip-path="url(#clip270)" d="M961.352 263.939 L965.611 263.939 L965.611 289.865 L961.352 289.865 L961.352 263.939 M961.352 253.846 L965.611 253.846 L965.611 259.24 L961.352 259.24 L961.352 253.846 Z" fill="#000000" fill-rule="evenodd" fill-opacity="1"></path><path clip-path="url(#clip270)" d="M978.736 256.578 L978.736 263.939 L987.509 263.939 L987.509 267.249 L978.736 267.249 L978.736 281.323 Q978.736 284.494 979.592 285.397 Q980.472 286.3 983.134 286.3 L987.509 286.3 L987.509 289.865 L983.134 289.865 Q978.203 289.865 976.328 288.036 Q974.453 286.184 974.453 281.323 L974.453 267.249 L971.328 267.249 L971.328 263.939 L974.453 263.939 L974.453 256.578 L978.736 256.578 Z" fill="#000000" fill-rule="evenodd" fill-opacity="1"></path><path clip-path="url(#clip270)" d="M997.324 256.578 L997.324 263.939 L1006.1 263.939 L1006.1 267.249 L997.324 267.249 L997.324 281.323 Q997.324 284.494 998.18 285.397 Q999.06 286.3 1001.72 286.3 L1006.1 286.3 L1006.1 289.865 L1001.72 289.865 Q996.791 289.865 994.916 288.036 Q993.041 286.184 993.041 281.323 L993.041 267.249 L989.916 267.249 L989.916 263.939 L993.041 263.939 L993.041 256.578 L997.324 256.578 Z" fill="#000000" fill-rule="evenodd" fill-opacity="1"></path><path clip-path="url(#clip270)" d="M1011.7 263.939 L1015.96 263.939 L1015.96 289.865 L1011.7 289.865 L1011.7 263.939 M1011.7 253.846 L1015.96 253.846 L1015.96 259.24 L1011.7 259.24 L1011.7 253.846 Z" fill="#000000" fill-rule="evenodd" fill-opacity="1"></path><path clip-path="url(#clip270)" d="M1046.42 274.217 L1046.42 289.865 L1042.16 289.865 L1042.16 274.355 Q1042.16 270.675 1040.73 268.846 Q1039.29 267.018 1036.42 267.018 Q1032.97 267.018 1030.98 269.217 Q1028.99 271.416 1028.99 275.212 L1028.99 289.865 L1024.71 289.865 L1024.71 263.939 L1028.99 263.939 L1028.99 267.967 Q1030.52 265.629 1032.58 264.471 Q1034.66 263.314 1037.37 263.314 Q1041.84 263.314 1044.13 266.092 Q1046.42 268.846 1046.42 274.217 Z" fill="#000000" fill-rule="evenodd" fill-opacity="1"></path><path clip-path="url(#clip270)" d="M1071.98 276.601 Q1071.98 271.971 1070.05 269.425 Q1068.16 266.879 1064.71 266.879 Q1061.28 266.879 1059.36 269.425 Q1057.46 271.971 1057.46 276.601 Q1057.46 281.207 1059.36 283.754 Q1061.28 286.3 1064.71 286.3 Q1068.16 286.3 1070.05 283.754 Q1071.98 281.207 1071.98 276.601 M1076.24 286.647 Q1076.24 293.267 1073.3 296.485 Q1070.36 299.726 1064.29 299.726 Q1062.05 299.726 1060.05 299.378 Q1058.06 299.054 1056.19 298.36 L1056.19 294.216 Q1058.06 295.235 1059.89 295.721 Q1061.72 296.207 1063.62 296.207 Q1067.81 296.207 1069.89 294.008 Q1071.98 291.832 1071.98 287.411 L1071.98 285.304 Q1070.66 287.596 1068.6 288.73 Q1066.54 289.865 1063.67 289.865 Q1058.9 289.865 1055.98 286.23 Q1053.06 282.596 1053.06 276.601 Q1053.06 270.582 1055.98 266.948 Q1058.9 263.314 1063.67 263.314 Q1066.54 263.314 1068.6 264.448 Q1070.66 265.582 1071.98 267.874 L1071.98 263.939 L1076.24 263.939 L1076.24 286.647 Z" fill="#000000" fill-rule="evenodd" fill-opacity="1"></path><path clip-path="url(#clip270)" d="M1084.34 253.893 L1088.04 253.893 Q1091.51 259.356 1093.23 264.587 Q1094.96 269.818 1094.96 274.98 Q1094.96 280.166 1093.23 285.42 Q1091.51 290.675 1088.04 296.115 L1084.34 296.115 Q1087.42 290.814 1088.92 285.582 Q1090.45 280.328 1090.45 274.98 Q1090.45 269.633 1088.92 264.425 Q1087.42 259.217 1084.34 253.893 Z" fill="#000000" fill-rule="evenodd" fill-opacity="1"></path><circle clip-path="url(#clip270)" cx="425.123" cy="324.425" r="23.04" fill="#0000ff" fill-rule="evenodd" fill-opacity="1" stroke="#000000" stroke-opacity="1" stroke-width="3.41333"></circle>
<path clip-path="url(#clip270)" d="M522.697 310.987 L522.697 337.862 L528.345 337.862 Q535.497 337.862 538.808 334.621 Q542.141 331.381 542.141 324.39 Q542.141 317.446 538.808 314.228 Q535.497 310.987 528.345 310.987 L522.697 310.987 M518.021 307.145 L527.627 307.145 Q537.673 307.145 542.372 311.334 Q547.071 315.501 547.071 324.39 Q547.071 333.325 542.349 337.515 Q537.627 341.705 527.627 341.705 L518.021 341.705 L518.021 307.145 Z" fill="#000000" fill-rule="evenodd" fill-opacity="1"></path><path clip-path="url(#clip270)" d="M566.122 328.672 Q560.96 328.672 558.97 329.853 Q556.979 331.033 556.979 333.881 Q556.979 336.149 558.46 337.492 Q559.965 338.811 562.534 338.811 Q566.076 338.811 568.206 336.311 Q570.358 333.788 570.358 329.621 L570.358 328.672 L566.122 328.672 M574.618 326.913 L574.618 341.705 L570.358 341.705 L570.358 337.769 Q568.9 340.131 566.724 341.265 Q564.548 342.376 561.4 342.376 Q557.419 342.376 555.058 340.154 Q552.72 337.908 552.72 334.158 Q552.72 329.783 555.636 327.561 Q558.576 325.339 564.386 325.339 L570.358 325.339 L570.358 324.922 Q570.358 321.983 568.414 320.385 Q566.493 318.765 562.997 318.765 Q560.775 318.765 558.669 319.297 Q556.562 319.83 554.618 320.895 L554.618 316.959 Q556.956 316.057 559.155 315.617 Q561.354 315.154 563.437 315.154 Q569.062 315.154 571.84 318.071 Q574.618 320.987 574.618 326.913 Z" fill="#000000" fill-rule="evenodd" fill-opacity="1"></path><path clip-path="url(#clip270)" d="M587.604 308.418 L587.604 315.779 L596.377 315.779 L596.377 319.089 L587.604 319.089 L587.604 333.163 Q587.604 336.334 588.46 337.237 Q589.34 338.14 592.002 338.14 L596.377 338.14 L596.377 341.705 L592.002 341.705 Q587.071 341.705 585.196 339.876 Q583.321 338.024 583.321 333.163 L583.321 319.089 L580.196 319.089 L580.196 315.779 L583.321 315.779 L583.321 308.418 L587.604 308.418 Z" fill="#000000" fill-rule="evenodd" fill-opacity="1"></path><path clip-path="url(#clip270)" d="M613.761 328.672 Q608.599 328.672 606.608 329.853 Q604.617 331.033 604.617 333.881 Q604.617 336.149 606.099 337.492 Q607.604 338.811 610.173 338.811 Q613.715 338.811 615.844 336.311 Q617.997 333.788 617.997 329.621 L617.997 328.672 L613.761 328.672 M622.256 326.913 L622.256 341.705 L617.997 341.705 L617.997 337.769 Q616.539 340.131 614.363 341.265 Q612.187 342.376 609.039 342.376 Q605.057 342.376 602.696 340.154 Q600.358 337.908 600.358 334.158 Q600.358 329.783 603.275 327.561 Q606.215 325.339 612.025 325.339 L617.997 325.339 L617.997 324.922 Q617.997 321.983 616.053 320.385 Q614.131 318.765 610.636 318.765 Q608.414 318.765 606.307 319.297 Q604.201 319.83 602.256 320.895 L602.256 316.959 Q604.594 316.057 606.793 315.617 Q608.992 315.154 611.076 315.154 Q616.701 315.154 619.478 318.071 Q622.256 320.987 622.256 326.913 Z" fill="#000000" fill-rule="evenodd" fill-opacity="1"></path><path clip-path="url(#clip270)" d="M656.33 305.733 Q653.228 311.057 651.724 316.265 Q650.219 321.473 650.219 326.82 Q650.219 332.168 651.724 337.422 Q653.251 342.654 656.33 347.955 L652.626 347.955 Q649.154 342.515 647.418 337.26 Q645.705 332.006 645.705 326.82 Q645.705 321.658 647.418 316.427 Q649.131 311.196 652.626 305.733 L656.33 305.733 Z" fill="#000000" fill-rule="evenodd" fill-opacity="1"></path><path clip-path="url(#clip270)" d="M664.154 331.473 L664.154 315.779 L668.413 315.779 L668.413 331.311 Q668.413 334.992 669.849 336.844 Q671.284 338.672 674.154 338.672 Q677.603 338.672 679.594 336.473 Q681.608 334.274 681.608 330.478 L681.608 315.779 L685.867 315.779 L685.867 341.705 L681.608 341.705 L681.608 337.723 Q680.057 340.084 677.997 341.242 Q675.96 342.376 673.251 342.376 Q668.784 342.376 666.469 339.598 Q664.154 336.82 664.154 331.473 M674.872 315.154 L674.872 315.154 Z" fill="#000000" fill-rule="evenodd" fill-opacity="1"></path><path clip-path="url(#clip270)" d="M711.168 316.543 L711.168 320.571 Q709.362 319.645 707.418 319.182 Q705.473 318.719 703.39 318.719 Q700.219 318.719 698.622 319.691 Q697.048 320.663 697.048 322.608 Q697.048 324.089 698.182 324.945 Q699.316 325.779 702.742 326.543 L704.2 326.867 Q708.737 327.839 710.635 329.621 Q712.557 331.381 712.557 334.552 Q712.557 338.163 709.686 340.269 Q706.839 342.376 701.839 342.376 Q699.756 342.376 697.487 341.959 Q695.242 341.566 692.742 340.756 L692.742 336.357 Q695.103 337.584 697.395 338.209 Q699.686 338.811 701.932 338.811 Q704.941 338.811 706.561 337.793 Q708.182 336.751 708.182 334.876 Q708.182 333.14 707.001 332.214 Q705.844 331.288 701.885 330.432 L700.404 330.084 Q696.446 329.251 694.686 327.538 Q692.927 325.802 692.927 322.793 Q692.927 319.135 695.52 317.145 Q698.112 315.154 702.881 315.154 Q705.242 315.154 707.325 315.501 Q709.409 315.848 711.168 316.543 Z" fill="#000000" fill-rule="evenodd" fill-opacity="1"></path><path clip-path="url(#clip270)" d="M741.515 327.677 L741.515 329.76 L721.932 329.76 Q722.209 334.158 724.571 336.473 Q726.955 338.765 731.191 338.765 Q733.645 338.765 735.936 338.163 Q738.251 337.561 740.519 336.357 L740.519 340.385 Q738.228 341.357 735.82 341.867 Q733.413 342.376 730.936 342.376 Q724.733 342.376 721.098 338.765 Q717.487 335.154 717.487 328.996 Q717.487 322.631 720.913 318.904 Q724.362 315.154 730.195 315.154 Q735.427 315.154 738.459 318.533 Q741.515 321.89 741.515 327.677 M737.256 326.427 Q737.209 322.932 735.288 320.848 Q733.39 318.765 730.242 318.765 Q726.677 318.765 724.524 320.779 Q722.395 322.793 722.071 326.45 L737.256 326.427 Z" fill="#000000" fill-rule="evenodd" fill-opacity="1"></path><path clip-path="url(#clip270)" d="M765.566 319.714 L765.566 305.686 L769.825 305.686 L769.825 341.705 L765.566 341.705 L765.566 337.816 Q764.223 340.131 762.163 341.265 Q760.126 342.376 757.256 342.376 Q752.556 342.376 749.594 338.626 Q746.654 334.876 746.654 328.765 Q746.654 322.654 749.594 318.904 Q752.556 315.154 757.256 315.154 Q760.126 315.154 762.163 316.288 Q764.223 317.399 765.566 319.714 M751.052 328.765 Q751.052 333.464 752.973 336.149 Q754.918 338.811 758.297 338.811 Q761.677 338.811 763.621 336.149 Q765.566 333.464 765.566 328.765 Q765.566 324.066 763.621 321.404 Q761.677 318.719 758.297 318.719 Q754.918 318.719 752.973 321.404 Q751.052 324.066 751.052 328.765 Z" fill="#000000" fill-rule="evenodd" fill-opacity="1"></path><path clip-path="url(#clip270)" d="M793.667 315.779 L797.927 315.779 L797.927 341.705 L793.667 341.705 L793.667 315.779 M793.667 305.686 L797.927 305.686 L797.927 311.08 L793.667 311.08 L793.667 305.686 Z" fill="#000000" fill-rule="evenodd" fill-opacity="1"></path><path clip-path="url(#clip270)" d="M828.389 326.057 L828.389 341.705 L824.13 341.705 L824.13 326.195 Q824.13 322.515 822.695 320.686 Q821.26 318.858 818.389 318.858 Q814.94 318.858 812.95 321.057 Q810.959 323.256 810.959 327.052 L810.959 341.705 L806.677 341.705 L806.677 315.779 L810.959 315.779 L810.959 319.807 Q812.487 317.469 814.547 316.311 Q816.63 315.154 819.339 315.154 Q823.806 315.154 826.098 317.932 Q828.389 320.686 828.389 326.057 Z" fill="#000000" fill-rule="evenodd" fill-opacity="1"></path><path clip-path="url(#clip270)" d="M865.079 305.686 L865.079 309.228 L861.005 309.228 Q858.713 309.228 857.811 310.154 Q856.931 311.08 856.931 313.487 L856.931 315.779 L863.945 315.779 L863.945 319.089 L856.931 319.089 L856.931 341.705 L852.649 341.705 L852.649 319.089 L848.574 319.089 L848.574 315.779 L852.649 315.779 L852.649 313.973 Q852.649 309.645 854.662 307.677 Q856.676 305.686 861.051 305.686 L865.079 305.686 Z" fill="#000000" fill-rule="evenodd" fill-opacity="1"></path><path clip-path="url(#clip270)" d="M868.644 315.779 L872.903 315.779 L872.903 341.705 L868.644 341.705 L868.644 315.779 M868.644 305.686 L872.903 305.686 L872.903 311.08 L868.644 311.08 L868.644 305.686 Z" fill="#000000" fill-rule="evenodd" fill-opacity="1"></path><path clip-path="url(#clip270)" d="M886.028 308.418 L886.028 315.779 L894.801 315.779 L894.801 319.089 L886.028 319.089 L886.028 333.163 Q886.028 336.334 886.884 337.237 Q887.764 338.14 890.426 338.14 L894.801 338.14 L894.801 341.705 L890.426 341.705 Q885.496 341.705 883.621 339.876 Q881.746 338.024 881.746 333.163 L881.746 319.089 L878.621 319.089 L878.621 315.779 L881.746 315.779 L881.746 308.418 L886.028 308.418 Z" fill="#000000" fill-rule="evenodd" fill-opacity="1"></path><path clip-path="url(#clip270)" d="M904.616 308.418 L904.616 315.779 L913.389 315.779 L913.389 319.089 L904.616 319.089 L904.616 333.163 Q904.616 336.334 905.472 337.237 Q906.352 338.14 909.014 338.14 L913.389 338.14 L913.389 341.705 L909.014 341.705 Q904.083 341.705 902.208 339.876 Q900.333 338.024 900.333 333.163 L900.333 319.089 L897.208 319.089 L897.208 315.779 L900.333 315.779 L900.333 308.418 L904.616 308.418 Z" fill="#000000" fill-rule="evenodd" fill-opacity="1"></path><path clip-path="url(#clip270)" d="M918.991 315.779 L923.25 315.779 L923.25 341.705 L918.991 341.705 L918.991 315.779 M918.991 305.686 L923.25 305.686 L923.25 311.08 L918.991 311.08 L918.991 305.686 Z" fill="#000000" fill-rule="evenodd" fill-opacity="1"></path><path clip-path="url(#clip270)" d="M953.713 326.057 L953.713 341.705 L949.454 341.705 L949.454 326.195 Q949.454 322.515 948.018 320.686 Q946.583 318.858 943.713 318.858 Q940.264 318.858 938.273 321.057 Q936.282 323.256 936.282 327.052 L936.282 341.705 L932 341.705 L932 315.779 L936.282 315.779 L936.282 319.807 Q937.81 317.469 939.87 316.311 Q941.954 315.154 944.662 315.154 Q949.129 315.154 951.421 317.932 Q953.713 320.686 953.713 326.057 Z" fill="#000000" fill-rule="evenodd" fill-opacity="1"></path><path clip-path="url(#clip270)" d="M979.268 328.441 Q979.268 323.811 977.347 321.265 Q975.449 318.719 972 318.719 Q968.574 318.719 966.653 321.265 Q964.754 323.811 964.754 328.441 Q964.754 333.047 966.653 335.594 Q968.574 338.14 972 338.14 Q975.449 338.14 977.347 335.594 Q979.268 333.047 979.268 328.441 M983.527 338.487 Q983.527 345.107 980.588 348.325 Q977.648 351.566 971.583 351.566 Q969.338 351.566 967.347 351.218 Q965.356 350.894 963.481 350.2 L963.481 346.056 Q965.356 347.075 967.185 347.561 Q969.014 348.047 970.912 348.047 Q975.102 348.047 977.185 345.848 Q979.268 343.672 979.268 339.251 L979.268 337.144 Q977.949 339.436 975.889 340.57 Q973.828 341.705 970.958 341.705 Q966.19 341.705 963.273 338.07 Q960.356 334.436 960.356 328.441 Q960.356 322.422 963.273 318.788 Q966.19 315.154 970.958 315.154 Q973.828 315.154 975.889 316.288 Q977.949 317.422 979.268 319.714 L979.268 315.779 L983.527 315.779 L983.527 338.487 Z" fill="#000000" fill-rule="evenodd" fill-opacity="1"></path><path clip-path="url(#clip270)" d="M991.629 305.733 L995.333 305.733 Q998.805 311.196 1000.52 316.427 Q1002.25 321.658 1002.25 326.82 Q1002.25 332.006 1000.52 337.26 Q998.805 342.515 995.333 347.955 L991.629 347.955 Q994.708 342.654 996.213 337.422 Q997.74 332.168 997.74 326.82 Q997.74 321.473 996.213 316.265 Q994.708 311.057 991.629 305.733 Z" fill="#000000" fill-rule="evenodd" fill-opacity="1"></path></svg>